<svg xmlns="http://www.w3.org/2000/svg" viewBox="0 0 289.78 245.05"><defs><style>.cls-1{fill:#f5f5f5;}.cls-2{fill:#e6e6e6;}.cls-3{fill:#27debf;}.cls-4{opacity:0.05;}.cls-12,.cls-13,.cls-14,.cls-5,.cls-6{fill:#fff;}.cls-5{opacity:0.6;}.cls-6{opacity:0.5;}.cls-7{fill:#37474f;}.cls-8{fill:#263238;}.cls-9{opacity:0.3;}.cls-10,.cls-16{fill:#455a64;}.cls-11,.cls-12{opacity:0.2;}.cls-13,.cls-16{opacity:0.4;}.cls-14{opacity:0.8;}.cls-15{fill:#fafafa;}</style></defs><g id="Floor"><ellipse id="Floor-2" data-name="Floor" class="cls-1" cx="144.89" cy="158.19" rx="144.89" ry="86.86"/></g><g id="Shadows"><path id="Shadow" class="cls-2" d="M126.89,248.17l83.51,50.07a6.37,6.37,0,0,0,6,0l109-65.15c1.65-1,1.65-2.59,0-3.57l-83.9-50.14a6.4,6.4,0,0,0-6,0L126.89,244.6C125.24,245.59,125.24,247.19,126.89,248.17Z" transform="translate(-48.22 -65.71)"/><path id="Shadow-2" data-name="Shadow" class="cls-2" d="M109.12,235.93,67,210.7c-1.67-1-1.67-2.63,0-3.63,10.47-6.31,44.67-26.92,45.11-27s34.75,20.71,45.23,27.09c1.66,1,1.66,2.63,0,3.63l-42.2,25.18A6.48,6.48,0,0,1,109.12,235.93Z" transform="translate(-48.22 -65.71)"/><path id="Shadow-3" data-name="Shadow" class="cls-2" d="M253.88,158.21c9.3-5.58,24.38-5.58,33.68,0,7.88,4.72,9.08,11.94,3.6,17.42a4.1,4.1,0,0,1,.88.38l29.38,17.61a1.45,1.45,0,0,1,0,2.71l-1.83,1.1a4.5,4.5,0,0,1-4.45-.13l-27.36-18.59a2.83,2.83,0,0,1-.31-.26c-9.31,5.52-24.32,5.5-33.59,0S244.58,163.78,253.88,158.21Z" transform="translate(-48.22 -65.71)"/></g><g id="Magnifying_glass" data-name="Magnifying glass"><g id="Magnifying_glass-2" data-name="Magnifying glass"><path class="cls-3" d="M249.87,161.83v6c0,3.26,2.07,6.52,6.22,9,8.31,5,21.76,5,30.06,0,4.15-2.49,6.23-5.75,6.23-9v-6h0c0-3.26-2.08-6.52-6.23-9-8.3-5-21.75-5-30.06,0-4.15,2.48-6.22,5.74-6.22,9Zm40.45,0c0,2.6-1.84,5.15-5.19,7.16a30.23,30.23,0,0,1-28,0c-3.35-2-5.19-4.56-5.19-7.16s1.84-5.16,5.19-7.17a30.23,30.23,0,0,1,28,0C288.48,156.68,290.32,159.23,290.32,161.84Z" transform="translate(-48.22 -65.71)"/><path class="cls-4" d="M271.82,174.57v6c-5.67.1-11.4-1.13-15.73-3.72-4.14-2.49-6.22-5.75-6.22-9v-6c0-.21,0-.42,0-.62-.28,3.46,1.79,7,6.2,9.63A30.13,30.13,0,0,0,271.82,174.57Z" transform="translate(-48.22 -65.71)"/><path class="cls-5" d="M286.15,152.83c-8.3-5-21.75-5-30,0s-8.3,13,0,18,21.75,5,30,0S294.45,157.8,286.15,152.83Zm-1,16.17a30.23,30.23,0,0,1-28,0c-3.35-2-5.19-4.56-5.19-7.16s1.84-5.16,5.19-7.17a30.23,30.23,0,0,1,28,0c3.35,2,5.19,4.56,5.19,7.17S288.48,167,285.13,169Z" transform="translate(-48.22 -65.71)"/><path class="cls-3" d="M290.33,161.83a6.16,6.16,0,0,1-.83,3,11.81,11.81,0,0,0-4.37-4.16,30.13,30.13,0,0,0-28,0,11.77,11.77,0,0,0-4.38,4.16,6.14,6.14,0,0,1-.82-3c0-2.6,1.84-5.15,5.2-7.16a30.21,30.21,0,0,1,28,0C288.48,156.68,290.33,159.23,290.33,161.83Z" transform="translate(-48.22 -65.71)"/><path class="cls-6" d="M285.13,157.39a30.23,30.23,0,0,0-28,0c-2.76,1.66-4.5,3.68-5,5.8.52,2.13,2.26,4.15,5,5.81a30.23,30.23,0,0,0,28,0c2.76-1.66,4.5-3.68,5-5.81C289.63,161.07,287.89,159.05,285.13,157.39Z" transform="translate(-48.22 -65.71)"/><path class="cls-7" d="M285.52,174.67A3.47,3.47,0,0,1,287,172a1,1,0,0,1,1.05-.11h0l7.16,4.24h0a1.11,1.11,0,0,1,.44,1,3.47,3.47,0,0,1-1.48,2.69,1,1,0,0,1-1.05.11h0L286,175.67h0A1.08,1.08,0,0,1,285.52,174.67Z" transform="translate(-48.22 -65.71)"/><path class="cls-8" d="M286,175.67a1.08,1.08,0,0,1-.45-1,3.07,3.07,0,0,1,.25-1.16L295,179a3,3,0,0,1-.83.81,1,1,0,0,1-1.05.11L286,175.67Z" transform="translate(-48.22 -65.71)"/><path d="M293.61,177.65h0c0,.08-.1.16-.14.25C293.51,177.82,293.56,177.74,293.61,177.65Z" transform="translate(-48.22 -65.71)"/><path class="cls-3" d="M318.27,192.44l-24.66-14.78a3.89,3.89,0,0,1,1.28-1.38,1.32,1.32,0,0,1,1.34-.15h0L320,189.29Z" transform="translate(-48.22 -65.71)"/><path class="cls-5" d="M318.27,192.44l-24.66-14.78a3.89,3.89,0,0,1,1.28-1.38,1.32,1.32,0,0,1,1.34-.15h0L320,189.29Z" transform="translate(-48.22 -65.71)"/><path class="cls-3" d="M318.27,192.44l-1.82,3.35-22.91-14.71a1.46,1.46,0,0,1-.58-1.3,3.77,3.77,0,0,1,.19-1.13,1.8,1.8,0,0,0,.08-.21,5.05,5.05,0,0,1,.24-.53c0-.09.09-.17.14-.26Z" transform="translate(-48.22 -65.71)"/><path class="cls-4" d="M318.27,192.44l-1.82,3.35-22.91-14.71a1.46,1.46,0,0,1-.58-1.3,3.77,3.77,0,0,1,.19-1.13,1.8,1.8,0,0,0,.08-.21,5.05,5.05,0,0,1,.24-.53c0-.09.09-.17.14-.26Z" transform="translate(-48.22 -65.71)"/><path class="cls-3" d="M318.24,195.59a5.86,5.86,0,0,0,2.52-4.58c0-1.68-1.15-2.36-2.55-1.51a5.86,5.86,0,0,0-2.52,4.58C315.69,195.76,316.83,196.44,318.24,195.59Z" transform="translate(-48.22 -65.71)"/><g class="cls-9"><path d="M318.24,195.59a5.86,5.86,0,0,0,2.52-4.58c0-1.68-1.15-2.36-2.55-1.51a5.86,5.86,0,0,0-2.52,4.58C315.69,195.76,316.83,196.44,318.24,195.59Z" transform="translate(-48.22 -65.71)"/></g></g></g><g id="Lines"><g id="Lines-2" data-name="Lines"><path class="cls-3" d="M157.44,278.64a3.87,3.87,0,0,1-2-.5L91.13,239.58a1.52,1.52,0,0,1,0-2.8l15.16-9.09.35.63-15.16,9.09a1,1,0,0,0-.58.77,1,1,0,0,0,.58.78l64.32,38.56a3.56,3.56,0,0,0,3.27,0l12.35-7.4.35.62-12.35,7.4A3.84,3.84,0,0,1,157.44,278.64Z" transform="translate(-48.22 -65.71)"/><path class="cls-3" d="M157.44,285.43a4,4,0,0,1-2-.5L79.8,239.58a1.53,1.53,0,0,1,0-2.8l20.84-12.49.35.63L80.15,237.41a1,1,0,0,0-.57.77,1,1,0,0,0,.57.78L155.8,284.3a3.5,3.5,0,0,0,3.27,0l18-10.79.35.63-18,10.79A3.94,3.94,0,0,1,157.44,285.43Z" transform="translate(-48.22 -65.71)"/><path class="cls-3" d="M157.44,292.22a4,4,0,0,1-2-.5l-87-52.14a1.53,1.53,0,0,1,0-2.8L95,220.9l.35.62-26.5,15.89a1,1,0,0,0-.58.77,1,1,0,0,0,.58.77l87,52.14a3.52,3.52,0,0,0,3.28,0l23.66-14.19.35.63-23.67,14.19A3.94,3.94,0,0,1,157.44,292.22Z" transform="translate(-48.22 -65.71)"/></g></g><g id="Server"><g id="Server-2" data-name="Server"><polygon class="cls-8" points="18.63 128.35 63.93 155.5 109.22 128.35 63.92 101.19 18.63 128.35"/><path class="cls-10" d="M112.14,221.21v12.52a6,6,0,0,1-3-.75h0L89.49,221.21,68.65,208.72a4.19,4.19,0,0,1-1.81-3.26v-11.4l44.05,26.4Z" transform="translate(-48.22 -65.71)"/><path class="cls-7" d="M157.44,194.06v11.4a4.22,4.22,0,0,1-1.81,3.26l-18,10.79L115.16,233a6,6,0,0,1-3,.75V221.21l1.41-.84Z" transform="translate(-48.22 -65.71)"/><path class="cls-3" d="M69.67,199.51v1.54a.69.69,0,0,0,.31.54l.34.2c.16.1.3,0,.3-.18v-1.54a.71.71,0,0,0-.3-.54l-.34-.2C69.81,199.23,69.67,199.31,69.67,199.51Z" transform="translate(-48.22 -65.71)"/><path class="cls-3" d="M71.2,200.42V202a.68.68,0,0,0,.3.54l.34.21c.17.1.3,0,.3-.18V201a.7.7,0,0,0-.3-.55l-.34-.2C71.33,200.14,71.2,200.22,71.2,200.42Z" transform="translate(-48.22 -65.71)"/><path class="cls-3" d="M72.72,201.34v1.53a.71.71,0,0,0,.31.55l.34.2c.16.1.3,0,.3-.18V201.9a.71.71,0,0,0-.3-.54l-.34-.21C72.86,201.05,72.72,201.14,72.72,201.34Z" transform="translate(-48.22 -65.71)"/><path class="cls-3" d="M74.25,202.25v1.54a.71.71,0,0,0,.3.54l.34.2c.17.1.3,0,.3-.18v-1.54a.68.68,0,0,0-.3-.54l-.34-.2C74.39,202,74.25,202.05,74.25,202.25Z" transform="translate(-48.22 -65.71)"/><path class="cls-8" d="M75.78,203.16v1.54a.68.68,0,0,0,.3.54l.34.21c.16.1.3,0,.3-.19v-1.53a.73.73,0,0,0-.3-.55l-.34-.2C75.91,202.88,75.78,203,75.78,203.16Z" transform="translate(-48.22 -65.71)"/><path class="cls-3" d="M77.3,204.07v1.54a.71.71,0,0,0,.3.54l.34.21c.17.1.3,0,.3-.18v-1.54a.68.68,0,0,0-.3-.54l-.34-.21C77.44,203.79,77.3,203.87,77.3,204.07Z" transform="translate(-48.22 -65.71)"/><path class="cls-8" d="M78.83,205v1.53a.7.7,0,0,0,.3.55l.34.2c.16.1.3,0,.3-.18v-1.54a.71.71,0,0,0-.3-.54l-.34-.2C79,204.71,78.83,204.79,78.83,205Z" transform="translate(-48.22 -65.71)"/><path class="cls-8" d="M80.35,205.9v1.54a.71.71,0,0,0,.3.54l.34.2c.17.1.3,0,.3-.18v-1.53a.7.7,0,0,0-.3-.55l-.34-.2C80.49,205.62,80.35,205.7,80.35,205.9Z" transform="translate(-48.22 -65.71)"/><path class="cls-8" d="M81.88,206.81v1.54a.68.68,0,0,0,.3.54l.34.21c.16.1.3,0,.3-.18v-1.54a.71.71,0,0,0-.3-.54l-.34-.21C82,206.53,81.88,206.61,81.88,206.81Z" transform="translate(-48.22 -65.71)"/><path class="cls-3" d="M83.4,207.73v1.53a.73.73,0,0,0,.3.55l.34.2c.17.1.3,0,.3-.18v-1.54a.68.68,0,0,0-.3-.54l-.34-.21C83.54,207.44,83.4,207.53,83.4,207.73Z" transform="translate(-48.22 -65.71)"/><path class="cls-3" d="M84.93,208.64v1.54a.68.68,0,0,0,.3.54l.34.2c.16.1.3,0,.3-.18V209.2a.71.71,0,0,0-.3-.54l-.34-.2C85.06,208.36,84.93,208.44,84.93,208.64Z" transform="translate(-48.22 -65.71)"/><path class="cls-8" d="M86.45,209.55v1.54a.71.71,0,0,0,.3.54l.34.21c.17.1.3,0,.3-.19v-1.53a.7.7,0,0,0-.3-.55l-.34-.2C86.59,209.27,86.45,209.35,86.45,209.55Z" transform="translate(-48.22 -65.71)"/><path class="cls-8" d="M88,210.46V212a.7.7,0,0,0,.3.55l.34.2c.16.1.3,0,.3-.18V211a.71.71,0,0,0-.3-.54l-.34-.21C88.11,210.18,88,210.26,88,210.46Z" transform="translate(-48.22 -65.71)"/><path class="cls-3" d="M89.5,211.38v1.54a.71.71,0,0,0,.3.54l.34.2c.17.1.31,0,.31-.18v-1.54a.69.69,0,0,0-.31-.54l-.34-.2C89.64,211.1,89.5,211.18,89.5,211.38Z" transform="translate(-48.22 -65.71)"/><path class="cls-3" d="M91,212.29v1.54a.68.68,0,0,0,.3.54l.34.2c.17.1.3,0,.3-.18v-1.53a.7.7,0,0,0-.3-.55l-.34-.2C91.16,212,91,212.09,91,212.29Z" transform="translate(-48.22 -65.71)"/><path class="cls-3" d="M92.55,213.2v1.54a.71.71,0,0,0,.3.54l.34.21c.17.1.31,0,.31-.18v-1.54a.69.69,0,0,0-.31-.54l-.34-.21C92.69,212.92,92.55,213,92.55,213.2Z" transform="translate(-48.22 -65.71)"/><path class="cls-3" d="M94.08,214.12v1.53a.7.7,0,0,0,.3.55l.34.2c.17.1.3,0,.3-.18v-1.54a.68.68,0,0,0-.3-.54l-.34-.2C94.21,213.84,94.08,213.92,94.08,214.12Z" transform="translate(-48.22 -65.71)"/><path class="cls-3" d="M69.67,204.07v1.54a.69.69,0,0,0,.31.54l.34.21c.16.1.3,0,.3-.18v-1.54a.71.71,0,0,0-.3-.54l-.34-.21C69.81,203.79,69.67,203.87,69.67,204.07Z" transform="translate(-48.22 -65.71)"/><path class="cls-8" d="M71.2,205v1.53a.7.7,0,0,0,.3.55l.34.2c.17.1.3,0,.3-.18v-1.54a.68.68,0,0,0-.3-.54l-.34-.2C71.33,204.71,71.2,204.79,71.2,205Z" transform="translate(-48.22 -65.71)"/><path class="cls-3" d="M72.72,205.9v1.54A.69.69,0,0,0,73,208l.34.2c.16.1.3,0,.3-.18v-1.53a.73.73,0,0,0-.3-.55l-.34-.2C72.86,205.62,72.72,205.7,72.72,205.9Z" transform="translate(-48.22 -65.71)"/><path class="cls-8" d="M74.25,206.81v1.54a.71.71,0,0,0,.3.54l.34.21c.17.1.3,0,.3-.18v-1.54a.68.68,0,0,0-.3-.54l-.34-.21C74.39,206.53,74.25,206.61,74.25,206.81Z" transform="translate(-48.22 -65.71)"/><path class="cls-8" d="M75.78,207.73v1.53a.7.7,0,0,0,.3.55l.34.2c.16.1.3,0,.3-.18v-1.54a.71.71,0,0,0-.3-.54l-.34-.21C75.91,207.44,75.78,207.53,75.78,207.73Z" transform="translate(-48.22 -65.71)"/><path class="cls-3" d="M77.3,208.64v1.54a.71.71,0,0,0,.3.54l.34.2c.17.1.3,0,.3-.18V209.2a.68.68,0,0,0-.3-.54l-.34-.2C77.44,208.36,77.3,208.44,77.3,208.64Z" transform="translate(-48.22 -65.71)"/><path class="cls-3" d="M78.83,209.55v1.54a.68.68,0,0,0,.3.54l.34.21c.16.1.3,0,.3-.19v-1.53a.73.73,0,0,0-.3-.55l-.34-.2C79,209.27,78.83,209.35,78.83,209.55Z" transform="translate(-48.22 -65.71)"/><path class="cls-3" d="M80.35,210.46V212a.73.73,0,0,0,.3.55l.34.2c.17.1.3,0,.3-.18V211a.68.68,0,0,0-.3-.54l-.34-.21C80.49,210.18,80.35,210.26,80.35,210.46Z" transform="translate(-48.22 -65.71)"/><path class="cls-3" d="M81.88,211.38v1.54a.68.68,0,0,0,.3.54l.34.2c.16.1.3,0,.3-.18v-1.54a.71.71,0,0,0-.3-.54l-.34-.2C82,211.1,81.88,211.18,81.88,211.38Z" transform="translate(-48.22 -65.71)"/><path class="cls-8" d="M83.4,212.29v1.54a.71.71,0,0,0,.3.54l.34.2c.17.1.3,0,.3-.18v-1.53a.7.7,0,0,0-.3-.55l-.34-.2C83.54,212,83.4,212.09,83.4,212.29Z" transform="translate(-48.22 -65.71)"/><path class="cls-8" d="M84.93,213.2v1.54a.68.68,0,0,0,.3.54l.34.21c.16.1.3,0,.3-.18v-1.54a.71.71,0,0,0-.3-.54l-.34-.21C85.06,212.92,84.93,213,84.93,213.2Z" transform="translate(-48.22 -65.71)"/><path class="cls-3" d="M86.45,214.12v1.53a.73.73,0,0,0,.3.55l.34.2c.17.1.3,0,.3-.18v-1.54a.68.68,0,0,0-.3-.54l-.34-.2C86.59,213.84,86.45,213.92,86.45,214.12Z" transform="translate(-48.22 -65.71)"/><path class="cls-3" d="M88,215v1.54a.68.68,0,0,0,.3.54l.34.2c.16.1.3,0,.3-.18v-1.54a.71.71,0,0,0-.3-.54l-.34-.2C88.11,214.75,88,214.83,88,215Z" transform="translate(-48.22 -65.71)"/><path class="cls-8" d="M89.5,215.94v1.54a.71.71,0,0,0,.3.54l.34.21c.17.1.31,0,.31-.18v-1.54a.71.71,0,0,0-.31-.55l-.34-.2C89.64,215.66,89.5,215.74,89.5,215.94Z" transform="translate(-48.22 -65.71)"/><path class="cls-8" d="M91,216.85v1.54a.7.7,0,0,0,.3.55l.34.2c.17.1.3,0,.3-.18v-1.54a.68.68,0,0,0-.3-.54l-.34-.21C91.16,216.57,91,216.66,91,216.85Z" transform="translate(-48.22 -65.71)"/><path class="cls-8" d="M92.55,217.77v1.54a.71.71,0,0,0,.3.54l.34.2c.17.1.31,0,.31-.18v-1.54a.69.69,0,0,0-.31-.54l-.34-.2C92.69,217.49,92.55,217.57,92.55,217.77Z" transform="translate(-48.22 -65.71)"/><path class="cls-8" d="M94.08,218.68v1.54a.68.68,0,0,0,.3.54l.34.21c.17.09.3,0,.3-.19v-1.53a.7.7,0,0,0-.3-.55l-.34-.2C94.21,218.4,94.08,218.48,94.08,218.68Z" transform="translate(-48.22 -65.71)"/><path class="cls-3" d="M99.17,219.32l.69-.41h0a.9.9,0,0,1,.92.09,3,3,0,0,1,1.31,2.36,1,1,0,0,1-.38.88h0l-.65.38-.11-.2a1.35,1.35,0,0,1-.38-.16,3,3,0,0,1-1.31-2.35,1.78,1.78,0,0,1,0-.35Z" transform="translate(-48.22 -65.71)"/><path class="cls-11" d="M99.17,219.32l.69-.41h0a.9.9,0,0,1,.92.09,3,3,0,0,1,1.31,2.36,1,1,0,0,1-.38.88h0l-.65.38-.11-.2a1.35,1.35,0,0,1-.38-.16,3,3,0,0,1-1.31-2.35,1.78,1.78,0,0,1,0-.35Z" transform="translate(-48.22 -65.71)"/><path class="cls-3" d="M100.13,219.4a3.05,3.05,0,0,1,1.31,2.36c0,.87-.59,1.22-1.31.79a3,3,0,0,1-1.32-2.36C98.81,219.32,99.4,219,100.13,219.4Z" transform="translate(-48.22 -65.71)"/><path class="cls-3" d="M104.87,222.74l.69-.42h0a.88.88,0,0,1,.92.1,3,3,0,0,1,1.32,2.36,1,1,0,0,1-.39.88h0l-.64.38-.12-.2a1.25,1.25,0,0,1-.37-.15,3,3,0,0,1-1.32-2.36A1.29,1.29,0,0,1,105,223Z" transform="translate(-48.22 -65.71)"/><path class="cls-11" d="M104.87,222.74l.69-.42h0a.88.88,0,0,1,.92.1,3,3,0,0,1,1.32,2.36,1,1,0,0,1-.39.88h0l-.64.38-.12-.2a1.25,1.25,0,0,1-.37-.15,3,3,0,0,1-1.32-2.36A1.29,1.29,0,0,1,105,223Z" transform="translate(-48.22 -65.71)"/><path class="cls-3" d="M105.82,222.81a3.05,3.05,0,0,1,1.31,2.36c0,.87-.59,1.22-1.31.79a3.05,3.05,0,0,1-1.31-2.36C104.51,222.73,105.1,222.38,105.82,222.81Z" transform="translate(-48.22 -65.71)"/><polygon class="cls-8" points="18.63 107.98 63.93 135.14 109.22 107.98 63.92 80.83 18.63 107.98"/><polygon class="cls-10" points="18.63 121.56 63.93 148.72 63.93 135.14 18.63 107.98 18.63 121.56"/><polygon class="cls-7" points="63.93 148.72 109.22 121.56 109.22 107.98 63.93 135.14 63.93 148.72"/><polygon class="cls-3" points="24.29 128.35 24.29 124.95 63.93 148.72 63.93 152.11 24.29 128.35"/><polygon class="cls-3" points="106.39 123.26 106.39 126.65 63.93 152.11 63.93 148.72 106.39 123.26"/><polygon class="cls-11" points="106.39 123.26 106.39 126.65 63.93 152.11 63.93 148.72 106.39 123.26"/><path class="cls-8" d="M69.67,179.14v1.54a.69.69,0,0,0,.31.54l.34.21c.16.1.3,0,.3-.18v-1.54a.71.71,0,0,0-.3-.54L70,179C69.81,178.86,69.67,178.94,69.67,179.14Z" transform="translate(-48.22 -65.71)"/><path class="cls-3" d="M71.2,180.06v1.53a.7.7,0,0,0,.3.55l.34.2c.17.1.3,0,.3-.18v-1.54a.68.68,0,0,0-.3-.54l-.34-.2C71.33,179.78,71.2,179.86,71.2,180.06Z" transform="translate(-48.22 -65.71)"/><path class="cls-3" d="M72.72,181v1.54a.69.69,0,0,0,.31.54l.34.2c.16.1.3,0,.3-.18v-1.53a.73.73,0,0,0-.3-.55l-.34-.2C72.86,180.69,72.72,180.77,72.72,181Z" transform="translate(-48.22 -65.71)"/><path class="cls-8" d="M74.25,181.88v1.54a.71.71,0,0,0,.3.54l.34.21c.17.1.3,0,.3-.18v-1.54a.68.68,0,0,0-.3-.54l-.34-.21C74.39,181.6,74.25,181.68,74.25,181.88Z" transform="translate(-48.22 -65.71)"/><path class="cls-8" d="M75.78,182.8v1.53a.7.7,0,0,0,.3.55l.34.2c.16.1.3,0,.3-.18v-1.54a.71.71,0,0,0-.3-.54l-.34-.21C75.91,182.52,75.78,182.6,75.78,182.8Z" transform="translate(-48.22 -65.71)"/><path class="cls-3" d="M77.3,183.71v1.54a.71.71,0,0,0,.3.54l.34.2c.17.1.3,0,.3-.18v-1.54a.68.68,0,0,0-.3-.54l-.34-.2C77.44,183.43,77.3,183.51,77.3,183.71Z" transform="translate(-48.22 -65.71)"/><path class="cls-3" d="M78.83,184.62v1.54a.68.68,0,0,0,.3.54l.34.21c.16.1.3,0,.3-.19v-1.53a.73.73,0,0,0-.3-.55l-.34-.2C79,184.34,78.83,184.42,78.83,184.62Z" transform="translate(-48.22 -65.71)"/><path class="cls-3" d="M80.35,185.53v1.54a.73.73,0,0,0,.3.55l.34.2c.17.1.3,0,.3-.18V186.1a.68.68,0,0,0-.3-.54l-.34-.21C80.49,185.25,80.35,185.33,80.35,185.53Z" transform="translate(-48.22 -65.71)"/><path class="cls-3" d="M81.88,186.45V188a.68.68,0,0,0,.3.54l.34.2c.16.1.3,0,.3-.18V187a.71.71,0,0,0-.3-.54l-.34-.2C82,186.17,81.88,186.25,81.88,186.45Z" transform="translate(-48.22 -65.71)"/><path class="cls-8" d="M83.4,187.36v1.54a.71.71,0,0,0,.3.54l.34.2c.17.1.3,0,.3-.18v-1.53a.7.7,0,0,0-.3-.55l-.34-.2C83.54,187.08,83.4,187.16,83.4,187.36Z" transform="translate(-48.22 -65.71)"/><path class="cls-8" d="M84.93,188.27v1.54a.68.68,0,0,0,.3.54l.34.21c.16.1.3,0,.3-.18v-1.54a.71.71,0,0,0-.3-.54l-.34-.21C85.06,188,84.93,188.07,84.93,188.27Z" transform="translate(-48.22 -65.71)"/><path class="cls-8" d="M86.45,189.19v1.53a.73.73,0,0,0,.3.55l.34.2c.17.1.3,0,.3-.18v-1.54a.68.68,0,0,0-.3-.54l-.34-.2C86.59,188.91,86.45,189,86.45,189.19Z" transform="translate(-48.22 -65.71)"/><path class="cls-3" d="M88,190.1v1.54a.68.68,0,0,0,.3.54l.34.2c.16.1.3,0,.3-.18v-1.54a.71.71,0,0,0-.3-.54l-.34-.2C88.11,189.82,88,189.9,88,190.1Z" transform="translate(-48.22 -65.71)"/><path class="cls-3" d="M89.5,191v1.54a.71.71,0,0,0,.3.54l.34.21c.17.1.31,0,.31-.18v-1.54a.71.71,0,0,0-.31-.55l-.34-.2C89.64,190.73,89.5,190.81,89.5,191Z" transform="translate(-48.22 -65.71)"/><path class="cls-3" d="M91,191.93v1.53a.7.7,0,0,0,.3.55l.34.2c.17.1.3,0,.3-.18v-1.54a.68.68,0,0,0-.3-.54l-.34-.21C91.16,191.64,91,191.73,91,191.93Z" transform="translate(-48.22 -65.71)"/><path class="cls-8" d="M92.55,192.84v1.54a.71.71,0,0,0,.3.54l.34.2c.17.1.31,0,.31-.18V193.4a.69.69,0,0,0-.31-.54l-.34-.2C92.69,192.56,92.55,192.64,92.55,192.84Z" transform="translate(-48.22 -65.71)"/><path class="cls-3" d="M94.08,193.75v1.54a.68.68,0,0,0,.3.54l.34.21c.17.1.3,0,.3-.19v-1.53a.7.7,0,0,0-.3-.55l-.34-.2C94.21,193.47,94.08,193.55,94.08,193.75Z" transform="translate(-48.22 -65.71)"/><path class="cls-3" d="M69.67,183.71v1.54a.69.69,0,0,0,.31.54l.34.2c.16.1.3,0,.3-.18v-1.54a.71.71,0,0,0-.3-.54l-.34-.2C69.81,183.43,69.67,183.51,69.67,183.71Z" transform="translate(-48.22 -65.71)"/><path class="cls-3" d="M71.2,184.62v1.54a.68.68,0,0,0,.3.54l.34.21c.17.1.3,0,.3-.19v-1.53a.7.7,0,0,0-.3-.55l-.34-.2C71.33,184.34,71.2,184.42,71.2,184.62Z" transform="translate(-48.22 -65.71)"/><path class="cls-3" d="M72.72,185.53v1.54a.71.71,0,0,0,.31.55l.34.2c.16.1.3,0,.3-.18V186.1a.71.71,0,0,0-.3-.54l-.34-.21C72.86,185.25,72.72,185.33,72.72,185.53Z" transform="translate(-48.22 -65.71)"/><path class="cls-3" d="M74.25,186.45V188a.71.71,0,0,0,.3.54l.34.2c.17.1.3,0,.3-.18V187a.68.68,0,0,0-.3-.54l-.34-.2C74.39,186.17,74.25,186.25,74.25,186.45Z" transform="translate(-48.22 -65.71)"/><path class="cls-8" d="M75.78,187.36v1.54a.68.68,0,0,0,.3.54l.34.2c.16.1.3,0,.3-.18v-1.53a.73.73,0,0,0-.3-.55l-.34-.2C75.91,187.08,75.78,187.16,75.78,187.36Z" transform="translate(-48.22 -65.71)"/><path class="cls-8" d="M77.3,188.27v1.54a.71.71,0,0,0,.3.54l.34.21c.17.1.3,0,.3-.18v-1.54a.68.68,0,0,0-.3-.54l-.34-.21C77.44,188,77.3,188.07,77.3,188.27Z" transform="translate(-48.22 -65.71)"/><path class="cls-3" d="M78.83,189.19v1.53a.7.7,0,0,0,.3.55l.34.2c.16.1.3,0,.3-.18v-1.54a.71.71,0,0,0-.3-.54l-.34-.2C79,188.91,78.83,189,78.83,189.19Z" transform="translate(-48.22 -65.71)"/><path class="cls-3" d="M80.35,190.1v1.54a.71.71,0,0,0,.3.54l.34.2c.17.1.3,0,.3-.18v-1.54a.68.68,0,0,0-.3-.54l-.34-.2C80.49,189.82,80.35,189.9,80.35,190.1Z" transform="translate(-48.22 -65.71)"/><path class="cls-3" d="M81.88,191v1.54a.68.68,0,0,0,.3.54l.34.21c.16.1.3,0,.3-.18v-1.54a.73.73,0,0,0-.3-.55l-.34-.2C82,190.73,81.88,190.81,81.88,191Z" transform="translate(-48.22 -65.71)"/><path class="cls-3" d="M83.4,191.93v1.53a.73.73,0,0,0,.3.55l.34.2c.17.1.3,0,.3-.18v-1.54A.68.68,0,0,0,84,192l-.34-.21C83.54,191.64,83.4,191.73,83.4,191.93Z" transform="translate(-48.22 -65.71)"/><path class="cls-3" d="M84.93,192.84v1.54a.68.68,0,0,0,.3.54l.34.2c.16.1.3,0,.3-.18V193.4a.71.71,0,0,0-.3-.54l-.34-.2C85.06,192.56,84.93,192.64,84.93,192.84Z" transform="translate(-48.22 -65.71)"/><path class="cls-8" d="M86.45,193.75v1.54a.71.71,0,0,0,.3.54l.34.21c.17.1.3,0,.3-.19v-1.53a.7.7,0,0,0-.3-.55l-.34-.2C86.59,193.47,86.45,193.55,86.45,193.75Z" transform="translate(-48.22 -65.71)"/><path class="cls-3" d="M88,194.66v1.54a.68.68,0,0,0,.3.54l.34.21c.16.1.3,0,.3-.18v-1.54a.71.71,0,0,0-.3-.54l-.34-.21C88.11,194.38,88,194.46,88,194.66Z" transform="translate(-48.22 -65.71)"/><path class="cls-3" d="M89.5,195.58v1.53a.73.73,0,0,0,.3.55l.34.2c.17.1.31,0,.31-.18v-1.54a.69.69,0,0,0-.31-.54l-.34-.2C89.64,195.3,89.5,195.38,89.5,195.58Z" transform="translate(-48.22 -65.71)"/><path class="cls-3" d="M91,196.49V198a.68.68,0,0,0,.3.54l.34.2c.17.1.3,0,.3-.18v-1.53a.7.7,0,0,0-.3-.55l-.34-.2C91.16,196.21,91,196.29,91,196.49Z" transform="translate(-48.22 -65.71)"/><path class="cls-3" d="M92.55,197.4v1.54a.71.71,0,0,0,.3.54l.34.21c.17.1.31,0,.31-.18V198a.69.69,0,0,0-.31-.54l-.34-.21C92.69,197.12,92.55,197.2,92.55,197.4Z" transform="translate(-48.22 -65.71)"/><path class="cls-3" d="M94.08,198.32v1.53a.7.7,0,0,0,.3.55l.34.2c.17.1.3,0,.3-.18v-1.54a.68.68,0,0,0-.3-.54l-.34-.21C94.21,198,94.08,198.12,94.08,198.32Z" transform="translate(-48.22 -65.71)"/><path class="cls-3" d="M99.17,199l.69-.42h0a.88.88,0,0,1,.92.1A3,3,0,0,1,102.1,201a1,1,0,0,1-.38.88h0l-.65.38-.11-.2a1.3,1.3,0,0,1-.38-.15,3,3,0,0,1-1.31-2.36,1.87,1.87,0,0,1,0-.35Z" transform="translate(-48.22 -65.71)"/><path class="cls-11" d="M99.17,199l.69-.42h0a.88.88,0,0,1,.92.1A3,3,0,0,1,102.1,201a1,1,0,0,1-.38.88h0l-.65.38-.11-.2a1.3,1.3,0,0,1-.38-.15,3,3,0,0,1-1.31-2.36,1.87,1.87,0,0,1,0-.35Z" transform="translate(-48.22 -65.71)"/><path class="cls-3" d="M100.13,199a3,3,0,0,1,1.31,2.36c0,.86-.59,1.22-1.31.78a3,3,0,0,1-1.32-2.36C98.81,199,99.4,198.6,100.13,199Z" transform="translate(-48.22 -65.71)"/><path class="cls-3" d="M104.87,202.37l.69-.41h0a.9.9,0,0,1,.92.1,3,3,0,0,1,1.32,2.36,1,1,0,0,1-.39.88h0l-.64.38-.12-.2a1.25,1.25,0,0,1-.37-.15A3,3,0,0,1,105,203a1.29,1.29,0,0,1,.05-.35Z" transform="translate(-48.22 -65.71)"/><path class="cls-11" d="M104.87,202.37l.69-.41h0a.9.9,0,0,1,.92.1,3,3,0,0,1,1.32,2.36,1,1,0,0,1-.39.88h0l-.64.38-.12-.2a1.25,1.25,0,0,1-.37-.15A3,3,0,0,1,105,203a1.29,1.29,0,0,1,.05-.35Z" transform="translate(-48.22 -65.71)"/><path class="cls-3" d="M105.82,202.45a3,3,0,0,1,1.31,2.36c0,.87-.59,1.22-1.31.78a3,3,0,0,1-1.31-2.36C104.51,202.37,105.1,202,105.82,202.45Z" transform="translate(-48.22 -65.71)"/><polygon class="cls-8" points="18.63 87.62 63.93 114.77 109.22 87.62 63.92 60.46 18.63 87.62"/><polygon class="cls-10" points="18.63 101.19 63.93 128.35 63.93 114.77 18.63 87.62 18.63 101.19"/><polygon class="cls-7" points="63.93 128.35 109.22 101.19 109.22 87.62 63.93 114.77 63.93 128.35"/><polygon class="cls-3" points="24.29 107.98 24.29 104.59 63.93 128.35 63.93 131.74 24.29 107.98"/><polygon class="cls-3" points="106.39 102.89 106.39 106.28 63.93 131.74 63.93 128.35 106.39 102.89"/><polygon class="cls-11" points="106.39 102.89 106.39 106.28 63.93 131.74 63.93 128.35 106.39 102.89"/><path class="cls-3" d="M69.67,158.78v1.54a.69.69,0,0,0,.31.54l.34.2c.16.1.3,0,.3-.18v-1.54a.71.71,0,0,0-.3-.54l-.34-.2C69.81,158.5,69.67,158.58,69.67,158.78Z" transform="translate(-48.22 -65.71)"/><path class="cls-3" d="M71.2,159.69v1.54a.68.68,0,0,0,.3.54l.34.21c.17.1.3,0,.3-.19v-1.53a.7.7,0,0,0-.3-.55l-.34-.2C71.33,159.41,71.2,159.49,71.2,159.69Z" transform="translate(-48.22 -65.71)"/><path class="cls-3" d="M72.72,160.6v1.54a.69.69,0,0,0,.31.54l.34.21c.16.1.3,0,.3-.18v-1.54a.71.71,0,0,0-.3-.54l-.34-.21C72.86,160.32,72.72,160.4,72.72,160.6Z" transform="translate(-48.22 -65.71)"/><path class="cls-8" d="M74.25,161.52v1.53a.73.73,0,0,0,.3.55l.34.2c.17.1.3,0,.3-.18v-1.54a.68.68,0,0,0-.3-.54l-.34-.2C74.39,161.24,74.25,161.32,74.25,161.52Z" transform="translate(-48.22 -65.71)"/><path class="cls-8" d="M75.78,162.43V164a.68.68,0,0,0,.3.54l.34.2c.16.1.3,0,.3-.18V163a.73.73,0,0,0-.3-.55l-.34-.2C75.91,162.15,75.78,162.23,75.78,162.43Z" transform="translate(-48.22 -65.71)"/><path class="cls-3" d="M77.3,163.34v1.54a.71.71,0,0,0,.3.54l.34.21c.17.1.3,0,.3-.18v-1.54a.68.68,0,0,0-.3-.54l-.34-.21C77.44,163.06,77.3,163.14,77.3,163.34Z" transform="translate(-48.22 -65.71)"/><path class="cls-3" d="M78.83,164.26v1.53a.7.7,0,0,0,.3.55l.34.2c.16.1.3,0,.3-.18v-1.54a.71.71,0,0,0-.3-.54l-.34-.21C79,164,78.83,164.06,78.83,164.26Z" transform="translate(-48.22 -65.71)"/><path class="cls-3" d="M80.35,165.17v1.54a.71.71,0,0,0,.3.54l.34.2c.17.1.3,0,.3-.18v-1.54a.68.68,0,0,0-.3-.54l-.34-.2C80.49,164.89,80.35,165,80.35,165.17Z" transform="translate(-48.22 -65.71)"/><path class="cls-3" d="M81.88,166.08v1.54a.68.68,0,0,0,.3.54l.34.21c.16.1.3,0,.3-.19v-1.53a.73.73,0,0,0-.3-.55l-.34-.2C82,165.8,81.88,165.88,81.88,166.08Z" transform="translate(-48.22 -65.71)"/><path class="cls-3" d="M83.4,167v1.54a.73.73,0,0,0,.3.55l.34.2c.17.1.3,0,.3-.18v-1.54A.68.68,0,0,0,84,167l-.34-.21C83.54,166.71,83.4,166.79,83.4,167Z" transform="translate(-48.22 -65.71)"/><path class="cls-3" d="M84.93,167.91v1.54a.68.68,0,0,0,.3.54l.34.2c.16.1.3,0,.3-.18v-1.54a.71.71,0,0,0-.3-.54l-.34-.2C85.06,167.63,84.93,167.71,84.93,167.91Z" transform="translate(-48.22 -65.71)"/><path class="cls-3" d="M86.45,168.82v1.54a.71.71,0,0,0,.3.54l.34.2c.17.1.3,0,.3-.18v-1.53a.7.7,0,0,0-.3-.55l-.34-.2C86.59,168.54,86.45,168.62,86.45,168.82Z" transform="translate(-48.22 -65.71)"/><path class="cls-8" d="M88,169.73v1.54a.68.68,0,0,0,.3.54l.34.21c.16.1.3,0,.3-.18V170.3a.71.71,0,0,0-.3-.54l-.34-.21C88.11,169.45,88,169.53,88,169.73Z" transform="translate(-48.22 -65.71)"/><path class="cls-3" d="M89.5,170.65v1.53a.73.73,0,0,0,.3.55l.34.2c.17.1.31,0,.31-.18v-1.54a.69.69,0,0,0-.31-.54l-.34-.2C89.64,170.37,89.5,170.45,89.5,170.65Z" transform="translate(-48.22 -65.71)"/><path class="cls-3" d="M91,171.56v1.54a.68.68,0,0,0,.3.54l.34.2c.17.1.3,0,.3-.18v-1.54a.68.68,0,0,0-.3-.54l-.34-.2C91.16,171.28,91,171.36,91,171.56Z" transform="translate(-48.22 -65.71)"/><path class="cls-3" d="M92.55,172.47V174a.71.71,0,0,0,.3.54l.34.21c.17.1.31,0,.31-.18V173a.71.71,0,0,0-.31-.55l-.34-.2C92.69,172.19,92.55,172.27,92.55,172.47Z" transform="translate(-48.22 -65.71)"/><path class="cls-3" d="M94.08,173.39v1.53a.7.7,0,0,0,.3.55l.34.2c.17.1.3,0,.3-.18V174a.68.68,0,0,0-.3-.54l-.34-.21C94.21,173.1,94.08,173.19,94.08,173.39Z" transform="translate(-48.22 -65.71)"/><path class="cls-3" d="M69.67,163.34v1.54a.69.69,0,0,0,.31.54l.34.21c.16.1.3,0,.3-.18v-1.54a.71.71,0,0,0-.3-.54l-.34-.21C69.81,163.06,69.67,163.14,69.67,163.34Z" transform="translate(-48.22 -65.71)"/><path class="cls-8" d="M71.2,164.26v1.53a.7.7,0,0,0,.3.55l.34.2c.17.1.3,0,.3-.18v-1.54a.68.68,0,0,0-.3-.54l-.34-.21C71.33,164,71.2,164.06,71.2,164.26Z" transform="translate(-48.22 -65.71)"/><path class="cls-8" d="M72.72,165.17v1.54a.69.69,0,0,0,.31.54l.34.2c.16.1.3,0,.3-.18v-1.54a.71.71,0,0,0-.3-.54L73,165C72.86,164.89,72.72,165,72.72,165.17Z" transform="translate(-48.22 -65.71)"/><path class="cls-3" d="M74.25,166.08v1.54a.71.71,0,0,0,.3.54l.34.21c.17.1.3,0,.3-.19v-1.53a.7.7,0,0,0-.3-.55l-.34-.2C74.39,165.8,74.25,165.88,74.25,166.08Z" transform="translate(-48.22 -65.71)"/><path class="cls-3" d="M75.78,167v1.54a.7.7,0,0,0,.3.55l.34.2c.16.1.3,0,.3-.18v-1.54a.71.71,0,0,0-.3-.54l-.34-.21C75.91,166.71,75.78,166.79,75.78,167Z" transform="translate(-48.22 -65.71)"/><path class="cls-8" d="M77.3,167.91v1.54a.71.71,0,0,0,.3.54l.34.2c.17.1.3,0,.3-.18v-1.54a.68.68,0,0,0-.3-.54l-.34-.2C77.44,167.63,77.3,167.71,77.3,167.91Z" transform="translate(-48.22 -65.71)"/><path class="cls-3" d="M78.83,168.82v1.54a.68.68,0,0,0,.3.54l.34.2c.16.1.3,0,.3-.18v-1.53a.73.73,0,0,0-.3-.55l-.34-.2C79,168.54,78.83,168.62,78.83,168.82Z" transform="translate(-48.22 -65.71)"/><path class="cls-3" d="M80.35,169.73v1.54a.71.71,0,0,0,.3.54L81,172c.17.1.3,0,.3-.18V170.3a.68.68,0,0,0-.3-.54l-.34-.21C80.49,169.45,80.35,169.53,80.35,169.73Z" transform="translate(-48.22 -65.71)"/><path class="cls-3" d="M81.88,170.65v1.53a.7.7,0,0,0,.3.55l.34.2c.16.1.3,0,.3-.18v-1.54a.71.71,0,0,0-.3-.54l-.34-.2C82,170.37,81.88,170.45,81.88,170.65Z" transform="translate(-48.22 -65.71)"/><path class="cls-3" d="M83.4,171.56v1.54a.71.71,0,0,0,.3.54l.34.2c.17.1.3,0,.3-.18v-1.54a.68.68,0,0,0-.3-.54l-.34-.2C83.54,171.28,83.4,171.36,83.4,171.56Z" transform="translate(-48.22 -65.71)"/><path class="cls-8" d="M84.93,172.47V174a.68.68,0,0,0,.3.54l.34.21c.16.1.3,0,.3-.18V173a.73.73,0,0,0-.3-.55l-.34-.2C85.06,172.19,84.93,172.27,84.93,172.47Z" transform="translate(-48.22 -65.71)"/><path class="cls-8" d="M86.45,173.39v1.53a.73.73,0,0,0,.3.55l.34.2c.17.1.3,0,.3-.18V174a.68.68,0,0,0-.3-.54l-.34-.21C86.59,173.1,86.45,173.19,86.45,173.39Z" transform="translate(-48.22 -65.71)"/><path class="cls-3" d="M88,174.3v1.54a.68.68,0,0,0,.3.54l.34.2c.16.1.3,0,.3-.18v-1.54a.71.71,0,0,0-.3-.54l-.34-.2C88.11,174,88,174.1,88,174.3Z" transform="translate(-48.22 -65.71)"/><path class="cls-3" d="M89.5,175.21v1.54a.71.71,0,0,0,.3.54l.34.21c.17.09.31,0,.31-.19v-1.53a.71.71,0,0,0-.31-.55l-.34-.2C89.64,174.93,89.5,175,89.5,175.21Z" transform="translate(-48.22 -65.71)"/><path class="cls-3" d="M91,176.12v1.54a.68.68,0,0,0,.3.54l.34.21c.17.1.3,0,.3-.18v-1.54a.68.68,0,0,0-.3-.54l-.34-.21C91.16,175.84,91,175.92,91,176.12Z" transform="translate(-48.22 -65.71)"/><path class="cls-8" d="M92.55,177v1.53a.73.73,0,0,0,.3.55l.34.2c.17.1.31,0,.31-.18V177.6a.69.69,0,0,0-.31-.54l-.34-.2C92.69,176.76,92.55,176.84,92.55,177Z" transform="translate(-48.22 -65.71)"/><path class="cls-3" d="M94.08,178v1.54a.68.68,0,0,0,.3.54l.34.2c.17.1.3,0,.3-.18v-1.53a.7.7,0,0,0-.3-.55l-.34-.2C94.21,177.67,94.08,177.75,94.08,178Z" transform="translate(-48.22 -65.71)"/><path class="cls-3" d="M99.17,178.59l.69-.41h0a.9.9,0,0,1,.92.09,3,3,0,0,1,1.31,2.36,1,1,0,0,1-.38.88h0l-.65.39-.11-.2a1.35,1.35,0,0,1-.38-.16,3,3,0,0,1-1.31-2.36,1.76,1.76,0,0,1,0-.34Z" transform="translate(-48.22 -65.71)"/><path class="cls-11" d="M99.17,178.59l.69-.41h0a.9.9,0,0,1,.92.09,3,3,0,0,1,1.31,2.36,1,1,0,0,1-.38.88h0l-.65.39-.11-.2a1.35,1.35,0,0,1-.38-.16,3,3,0,0,1-1.31-2.36,1.76,1.76,0,0,1,0-.34Z" transform="translate(-48.22 -65.71)"/><path class="cls-3" d="M100.13,178.67a3.05,3.05,0,0,1,1.31,2.36c0,.87-.59,1.22-1.31.79a3,3,0,0,1-1.32-2.36C98.81,178.59,99.4,178.24,100.13,178.67Z" transform="translate(-48.22 -65.71)"/><path class="cls-3" d="M104.87,182l.69-.42h0a.88.88,0,0,1,.92.1A3,3,0,0,1,107.8,184a1,1,0,0,1-.39.89h0l-.64.38-.12-.2a1.6,1.6,0,0,1-.37-.15A3,3,0,0,1,105,182.6a1.23,1.23,0,0,1,.05-.35Z" transform="translate(-48.22 -65.71)"/><path class="cls-11" d="M104.87,182l.69-.42h0a.88.88,0,0,1,.92.1A3,3,0,0,1,107.8,184a1,1,0,0,1-.39.89h0l-.64.38-.12-.2a1.6,1.6,0,0,1-.37-.15A3,3,0,0,1,105,182.6a1.23,1.23,0,0,1,.05-.35Z" transform="translate(-48.22 -65.71)"/><path class="cls-3" d="M105.82,182.08a3.05,3.05,0,0,1,1.31,2.36c0,.87-.59,1.22-1.31.79a3.05,3.05,0,0,1-1.31-2.36C104.51,182,105.1,181.65,105.82,182.08Z" transform="translate(-48.22 -65.71)"/><polygon class="cls-8" points="18.63 67.25 63.93 94.41 109.22 67.25 63.92 40.1 18.63 67.25"/><polygon class="cls-10" points="18.63 80.83 63.93 107.98 63.93 94.41 18.63 67.25 18.63 80.83"/><polygon class="cls-7" points="63.93 107.98 109.22 80.83 109.22 67.25 63.93 94.41 63.93 107.98"/><polygon class="cls-3" points="24.29 87.62 24.29 84.22 63.93 107.98 63.93 111.38 24.29 87.62"/><polygon class="cls-3" points="106.39 82.53 106.39 85.92 63.93 111.38 63.93 107.98 106.39 82.53"/><polygon class="cls-11" points="106.39 82.53 106.39 85.92 63.93 111.38 63.93 107.98 106.39 82.53"/><path class="cls-3" d="M69.67,138.41V140a.69.69,0,0,0,.31.54l.34.21c.16.1.3,0,.3-.18V139a.73.73,0,0,0-.3-.55l-.34-.2C69.81,138.13,69.67,138.21,69.67,138.41Z" transform="translate(-48.22 -65.71)"/><path class="cls-8" d="M71.2,139.33v1.53a.7.7,0,0,0,.3.55l.34.2c.17.1.3,0,.3-.18v-1.54a.68.68,0,0,0-.3-.54l-.34-.21C71.33,139,71.2,139.13,71.2,139.33Z" transform="translate(-48.22 -65.71)"/><path class="cls-3" d="M72.72,140.24v1.54a.69.69,0,0,0,.31.54l.34.2c.16.1.3,0,.3-.18V140.8a.71.71,0,0,0-.3-.54l-.34-.2C72.86,140,72.72,140,72.72,140.24Z" transform="translate(-48.22 -65.71)"/><path class="cls-8" d="M74.25,141.15v1.54a.71.71,0,0,0,.3.54l.34.21c.17.1.3,0,.3-.19v-1.53a.7.7,0,0,0-.3-.55l-.34-.2C74.39,140.87,74.25,141,74.25,141.15Z" transform="translate(-48.22 -65.71)"/><path class="cls-8" d="M75.78,142.06v1.54a.68.68,0,0,0,.3.54l.34.21c.16.1.3,0,.3-.18v-1.54a.71.71,0,0,0-.3-.54l-.34-.21C75.91,141.78,75.78,141.86,75.78,142.06Z" transform="translate(-48.22 -65.71)"/><path class="cls-8" d="M77.3,143v1.53a.73.73,0,0,0,.3.55l.34.2c.17.1.3,0,.3-.18v-1.54a.68.68,0,0,0-.3-.54l-.34-.2C77.44,142.7,77.3,142.78,77.3,143Z" transform="translate(-48.22 -65.71)"/><path class="cls-8" d="M78.83,143.89v1.54a.68.68,0,0,0,.3.54l.34.2c.16.1.3,0,.3-.18v-1.53a.73.73,0,0,0-.3-.55l-.34-.2C79,143.61,78.83,143.69,78.83,143.89Z" transform="translate(-48.22 -65.71)"/><path class="cls-3" d="M80.35,144.8v1.54a.71.71,0,0,0,.3.54l.34.21c.17.1.3,0,.3-.18v-1.54a.68.68,0,0,0-.3-.54l-.34-.21C80.49,144.52,80.35,144.6,80.35,144.8Z" transform="translate(-48.22 -65.71)"/><path class="cls-3" d="M81.88,145.72v1.53a.7.7,0,0,0,.3.55l.34.2c.16.1.3,0,.3-.18v-1.54a.71.71,0,0,0-.3-.54l-.34-.21C82,145.43,81.88,145.52,81.88,145.72Z" transform="translate(-48.22 -65.71)"/><path class="cls-3" d="M83.4,146.63v1.54a.71.71,0,0,0,.3.54l.34.2c.17.1.3,0,.3-.18v-1.54a.68.68,0,0,0-.3-.54l-.34-.2C83.54,146.35,83.4,146.43,83.4,146.63Z" transform="translate(-48.22 -65.71)"/><path class="cls-3" d="M84.93,147.54v1.54a.68.68,0,0,0,.3.54l.34.21c.16.1.3,0,.3-.19v-1.53a.73.73,0,0,0-.3-.55l-.34-.2C85.06,147.26,84.93,147.34,84.93,147.54Z" transform="translate(-48.22 -65.71)"/><path class="cls-8" d="M86.45,148.45V150a.73.73,0,0,0,.3.55l.34.2c.17.1.3,0,.3-.18V149a.68.68,0,0,0-.3-.54l-.34-.21C86.59,148.17,86.45,148.25,86.45,148.45Z" transform="translate(-48.22 -65.71)"/><path class="cls-8" d="M88,149.37v1.54a.68.68,0,0,0,.3.54l.34.2c.16.1.3,0,.3-.18v-1.54a.71.71,0,0,0-.3-.54l-.34-.2C88.11,149.09,88,149.17,88,149.37Z" transform="translate(-48.22 -65.71)"/><path class="cls-8" d="M89.5,150.28v1.54a.71.71,0,0,0,.3.54l.34.2c.17.1.31,0,.31-.18v-1.53a.71.71,0,0,0-.31-.55l-.34-.2C89.64,150,89.5,150.08,89.5,150.28Z" transform="translate(-48.22 -65.71)"/><path class="cls-3" d="M91,151.19v1.54a.68.68,0,0,0,.3.54l.34.21c.17.1.3,0,.3-.18v-1.54a.68.68,0,0,0-.3-.54l-.34-.21C91.16,150.91,91,151,91,151.19Z" transform="translate(-48.22 -65.71)"/><path class="cls-8" d="M92.55,152.11v1.53a.73.73,0,0,0,.3.55l.34.2c.17.1.31,0,.31-.18v-1.54a.69.69,0,0,0-.31-.54l-.34-.2C92.69,151.83,92.55,151.91,92.55,152.11Z" transform="translate(-48.22 -65.71)"/><path class="cls-8" d="M94.08,153v1.54a.68.68,0,0,0,.3.54l.34.2c.17.1.3,0,.3-.18v-1.54a.68.68,0,0,0-.3-.54l-.34-.2C94.21,152.74,94.08,152.82,94.08,153Z" transform="translate(-48.22 -65.71)"/><path class="cls-8" d="M69.67,143v1.53a.71.71,0,0,0,.31.55l.34.2c.16.1.3,0,.3-.18v-1.54a.71.71,0,0,0-.3-.54l-.34-.2C69.81,142.7,69.67,142.78,69.67,143Z" transform="translate(-48.22 -65.71)"/><path class="cls-8" d="M71.2,143.89v1.54a.68.68,0,0,0,.3.54l.34.2c.17.1.3,0,.3-.18v-1.53a.7.7,0,0,0-.3-.55l-.34-.2C71.33,143.61,71.2,143.69,71.2,143.89Z" transform="translate(-48.22 -65.71)"/><path class="cls-3" d="M72.72,144.8v1.54a.69.69,0,0,0,.31.54l.34.21c.16.1.3,0,.3-.18v-1.54a.71.71,0,0,0-.3-.54l-.34-.21C72.86,144.52,72.72,144.6,72.72,144.8Z" transform="translate(-48.22 -65.71)"/><path class="cls-8" d="M74.25,145.72v1.53a.73.73,0,0,0,.3.55l.34.2c.17.1.3,0,.3-.18v-1.54a.68.68,0,0,0-.3-.54l-.34-.21C74.39,145.43,74.25,145.52,74.25,145.72Z" transform="translate(-48.22 -65.71)"/><path class="cls-8" d="M75.78,146.63v1.54a.68.68,0,0,0,.3.54l.34.2c.16.1.3,0,.3-.18v-1.54a.71.71,0,0,0-.3-.54l-.34-.2C75.91,146.35,75.78,146.43,75.78,146.63Z" transform="translate(-48.22 -65.71)"/><path class="cls-8" d="M77.3,147.54v1.54a.71.71,0,0,0,.3.54l.34.21c.17.1.3,0,.3-.19v-1.53a.7.7,0,0,0-.3-.55l-.34-.2C77.44,147.26,77.3,147.34,77.3,147.54Z" transform="translate(-48.22 -65.71)"/><path class="cls-8" d="M78.83,148.45V150a.7.7,0,0,0,.3.55l.34.2c.16.1.3,0,.3-.18V149a.71.71,0,0,0-.3-.54l-.34-.21C79,148.17,78.83,148.25,78.83,148.45Z" transform="translate(-48.22 -65.71)"/><path class="cls-3" d="M80.35,149.37v1.54a.71.71,0,0,0,.3.54l.34.2c.17.1.3,0,.3-.18v-1.54a.68.68,0,0,0-.3-.54l-.34-.2C80.49,149.09,80.35,149.17,80.35,149.37Z" transform="translate(-48.22 -65.71)"/><path class="cls-8" d="M81.88,150.28v1.54a.68.68,0,0,0,.3.54l.34.2c.16.1.3,0,.3-.18v-1.53a.73.73,0,0,0-.3-.55l-.34-.2C82,150,81.88,150.08,81.88,150.28Z" transform="translate(-48.22 -65.71)"/><path class="cls-8" d="M83.4,151.19v1.54a.71.71,0,0,0,.3.54l.34.21c.17.1.3,0,.3-.18v-1.54a.68.68,0,0,0-.3-.54L83.7,151C83.54,150.91,83.4,151,83.4,151.19Z" transform="translate(-48.22 -65.71)"/><path class="cls-8" d="M84.93,152.11v1.53a.7.7,0,0,0,.3.55l.34.2c.16.1.3,0,.3-.18v-1.54a.71.71,0,0,0-.3-.54l-.34-.2C85.06,151.83,84.93,151.91,84.93,152.11Z" transform="translate(-48.22 -65.71)"/><path class="cls-3" d="M86.45,153v1.54a.71.71,0,0,0,.3.54l.34.2c.17.1.3,0,.3-.18v-1.54a.68.68,0,0,0-.3-.54l-.34-.2C86.59,152.74,86.45,152.82,86.45,153Z" transform="translate(-48.22 -65.71)"/><path class="cls-3" d="M88,153.93v1.54a.68.68,0,0,0,.3.54l.34.21c.16.1.3,0,.3-.18V154.5a.73.73,0,0,0-.3-.55l-.34-.2C88.11,153.65,88,153.73,88,153.93Z" transform="translate(-48.22 -65.71)"/><path class="cls-8" d="M89.5,154.84v1.54a.73.73,0,0,0,.3.55l.34.2c.17.1.31,0,.31-.18v-1.54a.69.69,0,0,0-.31-.54l-.34-.21C89.64,154.56,89.5,154.65,89.5,154.84Z" transform="translate(-48.22 -65.71)"/><path class="cls-8" d="M91,155.76v1.54a.68.68,0,0,0,.3.54l.34.2c.17.1.3,0,.3-.18v-1.54a.68.68,0,0,0-.3-.54l-.34-.2C91.16,155.48,91,155.56,91,155.76Z" transform="translate(-48.22 -65.71)"/><path class="cls-8" d="M92.55,156.67v1.54a.71.71,0,0,0,.3.54l.34.2c.17.1.31,0,.31-.18v-1.53a.71.71,0,0,0-.31-.55l-.34-.2C92.69,156.39,92.55,156.47,92.55,156.67Z" transform="translate(-48.22 -65.71)"/><path class="cls-8" d="M94.08,157.58v1.54a.68.68,0,0,0,.3.54l.34.21c.17.1.3,0,.3-.18v-1.54a.68.68,0,0,0-.3-.54l-.34-.21C94.21,157.3,94.08,157.38,94.08,157.58Z" transform="translate(-48.22 -65.71)"/><path class="cls-3" d="M99.17,158.23l.69-.42h0a.88.88,0,0,1,.92.1,3,3,0,0,1,1.31,2.36,1,1,0,0,1-.38.88h0l-.65.38-.11-.2a1.3,1.3,0,0,1-.38-.15,3.05,3.05,0,0,1-1.31-2.36,1.87,1.87,0,0,1,0-.35Z" transform="translate(-48.22 -65.71)"/><path class="cls-11" d="M99.17,158.23l.69-.42h0a.88.88,0,0,1,.92.1,3,3,0,0,1,1.31,2.36,1,1,0,0,1-.38.88h0l-.65.38-.11-.2a1.3,1.3,0,0,1-.38-.15,3.05,3.05,0,0,1-1.31-2.36,1.87,1.87,0,0,1,0-.35Z" transform="translate(-48.22 -65.71)"/><path class="cls-3" d="M100.13,158.3a3.07,3.07,0,0,1,1.31,2.36c0,.87-.59,1.22-1.31.79a3,3,0,0,1-1.32-2.36C98.81,158.22,99.4,157.87,100.13,158.3Z" transform="translate(-48.22 -65.71)"/><path class="cls-3" d="M104.87,161.64l.69-.42h0a.88.88,0,0,1,.92.1,3,3,0,0,1,1.32,2.36,1,1,0,0,1-.39.88h0l-.64.38-.12-.2a1.25,1.25,0,0,1-.37-.15,3,3,0,0,1-1.32-2.36,1.29,1.29,0,0,1,.05-.35Z" transform="translate(-48.22 -65.71)"/><path class="cls-11" d="M104.87,161.64l.69-.42h0a.88.88,0,0,1,.92.1,3,3,0,0,1,1.32,2.36,1,1,0,0,1-.39.88h0l-.64.38-.12-.2a1.25,1.25,0,0,1-.37-.15,3,3,0,0,1-1.32-2.36,1.29,1.29,0,0,1,.05-.35Z" transform="translate(-48.22 -65.71)"/><path class="cls-3" d="M105.82,161.72a3,3,0,0,1,1.31,2.36c0,.86-.59,1.22-1.31.78a3,3,0,0,1-1.31-2.36C104.51,161.63,105.1,161.28,105.82,161.72Z" transform="translate(-48.22 -65.71)"/><polygon class="cls-8" points="18.63 46.88 63.93 74.04 109.22 46.88 63.92 19.73 18.63 46.88"/><polygon class="cls-10" points="18.63 60.46 63.93 87.62 63.93 74.04 18.63 46.88 18.63 60.46"/><polygon class="cls-7" points="63.93 87.62 109.22 60.46 109.22 46.88 63.93 74.04 63.93 87.62"/><polygon class="cls-3" points="24.29 67.25 24.29 63.86 63.93 87.62 63.93 91.01 24.29 67.25"/><polygon class="cls-3" points="106.39 62.16 106.39 65.55 63.93 91.01 63.93 87.62 106.39 62.16"/><polygon class="cls-11" points="106.39 62.16 106.39 65.55 63.93 91.01 63.93 87.62 106.39 62.16"/><path class="cls-3" d="M69.67,118.05v1.53a.71.71,0,0,0,.31.55l.34.2c.16.1.3,0,.3-.18v-1.54a.71.71,0,0,0-.3-.54l-.34-.2C69.81,117.77,69.67,117.85,69.67,118.05Z" transform="translate(-48.22 -65.71)"/><path class="cls-3" d="M71.2,119v1.54a.68.68,0,0,0,.3.54l.34.2c.17.1.3,0,.3-.18v-1.54a.68.68,0,0,0-.3-.54l-.34-.2C71.33,118.68,71.2,118.76,71.2,119Z" transform="translate(-48.22 -65.71)"/><path class="cls-8" d="M72.72,119.87v1.54A.69.69,0,0,0,73,122l.34.21c.16.1.3,0,.3-.18v-1.54a.73.73,0,0,0-.3-.55l-.34-.2C72.86,119.59,72.72,119.67,72.72,119.87Z" transform="translate(-48.22 -65.71)"/><path class="cls-3" d="M74.25,120.79v1.53a.73.73,0,0,0,.3.55l.34.2c.17.1.3,0,.3-.18v-1.54a.68.68,0,0,0-.3-.54l-.34-.21C74.39,120.5,74.25,120.59,74.25,120.79Z" transform="translate(-48.22 -65.71)"/><path class="cls-3" d="M75.78,121.7v1.54a.68.68,0,0,0,.3.54l.34.2c.16.1.3,0,.3-.18v-1.54a.71.71,0,0,0-.3-.54l-.34-.2C75.91,121.42,75.78,121.5,75.78,121.7Z" transform="translate(-48.22 -65.71)"/><path class="cls-8" d="M77.3,122.61v1.54a.71.71,0,0,0,.3.54l.34.21c.17.1.3,0,.3-.19v-1.53a.7.7,0,0,0-.3-.55l-.34-.2C77.44,122.33,77.3,122.41,77.3,122.61Z" transform="translate(-48.22 -65.71)"/><path class="cls-8" d="M78.83,123.52v1.54a.68.68,0,0,0,.3.54l.34.21c.16.1.3,0,.3-.18v-1.54a.71.71,0,0,0-.3-.54l-.34-.21C79,123.24,78.83,123.32,78.83,123.52Z" transform="translate(-48.22 -65.71)"/><path class="cls-3" d="M80.35,124.44V126a.73.73,0,0,0,.3.55l.34.2c.17.1.3,0,.3-.18V125a.68.68,0,0,0-.3-.54l-.34-.2C80.49,124.16,80.35,124.24,80.35,124.44Z" transform="translate(-48.22 -65.71)"/><path class="cls-8" d="M81.88,125.35v1.54a.68.68,0,0,0,.3.54l.34.2c.16.1.3,0,.3-.18v-1.53a.73.73,0,0,0-.3-.55l-.34-.2C82,125.07,81.88,125.15,81.88,125.35Z" transform="translate(-48.22 -65.71)"/><path class="cls-3" d="M83.4,126.26v1.54a.71.71,0,0,0,.3.54l.34.21c.17.1.3,0,.3-.18v-1.54a.68.68,0,0,0-.3-.54l-.34-.21C83.54,126,83.4,126.06,83.4,126.26Z" transform="translate(-48.22 -65.71)"/><path class="cls-3" d="M84.93,127.18v1.53a.7.7,0,0,0,.3.55l.34.2c.16.1.3,0,.3-.18v-1.54a.71.71,0,0,0-.3-.54l-.34-.21C85.06,126.89,84.93,127,84.93,127.18Z" transform="translate(-48.22 -65.71)"/><path class="cls-3" d="M86.45,128.09v1.54a.71.71,0,0,0,.3.54l.34.2c.17.1.3,0,.3-.18v-1.54a.68.68,0,0,0-.3-.54l-.34-.2C86.59,127.81,86.45,127.89,86.45,128.09Z" transform="translate(-48.22 -65.71)"/><path class="cls-3" d="M88,129v1.54a.68.68,0,0,0,.3.54l.34.21c.16.1.3,0,.3-.19v-1.53a.73.73,0,0,0-.3-.55l-.34-.2C88.11,128.72,88,128.8,88,129Z" transform="translate(-48.22 -65.71)"/><path class="cls-8" d="M89.5,129.91v1.54a.73.73,0,0,0,.3.55l.34.2c.17.1.31,0,.31-.18v-1.54a.69.69,0,0,0-.31-.54l-.34-.21C89.64,129.63,89.5,129.71,89.5,129.91Z" transform="translate(-48.22 -65.71)"/><path class="cls-8" d="M91,130.83v1.54a.68.68,0,0,0,.3.54l.34.2c.17.1.3,0,.3-.18v-1.54a.68.68,0,0,0-.3-.54l-.34-.2C91.16,130.55,91,130.63,91,130.83Z" transform="translate(-48.22 -65.71)"/><path class="cls-8" d="M92.55,131.74v1.54a.71.71,0,0,0,.3.54l.34.2c.17.1.31,0,.31-.18v-1.53a.71.71,0,0,0-.31-.55l-.34-.2C92.69,131.46,92.55,131.54,92.55,131.74Z" transform="translate(-48.22 -65.71)"/><path class="cls-3" d="M94.08,132.65v1.54a.68.68,0,0,0,.3.54l.34.21c.17.1.3,0,.3-.18v-1.54a.68.68,0,0,0-.3-.54l-.34-.21C94.21,132.37,94.08,132.45,94.08,132.65Z" transform="translate(-48.22 -65.71)"/><path class="cls-3" d="M69.67,122.61v1.54a.69.69,0,0,0,.31.54l.34.21c.16.1.3,0,.3-.19v-1.53a.73.73,0,0,0-.3-.55l-.34-.2C69.81,122.33,69.67,122.41,69.67,122.61Z" transform="translate(-48.22 -65.71)"/><path class="cls-3" d="M71.2,123.52v1.54a.68.68,0,0,0,.3.54l.34.21c.17.1.3,0,.3-.18v-1.54a.68.68,0,0,0-.3-.54l-.34-.21C71.33,123.24,71.2,123.32,71.2,123.52Z" transform="translate(-48.22 -65.71)"/><path class="cls-3" d="M72.72,124.44V126a.71.71,0,0,0,.31.55l.34.2c.16.1.3,0,.3-.18V125a.71.71,0,0,0-.3-.54l-.34-.2C72.86,124.16,72.72,124.24,72.72,124.44Z" transform="translate(-48.22 -65.71)"/><path class="cls-8" d="M74.25,125.35v1.54a.71.71,0,0,0,.3.54l.34.2c.17.1.3,0,.3-.18v-1.53a.7.7,0,0,0-.3-.55l-.34-.2C74.39,125.07,74.25,125.15,74.25,125.35Z" transform="translate(-48.22 -65.71)"/><path class="cls-8" d="M75.78,126.26v1.54a.68.68,0,0,0,.3.54l.34.21c.16.1.3,0,.3-.18v-1.54a.71.71,0,0,0-.3-.54l-.34-.21C75.91,126,75.78,126.06,75.78,126.26Z" transform="translate(-48.22 -65.71)"/><path class="cls-3" d="M77.3,127.18v1.53a.73.73,0,0,0,.3.55l.34.2c.17.1.3,0,.3-.18v-1.54a.68.68,0,0,0-.3-.54L77.6,127C77.44,126.89,77.3,127,77.3,127.18Z" transform="translate(-48.22 -65.71)"/><path class="cls-3" d="M78.83,128.09v1.54a.68.68,0,0,0,.3.54l.34.2c.16.1.3,0,.3-.18v-1.54a.71.71,0,0,0-.3-.54l-.34-.2C79,127.81,78.83,127.89,78.83,128.09Z" transform="translate(-48.22 -65.71)"/><path class="cls-3" d="M80.35,129v1.54a.71.71,0,0,0,.3.54l.34.21c.17.1.3,0,.3-.19v-1.53A.7.7,0,0,0,81,129l-.34-.2C80.49,128.72,80.35,128.8,80.35,129Z" transform="translate(-48.22 -65.71)"/><path class="cls-8" d="M81.88,129.91v1.54a.7.7,0,0,0,.3.55l.34.2c.16.1.3,0,.3-.18v-1.54a.71.71,0,0,0-.3-.54l-.34-.21C82,129.63,81.88,129.71,81.88,129.91Z" transform="translate(-48.22 -65.71)"/><path class="cls-8" d="M83.4,130.83v1.54a.71.71,0,0,0,.3.54l.34.2c.17.1.3,0,.3-.18v-1.54a.68.68,0,0,0-.3-.54l-.34-.2C83.54,130.55,83.4,130.63,83.4,130.83Z" transform="translate(-48.22 -65.71)"/><path class="cls-8" d="M84.93,131.74v1.54a.68.68,0,0,0,.3.54l.34.2c.16.1.3,0,.3-.18v-1.53a.73.73,0,0,0-.3-.55l-.34-.2C85.06,131.46,84.93,131.54,84.93,131.74Z" transform="translate(-48.22 -65.71)"/><path class="cls-8" d="M86.45,132.65v1.54a.71.71,0,0,0,.3.54l.34.21c.17.1.3,0,.3-.18v-1.54a.68.68,0,0,0-.3-.54l-.34-.21C86.59,132.37,86.45,132.45,86.45,132.65Z" transform="translate(-48.22 -65.71)"/><path class="cls-3" d="M88,133.57v1.53a.7.7,0,0,0,.3.55l.34.2c.16.1.3,0,.3-.18v-1.54a.71.71,0,0,0-.3-.54l-.34-.2C88.11,133.29,88,133.37,88,133.57Z" transform="translate(-48.22 -65.71)"/><path class="cls-3" d="M89.5,134.48V136a.71.71,0,0,0,.3.54l.34.2c.17.1.31,0,.31-.18V135a.69.69,0,0,0-.31-.54l-.34-.2C89.64,134.2,89.5,134.28,89.5,134.48Z" transform="translate(-48.22 -65.71)"/><path class="cls-3" d="M91,135.39v1.54a.68.68,0,0,0,.3.54l.34.21c.17.1.3,0,.3-.18V136a.7.7,0,0,0-.3-.55l-.34-.2C91.16,135.11,91,135.19,91,135.39Z" transform="translate(-48.22 -65.71)"/><path class="cls-3" d="M92.55,136.3v1.54a.73.73,0,0,0,.3.55l.34.2c.17.1.31,0,.31-.18v-1.54a.69.69,0,0,0-.31-.54l-.34-.21C92.69,136,92.55,136.11,92.55,136.3Z" transform="translate(-48.22 -65.71)"/><path class="cls-3" d="M94.08,137.22v1.54a.68.68,0,0,0,.3.54l.34.2c.17.1.3,0,.3-.18v-1.54a.68.68,0,0,0-.3-.54l-.34-.2C94.21,136.94,94.08,137,94.08,137.22Z" transform="translate(-48.22 -65.71)"/><path class="cls-3" d="M99.17,137.86l.69-.41h0a.93.93,0,0,1,.92.1,3,3,0,0,1,1.31,2.36,1,1,0,0,1-.38.88h0l-.65.39L101,141a1.07,1.07,0,0,1-.38-.15,3,3,0,0,1-1.31-2.36,1.67,1.67,0,0,1,0-.34Z" transform="translate(-48.22 -65.71)"/><path class="cls-11" d="M99.17,137.86l.69-.41h0a.93.93,0,0,1,.92.1,3,3,0,0,1,1.31,2.36,1,1,0,0,1-.38.88h0l-.65.39L101,141a1.07,1.07,0,0,1-.38-.15,3,3,0,0,1-1.31-2.36,1.67,1.67,0,0,1,0-.34Z" transform="translate(-48.22 -65.71)"/><path class="cls-3" d="M100.13,137.94a3,3,0,0,1,1.31,2.36c0,.87-.59,1.22-1.31.78a3,3,0,0,1-1.32-2.35C98.81,137.86,99.4,137.5,100.13,137.94Z" transform="translate(-48.22 -65.71)"/><path class="cls-3" d="M104.87,141.27l.69-.41h0a.9.9,0,0,1,.92.09,3,3,0,0,1,1.32,2.36,1,1,0,0,1-.39.88h0l-.64.39-.12-.2a1.3,1.3,0,0,1-.37-.16,3,3,0,0,1-1.32-2.36,1.21,1.21,0,0,1,.05-.34Z" transform="translate(-48.22 -65.71)"/><path class="cls-11" d="M104.87,141.27l.69-.41h0a.9.9,0,0,1,.92.09,3,3,0,0,1,1.32,2.36,1,1,0,0,1-.39.88h0l-.64.39-.12-.2a1.3,1.3,0,0,1-.37-.16,3,3,0,0,1-1.32-2.36,1.21,1.21,0,0,1,.05-.34Z" transform="translate(-48.22 -65.71)"/><path class="cls-3" d="M105.82,141.35a3,3,0,0,1,1.31,2.36c0,.87-.59,1.22-1.31.79a3.05,3.05,0,0,1-1.31-2.36C104.51,141.27,105.1,140.92,105.82,141.35Z" transform="translate(-48.22 -65.71)"/><path class="cls-7" d="M155.63,91.14l-41.7-25a3.89,3.89,0,0,0-3.63,0l-41.65,25a4.22,4.22,0,0,0-1.81,3.26v11.4L112.17,133h0l45.27-27.16V94.4A4.19,4.19,0,0,0,155.63,91.14Z" transform="translate(-48.22 -65.71)"/><path class="cls-10" d="M112.16,118.74V133L66.84,105.8V94.4a4.28,4.28,0,0,1,1.49-3c-.66.6-.55,1.4.33,1.93l41.7,25A3.64,3.64,0,0,0,112.16,118.74Z" transform="translate(-48.22 -65.71)"/><path class="cls-8" d="M68.65,93.31l41.71,25a3.87,3.87,0,0,0,3.62,0l41.65-25a1.16,1.16,0,0,0,0-2.17l-41.7-25a3.89,3.89,0,0,0-3.63,0l-41.65,25A1.16,1.16,0,0,0,68.65,93.31Z" transform="translate(-48.22 -65.71)"/><polygon class="cls-3" points="24.29 46.88 24.29 43.49 63.93 67.25 63.93 70.64 24.29 46.88"/><polygon class="cls-3" points="106.39 41.79 106.39 45.19 63.93 70.64 63.93 67.25 106.39 41.79"/><polygon class="cls-11" points="106.39 41.79 106.39 45.19 63.93 70.64 63.93 67.25 106.39 41.79"/><path class="cls-8" d="M69.67,97.68v1.54a.69.69,0,0,0,.31.54l.34.2c.16.1.3,0,.3-.18V98.25a.73.73,0,0,0-.3-.55L70,97.5C69.81,97.4,69.67,97.48,69.67,97.68Z" transform="translate(-48.22 -65.71)"/><path class="cls-8" d="M71.2,98.59v1.54a.68.68,0,0,0,.3.54l.34.21c.17.1.3,0,.3-.18V99.16a.68.68,0,0,0-.3-.54l-.34-.21C71.33,98.31,71.2,98.39,71.2,98.59Z" transform="translate(-48.22 -65.71)"/><path class="cls-8" d="M72.72,99.51V101a.71.71,0,0,0,.31.55l.34.2c.16.1.3,0,.3-.18v-1.54a.71.71,0,0,0-.3-.54l-.34-.2C72.86,99.23,72.72,99.31,72.72,99.51Z" transform="translate(-48.22 -65.71)"/><path class="cls-3" d="M74.25,100.42V102a.71.71,0,0,0,.3.54l.34.2c.17.1.3,0,.3-.18V101a.68.68,0,0,0-.3-.54l-.34-.2C74.39,100.14,74.25,100.22,74.25,100.42Z" transform="translate(-48.22 -65.71)"/><path class="cls-3" d="M75.78,101.33v1.54a.68.68,0,0,0,.3.54l.34.21c.16.1.3,0,.3-.18V101.9a.73.73,0,0,0-.3-.55l-.34-.2C75.91,101.05,75.78,101.13,75.78,101.33Z" transform="translate(-48.22 -65.71)"/><path class="cls-8" d="M77.3,102.25v1.53a.73.73,0,0,0,.3.55l.34.2c.17.1.3,0,.3-.18v-1.54a.68.68,0,0,0-.3-.54l-.34-.21C77.44,102,77.3,102.05,77.3,102.25Z" transform="translate(-48.22 -65.71)"/><path class="cls-8" d="M78.83,103.16v1.54a.68.68,0,0,0,.3.54l.34.2c.16.1.3,0,.3-.18v-1.54a.71.71,0,0,0-.3-.54l-.34-.2C79,102.88,78.83,103,78.83,103.16Z" transform="translate(-48.22 -65.71)"/><path class="cls-8" d="M80.35,104.07v1.54a.71.71,0,0,0,.3.54l.34.21c.17.1.3,0,.3-.19v-1.53a.7.7,0,0,0-.3-.55l-.34-.2C80.49,103.79,80.35,103.87,80.35,104.07Z" transform="translate(-48.22 -65.71)"/><path class="cls-8" d="M81.88,105v1.54a.68.68,0,0,0,.3.54l.34.21c.16.1.3,0,.3-.18v-1.54a.71.71,0,0,0-.3-.54l-.34-.21C82,104.7,81.88,104.78,81.88,105Z" transform="translate(-48.22 -65.71)"/><path class="cls-8" d="M83.4,105.9v1.53a.73.73,0,0,0,.3.55l.34.2c.17.1.3,0,.3-.18v-1.54a.68.68,0,0,0-.3-.54l-.34-.2C83.54,105.62,83.4,105.7,83.4,105.9Z" transform="translate(-48.22 -65.71)"/><path class="cls-3" d="M84.93,106.81v1.54a.68.68,0,0,0,.3.54l.34.2c.16.1.3,0,.3-.18v-1.53a.73.73,0,0,0-.3-.55l-.34-.2C85.06,106.53,84.93,106.61,84.93,106.81Z" transform="translate(-48.22 -65.71)"/><path class="cls-3" d="M86.45,107.72v1.54a.71.71,0,0,0,.3.54l.34.21c.17.1.3,0,.3-.18v-1.54a.68.68,0,0,0-.3-.54l-.34-.21C86.59,107.44,86.45,107.52,86.45,107.72Z" transform="translate(-48.22 -65.71)"/><path class="cls-8" d="M88,108.64v1.53a.7.7,0,0,0,.3.55l.34.2c.16.1.3,0,.3-.18V109.2a.71.71,0,0,0-.3-.54l-.34-.21C88.11,108.35,88,108.44,88,108.64Z" transform="translate(-48.22 -65.71)"/><path class="cls-3" d="M89.5,109.55v1.54a.71.71,0,0,0,.3.54l.34.2c.17.1.31,0,.31-.18v-1.54a.69.69,0,0,0-.31-.54l-.34-.2C89.64,109.27,89.5,109.35,89.5,109.55Z" transform="translate(-48.22 -65.71)"/><path class="cls-8" d="M91,110.46V112a.68.68,0,0,0,.3.54l.34.21c.17.1.3,0,.3-.19V111a.7.7,0,0,0-.3-.55l-.34-.2C91.16,110.18,91,110.26,91,110.46Z" transform="translate(-48.22 -65.71)"/><path class="cls-8" d="M92.55,111.37v1.54a.69.69,0,0,0,.3.54l.34.21c.17.1.31,0,.31-.18v-1.54a.69.69,0,0,0-.31-.54l-.34-.21C92.69,111.09,92.55,111.17,92.55,111.37Z" transform="translate(-48.22 -65.71)"/><path class="cls-8" d="M94.08,112.29v1.54a.68.68,0,0,0,.3.54l.34.2c.17.1.3,0,.3-.18v-1.54a.68.68,0,0,0-.3-.54l-.34-.2C94.21,112,94.08,112.09,94.08,112.29Z" transform="translate(-48.22 -65.71)"/><path class="cls-3" d="M69.67,102.25v1.53a.71.71,0,0,0,.31.55l.34.2c.16.1.3,0,.3-.18v-1.54a.71.71,0,0,0-.3-.54l-.34-.21C69.81,102,69.67,102.05,69.67,102.25Z" transform="translate(-48.22 -65.71)"/><path class="cls-8" d="M71.2,103.16v1.54a.68.68,0,0,0,.3.54l.34.2c.17.1.3,0,.3-.18v-1.54a.68.68,0,0,0-.3-.54l-.34-.2C71.33,102.88,71.2,103,71.2,103.16Z" transform="translate(-48.22 -65.71)"/><path class="cls-8" d="M72.72,104.07v1.54a.69.69,0,0,0,.31.54l.34.21c.16.1.3,0,.3-.19v-1.53a.73.73,0,0,0-.3-.55l-.34-.2C72.86,103.79,72.72,103.87,72.72,104.07Z" transform="translate(-48.22 -65.71)"/><path class="cls-8" d="M74.25,105v1.54a.71.71,0,0,0,.3.54l.34.21c.17.1.3,0,.3-.18v-1.54a.68.68,0,0,0-.3-.54l-.34-.21C74.39,104.7,74.25,104.78,74.25,105Z" transform="translate(-48.22 -65.71)"/><path class="cls-8" d="M75.78,105.9v1.53a.7.7,0,0,0,.3.55l.34.2c.16.1.3,0,.3-.18v-1.54a.71.71,0,0,0-.3-.54l-.34-.2C75.91,105.62,75.78,105.7,75.78,105.9Z" transform="translate(-48.22 -65.71)"/><path class="cls-3" d="M77.3,106.81v1.54a.71.71,0,0,0,.3.54l.34.2c.17.1.3,0,.3-.18v-1.53a.7.7,0,0,0-.3-.55l-.34-.2C77.44,106.53,77.3,106.61,77.3,106.81Z" transform="translate(-48.22 -65.71)"/><path class="cls-8" d="M78.83,107.72v1.54a.68.68,0,0,0,.3.54l.34.21c.16.1.3,0,.3-.18v-1.54a.71.71,0,0,0-.3-.54l-.34-.21C79,107.44,78.83,107.52,78.83,107.72Z" transform="translate(-48.22 -65.71)"/><path class="cls-3" d="M80.35,108.64v1.53a.73.73,0,0,0,.3.55l.34.2c.17.1.3,0,.3-.18V109.2a.68.68,0,0,0-.3-.54l-.34-.21C80.49,108.35,80.35,108.44,80.35,108.64Z" transform="translate(-48.22 -65.71)"/><path class="cls-8" d="M81.88,109.55v1.54a.68.68,0,0,0,.3.54l.34.2c.16.1.3,0,.3-.18v-1.54a.71.71,0,0,0-.3-.54l-.34-.2C82,109.27,81.88,109.35,81.88,109.55Z" transform="translate(-48.22 -65.71)"/><path class="cls-3" d="M83.4,110.46V112a.71.71,0,0,0,.3.54l.34.21c.17.1.3,0,.3-.19V111a.7.7,0,0,0-.3-.55l-.34-.2C83.54,110.18,83.4,110.26,83.4,110.46Z" transform="translate(-48.22 -65.71)"/><path class="cls-8" d="M84.93,111.37v1.54a.67.67,0,0,0,.3.54l.34.21c.16.1.3,0,.3-.18v-1.54a.71.71,0,0,0-.3-.54l-.34-.21C85.06,111.09,84.93,111.17,84.93,111.37Z" transform="translate(-48.22 -65.71)"/><path class="cls-8" d="M86.45,112.29v1.54a.71.71,0,0,0,.3.54l.34.2c.17.1.3,0,.3-.18v-1.54a.68.68,0,0,0-.3-.54l-.34-.2C86.59,112,86.45,112.09,86.45,112.29Z" transform="translate(-48.22 -65.71)"/><path class="cls-8" d="M88,113.2v1.54a.68.68,0,0,0,.3.54l.34.2c.16.1.3,0,.3-.18v-1.53a.73.73,0,0,0-.3-.55l-.34-.2C88.11,112.92,88,113,88,113.2Z" transform="translate(-48.22 -65.71)"/><path class="cls-8" d="M89.5,114.11v1.54a.71.71,0,0,0,.3.54l.34.21c.17.1.31,0,.31-.18v-1.54a.69.69,0,0,0-.31-.54l-.34-.21C89.64,113.83,89.5,113.91,89.5,114.11Z" transform="translate(-48.22 -65.71)"/><path class="cls-8" d="M91,115v1.53a.7.7,0,0,0,.3.55l.34.2c.17.1.3,0,.3-.18v-1.54a.68.68,0,0,0-.3-.54l-.34-.2C91.16,114.75,91,114.83,91,115Z" transform="translate(-48.22 -65.71)"/><path class="cls-3" d="M92.55,115.94v1.54a.71.71,0,0,0,.3.54l.34.2c.17.1.31,0,.31-.18V116.5a.69.69,0,0,0-.31-.54l-.34-.2C92.69,115.66,92.55,115.74,92.55,115.94Z" transform="translate(-48.22 -65.71)"/><path class="cls-8" d="M94.08,116.85v1.54a.68.68,0,0,0,.3.54l.34.21c.17.1.3,0,.3-.18v-1.54a.7.7,0,0,0-.3-.55l-.34-.2C94.21,116.57,94.08,116.65,94.08,116.85Z" transform="translate(-48.22 -65.71)"/><path class="cls-3" d="M99.17,117.5l.69-.42h0a.88.88,0,0,1,.92.1,3,3,0,0,1,1.31,2.35,1,1,0,0,1-.38.89h0l-.65.38-.11-.2a1.66,1.66,0,0,1-.38-.15,3.05,3.05,0,0,1-1.31-2.36,1.78,1.78,0,0,1,0-.35Z" transform="translate(-48.22 -65.71)"/><path class="cls-11" d="M99.17,117.5l.69-.42h0a.88.88,0,0,1,.92.1,3,3,0,0,1,1.31,2.35,1,1,0,0,1-.38.89h0l-.65.38-.11-.2a1.66,1.66,0,0,1-.38-.15,3.05,3.05,0,0,1-1.31-2.36,1.78,1.78,0,0,1,0-.35Z" transform="translate(-48.22 -65.71)"/><path class="cls-3" d="M100.13,117.57a3.05,3.05,0,0,1,1.31,2.36c0,.87-.59,1.22-1.31.79a3,3,0,0,1-1.32-2.36C98.81,117.49,99.4,117.14,100.13,117.57Z" transform="translate(-48.22 -65.71)"/><path class="cls-3" d="M104.87,120.91l.69-.42h0a.88.88,0,0,1,.92.1A3,3,0,0,1,107.8,123a1,1,0,0,1-.39.88h0l-.64.38-.12-.2a1.25,1.25,0,0,1-.37-.15A3,3,0,0,1,105,121.5a1.29,1.29,0,0,1,.05-.35Z" transform="translate(-48.22 -65.71)"/><path class="cls-11" d="M104.87,120.91l.69-.42h0a.88.88,0,0,1,.92.1A3,3,0,0,1,107.8,123a1,1,0,0,1-.39.88h0l-.64.38-.12-.2a1.25,1.25,0,0,1-.37-.15A3,3,0,0,1,105,121.5a1.29,1.29,0,0,1,.05-.35Z" transform="translate(-48.22 -65.71)"/><path class="cls-3" d="M105.82,121a3.07,3.07,0,0,1,1.31,2.36c0,.87-.59,1.22-1.31.79a3,3,0,0,1-1.31-2.36C104.51,120.9,105.1,120.55,105.82,121Z" transform="translate(-48.22 -65.71)"/></g></g><g id="Device"><g id="Laptop"><g id="Laptop-2" data-name="Laptop"><path class="cls-3" d="M130.94,244.64a6.15,6.15,0,0,0,2.75,4.73l76.87,46.08a5.84,5.84,0,0,0,5.48,0l105.18-63a5.44,5.44,0,0,0,0-9.46l-76.87-46.08a5.84,5.84,0,0,0-5.48,0l-105.18,63A6.15,6.15,0,0,0,130.94,244.64Z" transform="translate(-48.22 -65.71)"/><path class="cls-12" d="M213.3,290v6.16a5.36,5.36,0,0,1-2.74-.68l-76.88-46.08a5.43,5.43,0,0,1-.27-9.27c-1.23.91-1.14,2.25.27,3.1l76.88,46.08A5.36,5.36,0,0,0,213.3,290Z" transform="translate(-48.22 -65.71)"/><path class="cls-3" d="M128.37,240a6.16,6.16,0,0,1-2.58-4.83V139.93a6.33,6.33,0,0,1,2.75-4.93L233.72,71.94a5.73,5.73,0,0,1,5.32-.1,6.17,6.17,0,0,1,2.57,4.83v95.25a6.37,6.37,0,0,1-2.74,4.94l-105.18,63A5.7,5.7,0,0,1,128.37,240Z" transform="translate(-48.22 -65.71)"/><path class="cls-12" d="M133.36,240.08a5.67,5.67,0,0,1-5-.07,6.15,6.15,0,0,1-2.57-4.83V139.93a5.87,5.87,0,0,1,.8-2.8l5.15,3.07h0a6,6,0,0,0-.81,2.8v95.26C130.94,240,132,240.71,133.36,240.08Z" transform="translate(-48.22 -65.71)"/><path class="cls-13" d="M130.94,143v95.25c0,1.81,1.23,2.55,2.75,1.64l105.18-63a6.37,6.37,0,0,0,2.74-4.94V76.67c0-1.81-1.23-2.55-2.74-1.64L133.69,138.08A6.35,6.35,0,0,0,130.94,143Z" transform="translate(-48.22 -65.71)"/><path class="cls-3" d="M133.69,243.2l76.87,46.08a5.84,5.84,0,0,0,5.48,0l105.18-63c1.52-.91,1.52-2.38,0-3.29l-76.87-46.08a5.84,5.84,0,0,0-5.48,0l-105.18,63C132.17,240.82,132.17,242.29,133.69,243.2Z" transform="translate(-48.22 -65.71)"/><path class="cls-5" d="M133.69,243.2l76.87,46.08a5.84,5.84,0,0,0,5.48,0l105.18-63c1.52-.91,1.52-2.38,0-3.29l-76.87-46.08a5.84,5.84,0,0,0-5.48,0l-105.18,63C132.17,240.82,132.17,242.29,133.69,243.2Z" transform="translate(-48.22 -65.71)"/><path class="cls-10" d="M135.16,143.37,236.57,82.59c.91-.54,1.64-.1,1.64,1V166a3.79,3.79,0,0,1-1.64,3L135.16,229.77c-.91.54-1.65.1-1.65-1V146.33A3.8,3.8,0,0,1,135.16,143.37Z" transform="translate(-48.22 -65.71)"/><path class="cls-3" d="M142.61,240.73l97.63-58.52a2.89,2.89,0,0,1,2.74,0l5,3a.89.89,0,0,1,0,1.65l-97.65,58.51a2.89,2.89,0,0,1-2.74,0l-5-3A.88.88,0,0,1,142.61,240.73Z" transform="translate(-48.22 -65.71)"/><path class="cls-13" d="M142.61,240.73l97.63-58.52a2.89,2.89,0,0,1,2.74,0l5,3a.89.89,0,0,1,0,1.65l-97.65,58.51a2.89,2.89,0,0,1-2.74,0l-5-3A.88.88,0,0,1,142.61,240.73Z" transform="translate(-48.22 -65.71)"/><path class="cls-3" d="M155.48,248.45l97.63-58.53a3,3,0,0,1,2.74,0l30.71,18.41a.88.88,0,0,1,0,1.65l-97.51,58.44a2.94,2.94,0,0,1-2.75,0l-30.82-18.34A.87.87,0,0,1,155.48,248.45Z" transform="translate(-48.22 -65.71)"/><path class="cls-13" d="M155.48,248.45l97.63-58.53a3,3,0,0,1,2.74,0l30.71,18.41a.88.88,0,0,1,0,1.65l-97.51,58.44a2.94,2.94,0,0,1-2.75,0l-30.82-18.34A.87.87,0,0,1,155.48,248.45Z" transform="translate(-48.22 -65.71)"/><path class="cls-3" d="M243,216.25l3.06-1.83c.13-.08.12-.21,0-.29L242.5,212a.5.5,0,0,0-.49,0L239,213.83c-.13.08-.12.21,0,.29l3.54,2.12A.48.48,0,0,0,243,216.25ZM237,209l-3.06,1.83c-.13.08-.12.21,0,.3l3.54,2.11a.51.51,0,0,0,.48,0l3.06-1.84c.13-.08.12-.21,0-.29L237.45,209A.53.53,0,0,0,237,209Zm-9.87,5.92-5.18,3.1c-.13.08-.12.21,0,.29l3.53,2.12a.5.5,0,0,0,.49,0l5.17-3.1c.13-.07.13-.21,0-.29l-3.54-2.12A.51.51,0,0,0,227.09,214.89Zm5.4-3.24-3.05,1.83c-.13.08-.13.21,0,.29l3.54,2.12a.5.5,0,0,0,.49,0l3.05-1.83c.13-.08.12-.21,0-.29L233,211.66A.53.53,0,0,0,232.49,211.65Zm-12,7.19-3.06,1.83c-.13.08-.12.21,0,.29l3.54,2.12a.48.48,0,0,0,.48,0l3.06-1.83c.13-.08.12-.21,0-.29L221,218.85A.5.5,0,0,0,220.5,218.84ZM216,221.52,213,223.35c-.13.08-.13.21,0,.29l3.54,2.12a.53.53,0,0,0,.49,0l3-1.83c.13-.08.13-.21,0-.29l-3.54-2.12A.5.5,0,0,0,216,221.52Zm13.91,8.61L233,228.3c.13-.08.13-.21,0-.29l-3.54-2.12a.53.53,0,0,0-.49,0l-3,1.83c-.13.08-.12.21,0,.29l3.54,2.12A.5.5,0,0,0,229.94,230.13Zm-4.47,2.68,3.06-1.83c.13-.08.12-.21,0-.29L225,228.57a.48.48,0,0,0-.48,0l-3.06,1.83c-.13.08-.12.21,0,.29L225,232.8A.53.53,0,0,0,225.47,232.81ZM221,235.49l3.06-1.83c.13-.08.12-.21,0-.3l-3.53-2.11a.5.5,0,0,0-.49,0L217,233.07c-.13.08-.12.21,0,.29l3.53,2.12A.53.53,0,0,0,221,235.49Zm-4.47,2.68,3.06-1.83c.13-.08.12-.21,0-.3L216,233.92a.56.56,0,0,0-.49,0l-3.06,1.84c-.13.07-.12.2,0,.29l3.54,2.12A.51.51,0,0,0,216.53,238.17Zm22-19.24,3.05-1.83c.13-.08.12-.21,0-.29L238,214.69a.5.5,0,0,0-.49,0l-3,1.83c-.13.08-.13.21,0,.29l3.54,2.12A.53.53,0,0,0,238.53,218.93Zm-4.13,8.52,6.82-4.08c.13-.08.13-.21,0-.3l-8.59-5.14a.53.53,0,0,0-.49,0L228.61,220c-.13.08-.12.21,0,.3l4.55,2.72c.14.08.15.21,0,.29L230.36,225c-.12.08-.12.21,0,.3l3.54,2.11A.48.48,0,0,0,234.4,227.45Zm-22.83-3.26L208.51,226c-.13.07-.12.21,0,.29l3.53,2.12a.53.53,0,0,0,.49,0l3.06-1.83c.13-.08.12-.21,0-.3l-3.54-2.11A.51.51,0,0,0,211.57,224.19Zm-4.47,2.68L204,228.71c-.13.07-.12.2,0,.29l3.53,2.12a.56.56,0,0,0,.49,0l3.06-1.84c.13-.07.12-.2,0-.29l-3.53-2.12A.56.56,0,0,0,207.1,226.87Zm-22.33,30a.56.56,0,0,0,.49,0l3.06-1.84c.13-.07.12-.21,0-.29l-3.53-2.12a.53.53,0,0,0-.49,0l-3.06,1.83c-.13.08-.12.21,0,.3Zm-13.41-8.61-3.06,1.83c-.13.08-.12.21,0,.29l3.53,2.12a.5.5,0,0,0,.49,0l3.06-1.83c.13-.08.12-.21,0-.29l-3.54-2.12A.51.51,0,0,0,171.36,248.3Zm7.19,6.28a.5.5,0,0,0,.49,0l3.05-1.83c.13-.08.12-.21,0-.29l-3.53-2.12a.53.53,0,0,0-.49,0L175,252.17c-.13.08-.13.21,0,.29Zm14.11,3.95,3.06-1.83c.13-.08.12-.21,0-.29l-3.53-2.12a.53.53,0,0,0-.49,0l-3.06,1.83c-.13.08-.12.21,0,.29l3.53,2.12A.5.5,0,0,0,192.66,258.53Zm-4.95,2.67a.51.51,0,0,0,.48,0l3.06-1.83c.13-.08.12-.21,0-.29L187.7,257a.5.5,0,0,0-.49,0l-3.06,1.83c-.13.08-.12.21,0,.29Zm-11.89-15.58-3,1.83c-.13.08-.12.21,0,.3l3.53,2.11a.5.5,0,0,0,.49,0l3.05-1.83c.13-.08.13-.21,0-.29l-3.54-2.12A.53.53,0,0,0,175.82,245.62Zm22.34-13.39-3,1.83c-.13.08-.13.21,0,.29l3.54,2.12a.5.5,0,0,0,.49,0l3-1.83c.13-.08.12-.21,0-.29l-3.54-2.12A.53.53,0,0,0,198.16,232.23Zm-17.87,10.71-3,1.83c-.13.08-.13.21,0,.3l3.54,2.12a.56.56,0,0,0,.49,0l3.05-1.84c.13-.07.12-.2,0-.29L180.78,243A.53.53,0,0,0,180.29,242.94Zm22.34-13.39-3.06,1.83c-.13.08-.12.21,0,.3l3.54,2.11a.51.51,0,0,0,.48,0l3.06-1.84c.13-.08.12-.21,0-.29l-3.53-2.12A.53.53,0,0,0,202.63,229.55Zm-8.93,5.36-3.06,1.83c-.13.08-.12.21,0,.29l3.53,2.12a.53.53,0,0,0,.49,0l3-1.83c.13-.08.13-.21,0-.29l-3.54-2.12A.48.48,0,0,0,193.7,234.91Zm-4.47,2.68-3.06,1.83c-.13.08-.12.21,0,.29l3.53,2.12a.53.53,0,0,0,.49,0l3.06-1.83c.13-.08.12-.21,0-.29l-3.53-2.12A.5.5,0,0,0,189.23,237.59Zm-4.47,2.67-3.06,1.84c-.13.07-.12.21,0,.29l3.54,2.12a.51.51,0,0,0,.48,0l3.06-1.83c.13-.08.12-.21,0-.3l-3.53-2.12A.56.56,0,0,0,184.76,240.26Zm22.84,3.26,3.06-1.83c.13-.08.12-.21,0-.29l-3.54-2.12a.51.51,0,0,0-.48,0l-3.06,1.83c-.13.08-.12.21,0,.29l3.53,2.12A.5.5,0,0,0,207.6,243.52Zm39.24-40.47-3.06,1.83c-.13.08-.12.21,0,.3l3.53,2.11a.5.5,0,0,0,.49,0l3.06-1.83c.13-.08.12-.21,0-.29l-3.54-2.12A.51.51,0,0,0,246.84,203.05Zm-5.41,3.24-3.06,1.84c-.13.07-.12.2,0,.29l3.53,2.12a.56.56,0,0,0,.49,0l3.06-1.84c.13-.07.12-.2,0-.29l-3.53-2.12A.56.56,0,0,0,241.43,206.29Zm9.87-5.92-3.05,1.84c-.13.07-.12.2,0,.29l3.54,2.12a.56.56,0,0,0,.49,0l3.05-1.84c.13-.07.13-.2,0-.29l-3.54-2.12A.53.53,0,0,0,251.3,200.37Zm-23.12,24.76,3.06-1.83c.13-.08.12-.21,0-.29l-3.54-2.12a.51.51,0,0,0-.48,0l-3.06,1.83c-.13.08-.12.21,0,.29l3.53,2.12A.5.5,0,0,0,228.18,225.13Zm28.08-27.43a.56.56,0,0,0-.49,0l-3.05,1.84c-.13.07-.13.21,0,.29l3.54,2.12a.51.51,0,0,0,.48,0l3.06-1.83c.13-.08.12-.21,0-.3Zm-44.19,43.15,3.05-1.84c.13-.07.13-.21,0-.29l-3.54-2.12a.53.53,0,0,0-.49,0L208,238.42c-.13.08-.13.21,0,.3l3.54,2.12A.56.56,0,0,0,212.07,240.85ZM266.85,208l3.06-1.83c.13-.08.12-.21,0-.29l-3.53-2.12a.53.53,0,0,0-.49,0l-3.06,1.83c-.13.08-.12.21,0,.29l3.54,2.12A.48.48,0,0,0,266.85,208Zm-9.51-.35,3.05-1.83c.13-.08.13-.21,0-.29l-3.54-2.12a.53.53,0,0,0-.49,0l-3.05,1.83c-.13.08-.13.21,0,.29l3.54,2.12A.5.5,0,0,0,257.34,207.65Zm4-6.92a.53.53,0,0,0-.49,0l-3.06,1.83c-.13.08-.12.21,0,.3l3.54,2.12a.54.54,0,0,0,.48,0l3.06-1.84c.13-.07.12-.21,0-.29Zm.94-.56,8.58,5.14a.5.5,0,0,0,.49,0l3.06-1.83c.13-.08.12-.21,0-.29l-8.58-5.15a.56.56,0,0,0-.49,0l-3.06,1.84C262.1,200,262.11,200.08,262.25,200.17Zm-10.36,5.91-3.06,1.83c-.13.08-.12.21,0,.29l3.53,2.12a.5.5,0,0,0,.49,0l3.06-1.83c.13-.08.12-.21,0-.29l-3.54-2.12A.48.48,0,0,0,251.89,206.08Zm-33.63,20.15-3.06,1.84c-.13.08-.12.21,0,.29l3.54,2.12a.51.51,0,0,0,.48,0l3.06-1.83c.13-.08.12-.21,0-.3l-3.53-2.11A.53.53,0,0,0,218.26,226.23Zm43.64-15.56a.53.53,0,0,0,.49,0l3.05-1.83c.13-.08.12-.21,0-.29l-3.54-2.12a.5.5,0,0,0-.49,0l-3,1.83c-.13.08-.13.21,0,.29Zm-39.17,12.89-3.06,1.83c-.13.08-.12.21,0,.29l3.53,2.12a.53.53,0,0,0,.49,0l3.06-1.83c.13-.08.12-.21,0-.29l-3.53-2.12A.5.5,0,0,0,222.73,223.56Zm-33.49,30.67a.56.56,0,0,0,.49,0l3.06-1.84c.12-.07.12-.2,0-.29L189.23,250a.54.54,0,0,0-.48,0l-3.06,1.84c-.13.07-.12.2,0,.29Zm-6.72-6.57-3.06,1.83c-.13.08-.12.21,0,.3L183,251.9a.48.48,0,0,0,.48,0l3.06-1.83c.13-.08.12-.21,0-.29L183,247.67A.53.53,0,0,0,182.52,247.66Zm11.68,3.9,3.05-1.83c.13-.08.12-.21,0-.3l-3.54-2.11a.53.53,0,0,0-.49,0l-3.05,1.84c-.13.08-.13.21,0,.29l3.54,2.12A.53.53,0,0,0,194.2,251.56Zm4.46-2.68,3.06-1.83c.13-.08.12-.21,0-.29l-3.53-2.12a.5.5,0,0,0-.49,0l-3.06,1.83c-.13.08-.12.21,0,.29l3.54,2.12A.51.51,0,0,0,198.66,248.88Zm4.47-2.68,3.06-1.83c.13-.08.12-.21,0-.29L202.64,242a.53.53,0,0,0-.49,0l-3.06,1.83c-.13.08-.12.21,0,.29l3.53,2.12A.5.5,0,0,0,203.13,246.2ZM187,245l-3.06,1.83c-.13.08-.12.21,0,.3l3.53,2.12a.56.56,0,0,0,.49,0L191,247.4c.13-.07.12-.2,0-.29L187.48,245A.53.53,0,0,0,187,245Zm4.47-2.68-3.06,1.84c-.13.07-.12.21,0,.29l3.53,2.12a.53.53,0,0,0,.49,0l3.06-1.83c.12-.08.12-.21,0-.3l-3.54-2.12A.54.54,0,0,0,191.46,242.3Zm17.87-10.71-3.06,1.83c-.13.08-.12.21,0,.3l3.53,2.12a.56.56,0,0,0,.49,0l3.06-1.84c.13-.07.12-.21,0-.29l-3.54-2.12A.51.51,0,0,0,209.33,231.59Zm-4.47,2.68-3.06,1.83c-.13.08-.12.21,0,.29l3.53,2.12a.5.5,0,0,0,.49,0l3.06-1.83c.13-.08.12-.21,0-.29l-3.53-2.12A.53.53,0,0,0,204.86,234.27Zm8.93-5.36-3,1.84c-.13.07-.13.2,0,.29l3.54,2.12a.53.53,0,0,0,.49,0l3.05-1.84c.13-.07.13-.2,0-.29l-3.54-2.12A.56.56,0,0,0,213.79,228.91Zm-17.87,10.72-3,1.83c-.13.08-.13.21,0,.29l3.54,2.12a.53.53,0,0,0,.49,0l3.05-1.83c.13-.08.13-.21,0-.29l-3.54-2.12A.5.5,0,0,0,195.92,239.63Zm4.47-2.68-3.06,1.83c-.13.08-.12.21,0,.29l3.54,2.12a.48.48,0,0,0,.48,0l3.06-1.83c.13-.08.12-.21,0-.29L200.88,237A.5.5,0,0,0,200.39,237Zm-3.26,18.9,3.06-1.83c.13-.08.12-.21,0-.29l-3.54-2.12a.51.51,0,0,0-.48,0l-3.06,1.83c-.13.08-.12.21,0,.3l3.53,2.11A.5.5,0,0,0,197.13,255.85Zm-26.22-2.74L167.38,251a.5.5,0,0,0-.49,0l-3.06,1.83c-.13.08-.12.21,0,.29l3.53,2.12a.53.53,0,0,0,.49,0l3.06-1.83C171.06,253.32,171.05,253.19,170.91,253.11Zm6.7,2L174.07,253a.48.48,0,0,0-.48,0l-4.71,2.82c-.13.07-.12.21,0,.29l3.53,2.12a.53.53,0,0,0,.49,0l4.7-2.82C177.75,255.36,177.75,255.23,177.61,255.15ZM165.49,249,162,246.89a.51.51,0,0,0-.48,0l-3.77,2.26c-.13.07-.12.2,0,.29l3.54,2.12a.54.54,0,0,0,.48,0l3.77-2.26C165.64,249.22,165.63,249.09,165.49,249Zm2.88-1.73a.53.53,0,0,0,.49,0l3.06-1.83c.13-.08.12-.21,0-.29l-3.53-2.12a.5.5,0,0,0-.49,0l-3.06,1.83c-.13.08-.12.21,0,.29Zm15.46,10.19-3.53-2.12a.53.53,0,0,0-.49,0l-5.88,3.52c-.13.08-.12.21,0,.3l3.53,2.11a.53.53,0,0,0,.49,0l5.88-3.53C184,257.68,184,257.55,183.83,257.47Zm2.94,4.29-3.54-2.11a.5.5,0,0,0-.49,0L179,261.89c-.13.08-.12.21,0,.29l3.53,2.12a.5.5,0,0,0,.49,0l3.76-2.25C186.91,262,186.91,261.85,186.77,261.76Zm14.82-34.39a.53.53,0,0,0,.49,0l3-1.83c.13-.08.13-.21,0-.3l-3.54-2.12a.54.54,0,0,0-.48,0L198,225c-.13.07-.12.21,0,.29Zm-8.93,5.35a.48.48,0,0,0,.48,0l3.06-1.83c.13-.08.12-.21,0-.29l-3.53-2.12a.53.53,0,0,0-.49,0l-3.06,1.83c-.13.08-.12.21,0,.3ZM172.84,244.6a.5.5,0,0,0,.49,0l3.06-1.83c.13-.08.12-.21,0-.29l-3.54-2.12a.51.51,0,0,0-.48,0l-3.06,1.83c-.13.08-.12.21,0,.29Zm24.28-14.55a.56.56,0,0,0,.49,0l3.06-1.84c.13-.07.12-.2,0-.29l-3.53-2.12a.53.53,0,0,0-.49,0l-3.06,1.83c-.13.08-.12.21,0,.3Zm-8.93,5.35a.5.5,0,0,0,.49,0l3-1.83c.13-.08.12-.21,0-.29l-3.53-2.12a.53.53,0,0,0-.49,0L184.64,233c-.13.08-.13.21,0,.29Zm1,26.71a.53.53,0,0,0-.49,0l-4.7,2.82c-.13.08-.12.21,0,.29l3.53,2.12a.53.53,0,0,0,.49,0l4.7-2.82c.13-.08.13-.21,0-.29Zm-7.44-22.86a.54.54,0,0,0,.48,0l3.06-1.84c.13-.07.12-.2,0-.29L181.77,235a.53.53,0,0,0-.49,0l-3.06,1.83c-.13.08-.12.21,0,.3Zm-4.47,2.67a.5.5,0,0,0,.49,0l3-1.83c.13-.08.12-.21,0-.29l-3.54-2.12a.53.53,0,0,0-.49,0l-3.05,1.83c-.13.08-.13.21,0,.3ZM272,212.49a.53.53,0,0,0-.49,0L264,217c-.13.08-.12.21,0,.29l3.54,2.12a.5.5,0,0,0,.49,0l7.52-4.51c.13-.08.12-.21,0-.29Zm-9.88,5.92a.51.51,0,0,0-.48,0l-3.06,1.83c-.13.08-.12.21,0,.3l3.53,2.11a.5.5,0,0,0,.49,0l3.06-1.83c.13-.08.12-.21,0-.29ZM201.6,253.18l3.05-1.84c.13-.07.13-.2,0-.29l-3.54-2.12a.53.53,0,0,0-.49,0l-3.05,1.83c-.13.08-.12.21,0,.3l3.54,2.12A.56.56,0,0,0,201.6,253.18Zm51.58-29.41a.5.5,0,0,0-.49,0l-3.06,1.83c-.13.08-.12.21,0,.29l3.54,2.12a.51.51,0,0,0,.48,0l3.06-1.83c.13-.08.12-.21,0-.29Zm23.28-14a.53.53,0,0,0-.49,0l-3.06,1.83c-.13.08-.12.21,0,.3l3.53,2.12a.56.56,0,0,0,.49,0l3.06-1.84c.13-.07.12-.2,0-.29Zm8-.56-8.58-5.14a.5.5,0,0,0-.49,0l-3.06,1.83c-.13.08-.12.21,0,.29l8.58,5.15a.53.53,0,0,0,.49,0l3.06-1.83C284.61,209.47,284.6,209.34,284.46,209.25Zm-48,24.53a.48.48,0,0,0-.48,0L232.23,236c-.13.08-.12.21,0,.29l3.54,2.12a.48.48,0,0,0,.48,0l3.77-2.25c.13-.08.12-.21,0-.3ZM247.77,227a.53.53,0,0,0-.49,0l-4.7,2.82c-.13.08-.12.21,0,.29l3.53,2.12a.53.53,0,0,0,.49,0l4.7-2.82c.13-.08.12-.21,0-.29Zm-21.63,13a.5.5,0,0,0-.49,0l-25.16,15.08c-.13.08-.12.21,0,.29l3.53,2.12a.5.5,0,0,0,.49,0l25.16-15.08c.13-.08.12-.21,0-.29Zm-26.57,15.93a.5.5,0,0,0-.49,0l-3.76,2.25c-.13.08-.12.21,0,.29l3.54,2.12a.5.5,0,0,0,.49,0l3.76-2.25c.13-.08.12-.21,0-.29Zm31.74-19a.5.5,0,0,0-.49,0l-3.76,2.25c-.13.08-.12.21,0,.29l3.53,2.12a.5.5,0,0,0,.49,0l3.76-2.25c.13-.08.12-.21,0-.29ZM194.39,259a.48.48,0,0,0-.48,0l-3.77,2.25c-.13.08-.12.21,0,.29l3.54,2.12a.48.48,0,0,0,.48,0l3.77-2.25c.13-.08.12-.21,0-.29Zm47.27-28.33a.53.53,0,0,0-.49,0l-3.76,2.26c-.13.08-.13.21,0,.29l3.54,2.12a.53.53,0,0,0,.49,0l3.76-2.25c.13-.08.12-.21,0-.3Zm16-9.59a.53.53,0,0,0-.49,0l-3.06,1.83c-.13.08-.12.21,0,.29l3.53,2.12a.5.5,0,0,0,.49,0l3.06-1.83c.13-.08.12-.21,0-.29Zm9.79-7.38,3.05-1.83c.13-.08.12-.21,0-.3l-3.53-2.12a.56.56,0,0,0-.49,0l-3.05,1.84c-.13.07-.13.2,0,.29L267,213.7A.53.53,0,0,0,267.44,213.71Zm-20-.14,3.06-1.83c.13-.08.12-.21,0-.29L247,209.33a.53.53,0,0,0-.49,0l-3.06,1.83c-.13.08-.12.21,0,.29l3.53,2.12A.5.5,0,0,0,247.46,213.57Zm-10.12,18.18,8.93-5.36c.13-.07.12-.2,0-.29L242.72,224a.53.53,0,0,0-.49,0l-8.93,5.36c-.13.08-.12.21,0,.29l3.53,2.12A.53.53,0,0,0,237.34,231.75Zm25.14-15.37a.56.56,0,0,0,.49,0l3-1.84c.13-.07.13-.21,0-.29l-3.54-2.12a.51.51,0,0,0-.48,0L258.93,214c-.13.08-.12.21,0,.3Zm-4.56-3,3.06-1.83c.12-.08.12-.21,0-.3l-3.54-2.11a.51.51,0,0,0-.48,0l-3.06,1.84c-.13.08-.12.21,0,.29l3.53,2.12A.53.53,0,0,0,257.92,213.36Zm-25.05,21.07,3.06-1.83c.13-.08.12-.21,0-.3l-3.54-2.11a.51.51,0,0,0-.48,0L228.83,232c-.13.08-.12.21,0,.29l3.53,2.12A.53.53,0,0,0,232.87,234.43ZM252.6,222.3a.56.56,0,0,0,.49,0l3.06-1.84c.13-.07.12-.2,0-.29l-3.53-2.12a.53.53,0,0,0-.49,0l-3.06,1.83c-.13.08-.12.21,0,.3Zm-42.07,25.52,3.06-1.83c.13-.08.12-.21,0-.29L210,243.58a.5.5,0,0,0-.49,0l-3.06,1.83c-.13.08-.12.21,0,.29l3.53,2.12A.53.53,0,0,0,210.53,247.82Zm4.47-2.68,3.06-1.83c.13-.08.12-.21,0-.29l-3.54-2.12a.48.48,0,0,0-.48,0L211,242.72c-.13.08-.12.21,0,.29l3.53,2.12A.53.53,0,0,0,215,245.14Zm-8.94,5.36,3.06-1.83c.13-.08.12-.21,0-.3l-3.53-2.12a.56.56,0,0,0-.49,0L202,248.08c-.13.07-.12.21,0,.29l3.54,2.12A.51.51,0,0,0,206.06,250.5Zm17.87-10.71L227,238c.13-.08.12-.21,0-.29l-3.53-2.12a.53.53,0,0,0-.49,0l-3,1.83c-.13.08-.13.21,0,.3l3.54,2.11A.51.51,0,0,0,223.93,239.79Zm-4.46,2.67,3.05-1.83c.13-.08.13-.21,0-.29L219,238.22a.53.53,0,0,0-.49,0l-3,1.83c-.13.08-.12.21,0,.29l3.53,2.12A.5.5,0,0,0,219.47,242.46Zm8.93-5.35,3.06-1.84c.13-.07.12-.2,0-.29l-3.53-2.12a.53.53,0,0,0-.49,0l-3.06,1.84c-.13.07-.12.2,0,.29l3.53,2.12A.56.56,0,0,0,228.4,237.11Zm20.44-39.62a.53.53,0,0,0,.49,0l3.06-1.84c.13-.07.12-.2,0-.29l-.94-.56a.5.5,0,0,0-.49,0l-3.06,1.83c-.13.08-.12.21,0,.29Zm-22,14.73a.53.53,0,0,0,.49,0l3.05-1.83c.13-.08.13-.21,0-.3L226.85,208a.5.5,0,0,0-.49,0l-3.05,1.83c-.13.08-.12.21,0,.29Zm8.94-5.36a.48.48,0,0,0,.48,0l3.06-1.83c.13-.08.12-.21,0-.29l-3.53-2.12a.53.53,0,0,0-.49,0l-3.06,1.83c-.13.08-.12.21,0,.29Zm-14.4,8.63a.53.53,0,0,0,.49,0l3.06-1.83c.13-.08.12-.21,0-.29l-3.53-2.12a.5.5,0,0,0-.49,0l-3.06,1.83c-.13.08-.12.21,0,.29Zm9.93-6a.53.53,0,0,0,.49,0l3.05-1.83c.13-.08.12-.21,0-.29l-3.53-2.12a.5.5,0,0,0-.49,0l-3.05,1.83c-.13.08-.13.21,0,.29Zm-18.86,11.31a.56.56,0,0,0,.49,0l3-1.84c.13-.07.13-.2,0-.29l-3.54-2.12a.53.53,0,0,0-.49,0l-3.05,1.83c-.13.08-.12.21,0,.3Zm4.47-2.68a.51.51,0,0,0,.48,0l3.06-1.83c.13-.08.12-.21,0-.3l-3.53-2.12a.56.56,0,0,0-.49,0l-3.05,1.84c-.13.07-.13.21,0,.29Zm23-15.33a.48.48,0,0,0,.48,0l3.06-1.83c.13-.08.12-.21,0-.29l-.94-.57a.54.54,0,0,0-.48,0L239,202c-.13.07-.12.21,0,.29Zm13.4-8a.53.53,0,0,0,.49,0l3.05-1.83c.13-.08.13-.21,0-.3l-.94-.56a.53.53,0,0,0-.49,0L252.35,194c-.13.08-.12.21,0,.29Zm7.42,4.45a.53.53,0,0,0,.49,0l3.06-1.83c.13-.08.12-.21,0-.29L260.73,195a.5.5,0,0,0-.49,0l-3.06,1.83c-.13.08-.12.21,0,.29ZM271.9,211,275,209.2c.13-.08.12-.21,0-.3l-3.53-2.11a.5.5,0,0,0-.49,0l-3.06,1.83c-.13.08-.12.21,0,.29l3.54,2.12A.51.51,0,0,0,271.9,211Zm-27.53-10.87a.53.53,0,0,0,.49,0l3.06-1.84c.13-.07.12-.21,0-.29l-.94-.56a.5.5,0,0,0-.49,0l-3.05,1.83c-.13.08-.13.21,0,.29ZM208,223.52a.5.5,0,0,0,.49,0l3.06-1.83c.13-.08.12-.21,0-.29L208,219.29a.51.51,0,0,0-.48,0l-3.06,1.83c-.13.08-.12.21,0,.3Z" transform="translate(-48.22 -65.71)"/><path class="cls-14" d="M243,216.25l3.06-1.83c.13-.08.12-.21,0-.29L242.5,212a.5.5,0,0,0-.49,0L239,213.83c-.13.08-.12.21,0,.29l3.54,2.12A.48.48,0,0,0,243,216.25ZM237,209l-3.06,1.83c-.13.08-.12.21,0,.3l3.54,2.11a.51.51,0,0,0,.48,0l3.06-1.84c.13-.08.12-.21,0-.29L237.45,209A.53.53,0,0,0,237,209Zm-9.87,5.92-5.18,3.1c-.13.08-.12.21,0,.29l3.53,2.12a.5.5,0,0,0,.49,0l5.17-3.1c.13-.07.13-.21,0-.29l-3.54-2.12A.51.51,0,0,0,227.09,214.89Zm5.4-3.24-3.05,1.83c-.13.08-.13.21,0,.29l3.54,2.12a.5.5,0,0,0,.49,0l3.05-1.83c.13-.08.12-.21,0-.29L233,211.66A.53.53,0,0,0,232.49,211.65Zm-12,7.19-3.06,1.83c-.13.08-.12.21,0,.29l3.54,2.12a.48.48,0,0,0,.48,0l3.06-1.83c.13-.08.12-.21,0-.29L221,218.85A.5.5,0,0,0,220.5,218.84ZM216,221.52,213,223.35c-.13.08-.13.21,0,.29l3.54,2.12a.53.53,0,0,0,.49,0l3-1.83c.13-.08.13-.21,0-.29l-3.54-2.12A.5.5,0,0,0,216,221.52Zm13.91,8.61L233,228.3c.13-.08.13-.21,0-.29l-3.54-2.12a.53.53,0,0,0-.49,0l-3,1.83c-.13.08-.12.21,0,.29l3.54,2.12A.5.5,0,0,0,229.94,230.13Zm-4.47,2.68,3.06-1.83c.13-.08.12-.21,0-.29L225,228.57a.48.48,0,0,0-.48,0l-3.06,1.83c-.13.08-.12.21,0,.29L225,232.8A.53.53,0,0,0,225.47,232.81ZM221,235.49l3.06-1.83c.13-.08.12-.21,0-.3l-3.53-2.11a.5.5,0,0,0-.49,0L217,233.07c-.13.08-.12.21,0,.29l3.53,2.12A.53.53,0,0,0,221,235.49Zm-4.47,2.68,3.06-1.83c.13-.08.12-.21,0-.3L216,233.92a.56.56,0,0,0-.49,0l-3.06,1.84c-.13.07-.12.2,0,.29l3.54,2.12A.51.51,0,0,0,216.53,238.17Zm22-19.24,3.05-1.83c.13-.08.12-.21,0-.29L238,214.69a.5.5,0,0,0-.49,0l-3,1.83c-.13.08-.13.21,0,.29l3.54,2.12A.53.53,0,0,0,238.53,218.93Zm-4.13,8.52,6.82-4.08c.13-.08.13-.21,0-.3l-8.59-5.14a.53.53,0,0,0-.49,0L228.61,220c-.13.08-.12.21,0,.3l4.55,2.72c.14.08.15.21,0,.29L230.36,225c-.12.08-.12.21,0,.3l3.54,2.11A.48.48,0,0,0,234.4,227.45Zm-22.83-3.26L208.51,226c-.13.07-.12.21,0,.29l3.53,2.12a.53.53,0,0,0,.49,0l3.06-1.83c.13-.08.12-.21,0-.3l-3.54-2.11A.51.51,0,0,0,211.57,224.19Zm-4.47,2.68L204,228.71c-.13.07-.12.2,0,.29l3.53,2.12a.56.56,0,0,0,.49,0l3.06-1.84c.13-.07.12-.2,0-.29l-3.53-2.12A.56.56,0,0,0,207.1,226.87Zm-22.33,30a.56.56,0,0,0,.49,0l3.06-1.84c.13-.07.12-.21,0-.29l-3.53-2.12a.53.53,0,0,0-.49,0l-3.06,1.83c-.13.08-.12.21,0,.3Zm-13.41-8.61-3.06,1.83c-.13.08-.12.21,0,.29l3.53,2.12a.5.5,0,0,0,.49,0l3.06-1.83c.13-.08.12-.21,0-.29l-3.54-2.12A.51.51,0,0,0,171.36,248.3Zm7.19,6.28a.5.5,0,0,0,.49,0l3.05-1.83c.13-.08.12-.21,0-.29l-3.53-2.12a.53.53,0,0,0-.49,0L175,252.17c-.13.08-.13.21,0,.29Zm14.11,3.95,3.06-1.83c.13-.08.12-.21,0-.29l-3.53-2.12a.53.53,0,0,0-.49,0l-3.06,1.83c-.13.08-.12.21,0,.29l3.53,2.12A.5.5,0,0,0,192.66,258.53Zm-4.95,2.67a.51.51,0,0,0,.48,0l3.06-1.83c.13-.08.12-.21,0-.29L187.7,257a.5.5,0,0,0-.49,0l-3.06,1.83c-.13.08-.12.21,0,.29Zm-11.89-15.58-3,1.83c-.13.08-.12.21,0,.3l3.53,2.11a.5.5,0,0,0,.49,0l3.05-1.83c.13-.08.13-.21,0-.29l-3.54-2.12A.53.53,0,0,0,175.82,245.62Zm22.34-13.39-3,1.83c-.13.08-.13.21,0,.29l3.54,2.12a.5.5,0,0,0,.49,0l3-1.83c.13-.08.12-.21,0-.29l-3.54-2.12A.53.53,0,0,0,198.16,232.23Zm-17.87,10.71-3,1.83c-.13.08-.13.21,0,.3l3.54,2.12a.56.56,0,0,0,.49,0l3.05-1.84c.13-.07.12-.2,0-.29L180.78,243A.53.53,0,0,0,180.29,242.94Zm22.34-13.39-3.06,1.83c-.13.08-.12.21,0,.3l3.54,2.11a.51.51,0,0,0,.48,0l3.06-1.84c.13-.08.12-.21,0-.29l-3.53-2.12A.53.53,0,0,0,202.63,229.55Zm-8.93,5.36-3.06,1.83c-.13.08-.12.21,0,.29l3.53,2.12a.53.53,0,0,0,.49,0l3-1.83c.13-.08.13-.21,0-.29l-3.54-2.12A.48.48,0,0,0,193.7,234.91Zm-4.47,2.68-3.06,1.83c-.13.08-.12.21,0,.29l3.53,2.12a.53.53,0,0,0,.49,0l3.06-1.83c.13-.08.12-.21,0-.29l-3.53-2.12A.5.5,0,0,0,189.23,237.59Zm-4.47,2.67-3.06,1.84c-.13.07-.12.21,0,.29l3.54,2.12a.51.51,0,0,0,.48,0l3.06-1.83c.13-.08.12-.21,0-.3l-3.53-2.12A.56.56,0,0,0,184.76,240.26Zm22.84,3.26,3.06-1.83c.13-.08.12-.21,0-.29l-3.54-2.12a.51.51,0,0,0-.48,0l-3.06,1.83c-.13.08-.12.21,0,.29l3.53,2.12A.5.5,0,0,0,207.6,243.52Zm39.24-40.47-3.06,1.83c-.13.08-.12.21,0,.3l3.53,2.11a.5.5,0,0,0,.49,0l3.06-1.83c.13-.08.12-.21,0-.29l-3.54-2.12A.51.51,0,0,0,246.84,203.05Zm-5.41,3.24-3.06,1.84c-.13.07-.12.2,0,.29l3.53,2.12a.56.56,0,0,0,.49,0l3.06-1.84c.13-.07.12-.2,0-.29l-3.53-2.12A.56.56,0,0,0,241.43,206.29Zm9.87-5.92-3.05,1.84c-.13.07-.12.2,0,.29l3.54,2.12a.56.56,0,0,0,.49,0l3.05-1.84c.13-.07.13-.2,0-.29l-3.54-2.12A.53.53,0,0,0,251.3,200.37Zm-23.12,24.76,3.06-1.83c.13-.08.12-.21,0-.29l-3.54-2.12a.51.51,0,0,0-.48,0l-3.06,1.83c-.13.08-.12.21,0,.29l3.53,2.12A.5.5,0,0,0,228.18,225.13Zm28.08-27.43a.56.56,0,0,0-.49,0l-3.05,1.84c-.13.07-.13.21,0,.29l3.54,2.12a.51.51,0,0,0,.48,0l3.06-1.83c.13-.08.12-.21,0-.3Zm-44.19,43.15,3.05-1.84c.13-.07.13-.21,0-.29l-3.54-2.12a.53.53,0,0,0-.49,0L208,238.42c-.13.08-.13.21,0,.3l3.54,2.12A.56.56,0,0,0,212.07,240.85ZM266.85,208l3.06-1.83c.13-.08.12-.21,0-.29l-3.53-2.12a.53.53,0,0,0-.49,0l-3.06,1.83c-.13.08-.12.21,0,.29l3.54,2.12A.48.48,0,0,0,266.85,208Zm-9.51-.35,3.05-1.83c.13-.08.13-.21,0-.29l-3.54-2.12a.53.53,0,0,0-.49,0l-3.05,1.83c-.13.08-.13.21,0,.29l3.54,2.12A.5.5,0,0,0,257.34,207.65Zm4-6.92a.53.53,0,0,0-.49,0l-3.06,1.83c-.13.08-.12.21,0,.3l3.54,2.12a.54.54,0,0,0,.48,0l3.06-1.84c.13-.07.12-.21,0-.29Zm.94-.56,8.58,5.14a.5.5,0,0,0,.49,0l3.06-1.83c.13-.08.12-.21,0-.29l-8.58-5.15a.56.56,0,0,0-.49,0l-3.06,1.84C262.1,200,262.11,200.08,262.25,200.17Zm-10.36,5.91-3.06,1.83c-.13.08-.12.21,0,.29l3.53,2.12a.5.5,0,0,0,.49,0l3.06-1.83c.13-.08.12-.21,0-.29l-3.54-2.12A.48.48,0,0,0,251.89,206.08Zm-33.63,20.15-3.06,1.84c-.13.08-.12.21,0,.29l3.54,2.12a.51.51,0,0,0,.48,0l3.06-1.83c.13-.08.12-.21,0-.3l-3.53-2.11A.53.53,0,0,0,218.26,226.23Zm43.64-15.56a.53.53,0,0,0,.49,0l3.05-1.83c.13-.08.12-.21,0-.29l-3.54-2.12a.5.5,0,0,0-.49,0l-3,1.83c-.13.08-.13.21,0,.29Zm-39.17,12.89-3.06,1.83c-.13.08-.12.21,0,.29l3.53,2.12a.53.53,0,0,0,.49,0l3.06-1.83c.13-.08.12-.21,0-.29l-3.53-2.12A.5.5,0,0,0,222.73,223.56Zm-33.49,30.67a.56.56,0,0,0,.49,0l3.06-1.84c.12-.07.12-.2,0-.29L189.23,250a.54.54,0,0,0-.48,0l-3.06,1.84c-.13.07-.12.2,0,.29Zm-6.72-6.57-3.06,1.83c-.13.08-.12.21,0,.3L183,251.9a.48.48,0,0,0,.48,0l3.06-1.83c.13-.08.12-.21,0-.29L183,247.67A.53.53,0,0,0,182.52,247.66Zm11.68,3.9,3.05-1.83c.13-.08.12-.21,0-.3l-3.54-2.11a.53.53,0,0,0-.49,0l-3.05,1.84c-.13.08-.13.21,0,.29l3.54,2.12A.53.53,0,0,0,194.2,251.56Zm4.46-2.68,3.06-1.83c.13-.08.12-.21,0-.29l-3.53-2.12a.5.5,0,0,0-.49,0l-3.06,1.83c-.13.08-.12.21,0,.29l3.54,2.12A.51.51,0,0,0,198.66,248.88Zm4.47-2.68,3.06-1.83c.13-.08.12-.21,0-.29L202.64,242a.53.53,0,0,0-.49,0l-3.06,1.83c-.13.08-.12.21,0,.29l3.53,2.12A.5.5,0,0,0,203.13,246.2ZM187,245l-3.06,1.83c-.13.08-.12.21,0,.3l3.53,2.12a.56.56,0,0,0,.49,0L191,247.4c.13-.07.12-.2,0-.29L187.48,245A.53.53,0,0,0,187,245Zm4.47-2.68-3.06,1.84c-.13.07-.12.21,0,.29l3.53,2.12a.53.53,0,0,0,.49,0l3.06-1.83c.12-.08.12-.21,0-.3l-3.54-2.12A.54.54,0,0,0,191.46,242.3Zm17.87-10.71-3.06,1.83c-.13.08-.12.21,0,.3l3.53,2.12a.56.56,0,0,0,.49,0l3.06-1.84c.13-.07.12-.21,0-.29l-3.54-2.12A.51.51,0,0,0,209.33,231.59Zm-4.47,2.68-3.06,1.83c-.13.08-.12.21,0,.29l3.53,2.12a.5.5,0,0,0,.49,0l3.06-1.83c.13-.08.12-.21,0-.29l-3.53-2.12A.53.53,0,0,0,204.86,234.27Zm8.93-5.36-3,1.84c-.13.07-.13.2,0,.29l3.54,2.12a.53.53,0,0,0,.49,0l3.05-1.84c.13-.07.13-.2,0-.29l-3.54-2.12A.56.56,0,0,0,213.79,228.91Zm-17.87,10.72-3,1.83c-.13.08-.13.21,0,.29l3.54,2.12a.53.53,0,0,0,.49,0l3.05-1.83c.13-.08.13-.21,0-.29l-3.54-2.12A.5.5,0,0,0,195.92,239.63Zm4.47-2.68-3.06,1.83c-.13.08-.12.21,0,.29l3.54,2.12a.48.48,0,0,0,.48,0l3.06-1.83c.13-.08.12-.21,0-.29L200.88,237A.5.5,0,0,0,200.39,237Zm-3.26,18.9,3.06-1.83c.13-.08.12-.21,0-.29l-3.54-2.12a.51.51,0,0,0-.48,0l-3.06,1.83c-.13.08-.12.21,0,.3l3.53,2.11A.5.5,0,0,0,197.13,255.85Zm-26.22-2.74L167.38,251a.5.5,0,0,0-.49,0l-3.06,1.83c-.13.08-.12.21,0,.29l3.53,2.12a.53.53,0,0,0,.49,0l3.06-1.83C171.06,253.32,171.05,253.19,170.91,253.11Zm6.7,2L174.07,253a.48.48,0,0,0-.48,0l-4.71,2.82c-.13.07-.12.21,0,.29l3.53,2.12a.53.53,0,0,0,.49,0l4.7-2.82C177.75,255.36,177.75,255.23,177.61,255.15ZM165.49,249,162,246.89a.51.51,0,0,0-.48,0l-3.77,2.26c-.13.07-.12.2,0,.29l3.54,2.12a.54.54,0,0,0,.48,0l3.77-2.26C165.64,249.22,165.63,249.09,165.49,249Zm2.88-1.73a.53.53,0,0,0,.49,0l3.06-1.83c.13-.08.12-.21,0-.29l-3.53-2.12a.5.5,0,0,0-.49,0l-3.06,1.83c-.13.08-.12.21,0,.29Zm15.46,10.19-3.53-2.12a.53.53,0,0,0-.49,0l-5.88,3.52c-.13.08-.12.21,0,.3l3.53,2.11a.53.53,0,0,0,.49,0l5.88-3.53C184,257.68,184,257.55,183.83,257.47Zm2.94,4.29-3.54-2.11a.5.5,0,0,0-.49,0L179,261.89c-.13.08-.12.21,0,.29l3.53,2.12a.5.5,0,0,0,.49,0l3.76-2.25C186.91,262,186.91,261.85,186.77,261.76Zm14.82-34.39a.53.53,0,0,0,.49,0l3-1.83c.13-.08.13-.21,0-.3l-3.54-2.12a.54.54,0,0,0-.48,0L198,225c-.13.07-.12.21,0,.29Zm-8.93,5.35a.48.48,0,0,0,.48,0l3.06-1.83c.13-.08.12-.21,0-.29l-3.53-2.12a.53.53,0,0,0-.49,0l-3.06,1.83c-.13.08-.12.21,0,.3ZM172.84,244.6a.5.5,0,0,0,.49,0l3.06-1.83c.13-.08.12-.21,0-.29l-3.54-2.12a.51.51,0,0,0-.48,0l-3.06,1.83c-.13.08-.12.21,0,.29Zm24.28-14.55a.56.56,0,0,0,.49,0l3.06-1.84c.13-.07.12-.2,0-.29l-3.53-2.12a.53.53,0,0,0-.49,0l-3.06,1.83c-.13.08-.12.21,0,.3Zm-8.93,5.35a.5.5,0,0,0,.49,0l3-1.83c.13-.08.12-.21,0-.29l-3.53-2.12a.53.53,0,0,0-.49,0L184.64,233c-.13.08-.13.21,0,.29Zm1,26.71a.53.53,0,0,0-.49,0l-4.7,2.82c-.13.08-.12.21,0,.29l3.53,2.12a.53.53,0,0,0,.49,0l4.7-2.82c.13-.08.13-.21,0-.29Zm-7.44-22.86a.54.54,0,0,0,.48,0l3.06-1.84c.13-.07.12-.2,0-.29L181.77,235a.53.53,0,0,0-.49,0l-3.06,1.83c-.13.08-.12.21,0,.3Zm-4.47,2.67a.5.5,0,0,0,.49,0l3-1.83c.13-.08.12-.21,0-.29l-3.54-2.12a.53.53,0,0,0-.49,0l-3.05,1.83c-.13.08-.13.21,0,.3ZM272,212.49a.53.53,0,0,0-.49,0L264,217c-.13.08-.12.21,0,.29l3.54,2.12a.5.5,0,0,0,.49,0l7.52-4.51c.13-.08.12-.21,0-.29Zm-9.88,5.92a.51.51,0,0,0-.48,0l-3.06,1.83c-.13.08-.12.21,0,.3l3.53,2.11a.5.5,0,0,0,.49,0l3.06-1.83c.13-.08.12-.21,0-.29ZM201.6,253.18l3.05-1.84c.13-.07.13-.2,0-.29l-3.54-2.12a.53.53,0,0,0-.49,0l-3.05,1.83c-.13.08-.12.21,0,.3l3.54,2.12A.56.56,0,0,0,201.6,253.18Zm51.58-29.41a.5.5,0,0,0-.49,0l-3.06,1.83c-.13.08-.12.21,0,.29l3.54,2.12a.51.51,0,0,0,.48,0l3.06-1.83c.13-.08.12-.21,0-.29Zm23.28-14a.53.53,0,0,0-.49,0l-3.06,1.83c-.13.08-.12.21,0,.3l3.53,2.12a.56.56,0,0,0,.49,0l3.06-1.84c.13-.07.12-.2,0-.29Zm8-.56-8.58-5.14a.5.5,0,0,0-.49,0l-3.06,1.83c-.13.08-.12.21,0,.29l8.58,5.15a.53.53,0,0,0,.49,0l3.06-1.83C284.61,209.47,284.6,209.34,284.46,209.25Zm-48,24.53a.48.48,0,0,0-.48,0L232.23,236c-.13.08-.12.21,0,.29l3.54,2.12a.48.48,0,0,0,.48,0l3.77-2.25c.13-.08.12-.21,0-.3ZM247.77,227a.53.53,0,0,0-.49,0l-4.7,2.82c-.13.08-.12.21,0,.29l3.53,2.12a.53.53,0,0,0,.49,0l4.7-2.82c.13-.08.12-.21,0-.29Zm-21.63,13a.5.5,0,0,0-.49,0l-25.16,15.08c-.13.08-.12.21,0,.29l3.53,2.12a.5.5,0,0,0,.49,0l25.16-15.08c.13-.08.12-.21,0-.29Zm-26.57,15.93a.5.5,0,0,0-.49,0l-3.76,2.25c-.13.08-.12.21,0,.29l3.54,2.12a.5.5,0,0,0,.49,0l3.76-2.25c.13-.08.12-.21,0-.29Zm31.74-19a.5.5,0,0,0-.49,0l-3.76,2.25c-.13.08-.12.21,0,.29l3.53,2.12a.5.5,0,0,0,.49,0l3.76-2.25c.13-.08.12-.21,0-.29ZM194.39,259a.48.48,0,0,0-.48,0l-3.77,2.25c-.13.08-.12.21,0,.29l3.54,2.12a.48.48,0,0,0,.48,0l3.77-2.25c.13-.08.12-.21,0-.29Zm47.27-28.33a.53.53,0,0,0-.49,0l-3.76,2.26c-.13.08-.13.21,0,.29l3.54,2.12a.53.53,0,0,0,.49,0l3.76-2.25c.13-.08.12-.21,0-.3Zm16-9.59a.53.53,0,0,0-.49,0l-3.06,1.83c-.13.08-.12.21,0,.29l3.53,2.12a.5.5,0,0,0,.49,0l3.06-1.83c.13-.08.12-.21,0-.29Zm9.79-7.38,3.05-1.83c.13-.08.12-.21,0-.3l-3.53-2.12a.56.56,0,0,0-.49,0l-3.05,1.84c-.13.07-.13.2,0,.29L267,213.7A.53.53,0,0,0,267.44,213.71Zm-20-.14,3.06-1.83c.13-.08.12-.21,0-.29L247,209.33a.53.53,0,0,0-.49,0l-3.06,1.83c-.13.08-.12.21,0,.29l3.53,2.12A.5.5,0,0,0,247.46,213.57Zm-10.12,18.18,8.93-5.36c.13-.07.12-.2,0-.29L242.72,224a.53.53,0,0,0-.49,0l-8.93,5.36c-.13.08-.12.21,0,.29l3.53,2.12A.53.53,0,0,0,237.34,231.75Zm25.14-15.37a.56.56,0,0,0,.49,0l3-1.84c.13-.07.13-.21,0-.29l-3.54-2.12a.51.51,0,0,0-.48,0L258.93,214c-.13.08-.12.21,0,.3Zm-4.56-3,3.06-1.83c.12-.08.12-.21,0-.3l-3.54-2.11a.51.51,0,0,0-.48,0l-3.06,1.84c-.13.08-.12.21,0,.29l3.53,2.12A.53.53,0,0,0,257.92,213.36Zm-25.05,21.07,3.06-1.83c.13-.08.12-.21,0-.3l-3.54-2.11a.51.51,0,0,0-.48,0L228.83,232c-.13.08-.12.21,0,.29l3.53,2.12A.53.53,0,0,0,232.87,234.43ZM252.6,222.3a.56.56,0,0,0,.49,0l3.06-1.84c.13-.07.12-.2,0-.29l-3.53-2.12a.53.53,0,0,0-.49,0l-3.06,1.83c-.13.08-.12.21,0,.3Zm-42.07,25.52,3.06-1.83c.13-.08.12-.21,0-.29L210,243.58a.5.5,0,0,0-.49,0l-3.06,1.83c-.13.08-.12.21,0,.29l3.53,2.12A.53.53,0,0,0,210.53,247.82Zm4.47-2.68,3.06-1.83c.13-.08.12-.21,0-.29l-3.54-2.12a.48.48,0,0,0-.48,0L211,242.72c-.13.08-.12.21,0,.29l3.53,2.12A.53.53,0,0,0,215,245.14Zm-8.94,5.36,3.06-1.83c.13-.08.12-.21,0-.3l-3.53-2.12a.56.56,0,0,0-.49,0L202,248.08c-.13.07-.12.21,0,.29l3.54,2.12A.51.51,0,0,0,206.06,250.5Zm17.87-10.71L227,238c.13-.08.12-.21,0-.29l-3.53-2.12a.53.53,0,0,0-.49,0l-3,1.83c-.13.08-.13.21,0,.3l3.54,2.11A.51.51,0,0,0,223.93,239.79Zm-4.46,2.67,3.05-1.83c.13-.08.13-.21,0-.29L219,238.22a.53.53,0,0,0-.49,0l-3,1.83c-.13.08-.12.21,0,.29l3.53,2.12A.5.5,0,0,0,219.47,242.46Zm8.93-5.35,3.06-1.84c.13-.07.12-.2,0-.29l-3.53-2.12a.53.53,0,0,0-.49,0l-3.06,1.84c-.13.07-.12.2,0,.29l3.53,2.12A.56.56,0,0,0,228.4,237.11Zm20.44-39.62a.53.53,0,0,0,.49,0l3.06-1.84c.13-.07.12-.2,0-.29l-.94-.56a.5.5,0,0,0-.49,0l-3.06,1.83c-.13.08-.12.21,0,.29Zm-22,14.73a.53.53,0,0,0,.49,0l3.05-1.83c.13-.08.13-.21,0-.3L226.85,208a.5.5,0,0,0-.49,0l-3.05,1.83c-.13.08-.12.21,0,.29Zm8.94-5.36a.48.48,0,0,0,.48,0l3.06-1.83c.13-.08.12-.21,0-.29l-3.53-2.12a.53.53,0,0,0-.49,0l-3.06,1.83c-.13.08-.12.21,0,.29Zm-14.4,8.63a.53.53,0,0,0,.49,0l3.06-1.83c.13-.08.12-.21,0-.29l-3.53-2.12a.5.5,0,0,0-.49,0l-3.06,1.83c-.13.08-.12.21,0,.29Zm9.93-6a.53.53,0,0,0,.49,0l3.05-1.83c.13-.08.12-.21,0-.29l-3.53-2.12a.5.5,0,0,0-.49,0l-3.05,1.83c-.13.08-.13.21,0,.29Zm-18.86,11.31a.56.56,0,0,0,.49,0l3-1.84c.13-.07.13-.2,0-.29l-3.54-2.12a.53.53,0,0,0-.49,0l-3.05,1.83c-.13.08-.12.21,0,.3Zm4.47-2.68a.51.51,0,0,0,.48,0l3.06-1.83c.13-.08.12-.21,0-.3l-3.53-2.12a.56.56,0,0,0-.49,0l-3.05,1.84c-.13.07-.13.21,0,.29Zm23-15.33a.48.48,0,0,0,.48,0l3.06-1.83c.13-.08.12-.21,0-.29l-.94-.57a.54.54,0,0,0-.48,0L239,202c-.13.07-.12.21,0,.29Zm13.4-8a.53.53,0,0,0,.49,0l3.05-1.83c.13-.08.13-.21,0-.3l-.94-.56a.53.53,0,0,0-.49,0L252.35,194c-.13.08-.12.21,0,.29Zm7.42,4.45a.53.53,0,0,0,.49,0l3.06-1.83c.13-.08.12-.21,0-.29L260.73,195a.5.5,0,0,0-.49,0l-3.06,1.83c-.13.08-.12.21,0,.29ZM271.9,211,275,209.2c.13-.08.12-.21,0-.3l-3.53-2.11a.5.5,0,0,0-.49,0l-3.06,1.83c-.13.08-.12.21,0,.29l3.54,2.12A.51.51,0,0,0,271.9,211Zm-27.53-10.87a.53.53,0,0,0,.49,0l3.06-1.84c.13-.07.12-.21,0-.29l-.94-.56a.5.5,0,0,0-.49,0l-3.05,1.83c-.13.08-.13.21,0,.29ZM208,223.52a.5.5,0,0,0,.49,0l3.06-1.83c.13-.08.12-.21,0-.29L208,219.29a.51.51,0,0,0-.48,0l-3.06,1.83c-.13.08-.12.21,0,.3Z" transform="translate(-48.22 -65.71)"/><path class="cls-3" d="M227.81,251.37,258,233.29a3.49,3.49,0,0,1,3.29,0l17.3,10.36a1.06,1.06,0,0,1,0,2L248.4,263.71a3.49,3.49,0,0,1-3.29,0l-17.3-10.37A1.05,1.05,0,0,1,227.81,251.37Z" transform="translate(-48.22 -65.71)"/><path class="cls-13" d="M227.81,251.37,258,233.29a3.49,3.49,0,0,1,3.29,0l17.3,10.36a1.06,1.06,0,0,1,0,2L248.4,263.71a3.49,3.49,0,0,1-3.29,0l-17.3-10.37A1.05,1.05,0,0,1,227.81,251.37Z" transform="translate(-48.22 -65.71)"/><path class="cls-3" d="M128.37,240a4.27,4.27,0,0,0,.84.37,3.35,3.35,0,0,1-.84-.37l-.26-.17Z" transform="translate(-48.22 -65.71)"/><path class="cls-5" d="M241.58,76.21c-.19-1.47-1.33-2-2.72-1.18L133.68,138.08a5.79,5.79,0,0,0-1.94,2.12l-5.14-3.08a5.71,5.71,0,0,1,1.94-2.12L233.72,71.94a5.7,5.7,0,0,1,5.32-.1A6.19,6.19,0,0,1,241.58,76.21Z" transform="translate(-48.22 -65.71)"/><path class="cls-3" d="M133.17,240.28l0,0,0,0Z" transform="translate(-48.22 -65.71)"/><path class="cls-14" d="M324,227.67a6.15,6.15,0,0,1-2.74,4.73L216,295.45a5.35,5.35,0,0,1-2.74.67V290a5.36,5.36,0,0,0,2.74-.69l105.19-63c1.41-.85,1.5-2.19.27-3.1A6.15,6.15,0,0,1,324,227.67Z" transform="translate(-48.22 -65.71)"/></g><g id="Window"><path class="cls-7" d="M137.54,219.12c0,1.35.91,1.89,2,1.22l93-55.78a4.69,4.69,0,0,0,2-3.65v-65l-97.1,58.21Z" transform="translate(-48.22 -65.71)"/><path class="cls-15" d="M172.91,140.37v3.12c0,.64.44.9,1,.58l19.32-11.64V127l-19.32,11.64A2.27,2.27,0,0,0,172.91,140.37Z" transform="translate(-48.22 -65.71)"/><path class="cls-3" d="M198.29,123.93c.54-.32,1-.06,1,.58v3.12a2.26,2.26,0,0,1-1,1.75l-5.09,3.05V127Z" transform="translate(-48.22 -65.71)"/><path class="cls-15" d="M197.92,128.21l-.57-.18a3.29,3.29,0,0,0,.09-.76,1.42,1.42,0,0,0-.52-1.26.78.78,0,0,0-.83,0A3.07,3.07,0,0,0,195,128.5a1.39,1.39,0,0,0,.52,1.26.65.65,0,0,0,.36.1.91.91,0,0,0,.46-.14,2.41,2.41,0,0,0,.92-1.27l.57.18h.06a.2.2,0,0,0,.2-.15A.22.22,0,0,0,197.92,128.21Zm-1.83,1.13a.35.35,0,0,1-.4,0,1,1,0,0,1-.31-.88,2.67,2.67,0,0,1,.92-2.07.48.48,0,0,1,.26-.08.28.28,0,0,1,.15,0,1,1,0,0,1,.31.88A2.67,2.67,0,0,1,196.09,129.34Z" transform="translate(-48.22 -65.71)"/><path class="cls-8" d="M137.54,149.67a4.72,4.72,0,0,1,2-3.65l93-55.77c1.12-.67,2-.13,2,1.21v4.42l-97.1,58.21Z" transform="translate(-48.22 -65.71)"/><path class="cls-3" d="M223.22,98.16a2.19,2.19,0,0,0-1,1.71c0,.63.43.88,1,.57a2.22,2.22,0,0,0,.95-1.71C224.17,98.1,223.74,97.84,223.22,98.16Z" transform="translate(-48.22 -65.71)"/><path class="cls-3" d="M226.55,96.16a2.22,2.22,0,0,0-1,1.72c0,.63.43.88,1,.57a2.24,2.24,0,0,0,.95-1.72C227.5,96.1,227.07,95.85,226.55,96.16Z" transform="translate(-48.22 -65.71)"/><path class="cls-3" d="M229.88,94.17a2.19,2.19,0,0,0-.95,1.71c0,.63.42.89.95.57a2.21,2.21,0,0,0,1-1.71C230.83,94.11,230.4,93.86,229.88,94.17Z" transform="translate(-48.22 -65.71)"/><path class="cls-15" d="M139.57,220.34l93-55.78a4.69,4.69,0,0,0,2-3.65V113.83L137.54,172v47.08C137.54,220.47,138.45,221,139.57,220.34Z" transform="translate(-48.22 -65.71)"/><path class="cls-16" d="M175.49,139.24l14.19-8.5c.54-.33,1-.1,1,.52a2.24,2.24,0,0,1-1,1.7l-14.17,8.44c-.55.33-1,.11-1-.48A2.18,2.18,0,0,1,175.49,139.24Z" transform="translate(-48.22 -65.71)"/><path class="cls-3" d="M173,176.76c-.1.06-.17.06-.22,0l-.11-.12-2.3-4.09V178a.62.62,0,0,1-.07.29.41.41,0,0,1-.15.2l-.67.4a.11.11,0,0,1-.15,0,.28.28,0,0,1-.07-.21v-8.5a.62.62,0,0,1,.07-.29.41.41,0,0,1,.15-.2l.58-.34c.09-.06.16-.06.21,0l.11.12,2.3,4.09V168.1a.62.62,0,0,1,.07-.29.41.41,0,0,1,.15-.2l.67-.4a.12.12,0,0,1,.16,0,.33.33,0,0,1,.06.21v8.5a.75.75,0,0,1-.06.29.48.48,0,0,1-.16.2Z" transform="translate(-48.22 -65.71)"/><path class="cls-3" d="M174.89,169.86a8.31,8.31,0,0,1,.18-1.49,6.74,6.74,0,0,1,.44-1.4,5.57,5.57,0,0,1,.75-1.21,3.87,3.87,0,0,1,1.05-.92,2.2,2.2,0,0,1,1-.35,1,1,0,0,1,.74.32,2.13,2.13,0,0,1,.46.86,5.9,5.9,0,0,1,.18,1.29c0,.16,0,.34,0,.54v1.25c0,.21,0,.39,0,.56a9.59,9.59,0,0,1-.18,1.5,6.54,6.54,0,0,1-.45,1.4,5.24,5.24,0,0,1-.74,1.2,4.11,4.11,0,0,1-1.05.9,2,2,0,0,1-1.05.36,1.07,1.07,0,0,1-.75-.31,2,2,0,0,1-.44-.86,5.42,5.42,0,0,1-.18-1.29c0-.16,0-.34,0-.54s0-.41,0-.62,0-.43,0-.63S174.88,170,174.89,169.86Zm3.73-2.17a1.74,1.74,0,0,0-.39-1.24c-.23-.2-.54-.19-.92,0a2.46,2.46,0,0,0-.93,1.07,4.25,4.25,0,0,0-.38,1.7c0,.34,0,.71,0,1.12s0,.78,0,1.1a1.7,1.7,0,0,0,.38,1.23c.24.21.54.19.93,0a2.39,2.39,0,0,0,.92-1.07,4.16,4.16,0,0,0,.39-1.69c0-.34,0-.71,0-1.12S178.63,168,178.62,167.69Z" transform="translate(-48.22 -65.71)"/><path class="cls-3" d="M184.94,160.4A2.36,2.36,0,0,1,186,160a1,1,0,0,1,.75.28,2,2,0,0,1,.46.87,5.89,5.89,0,0,1,.19,1.38q0,1,0,1.95a9.33,9.33,0,0,1-.19,1.62,6.66,6.66,0,0,1-.46,1.41,4.87,4.87,0,0,1-.73,1.18,4.38,4.38,0,0,1-1,.87l-2.07,1.24c-.06,0-.11,0-.15,0a.25.25,0,0,1-.07-.21v-8.49a.59.59,0,0,1,.07-.29.36.36,0,0,1,.15-.2Zm1.35,2.82a3.05,3.05,0,0,0-.1-.72,1.09,1.09,0,0,0-.25-.48.61.61,0,0,0-.43-.17,1.42,1.42,0,0,0-.61.22l-1.1.66v5.92l1.14-.69a2.18,2.18,0,0,0,.59-.5,3.18,3.18,0,0,0,.41-.66,3.75,3.75,0,0,0,.25-.78,4.93,4.93,0,0,0,.1-.85C186.31,164.5,186.31,163.86,186.29,163.22Z" transform="translate(-48.22 -65.71)"/><path class="cls-3" d="M191.07,156.73c.08,0,.15,0,.19,0a.69.69,0,0,1,.12.27l2,7.1a.28.28,0,0,1,0,.09.75.75,0,0,1-.06.29.48.48,0,0,1-.16.2l-.59.35c-.11.07-.19.08-.23,0a.29.29,0,0,1-.09-.16l-.36-1.25-2.6,1.56-.35,1.67a2.13,2.13,0,0,1-.09.27.55.55,0,0,1-.23.25l-.59.36a.13.13,0,0,1-.16,0,.34.34,0,0,1-.07-.22s0-.06,0-.09l2-9.52a2.14,2.14,0,0,1,.11-.41.5.5,0,0,1,.2-.23Zm.45,5.5-.91-3.2-.9,4.29Z" transform="translate(-48.22 -65.71)"/><path class="cls-3" d="M197.4,152.93a.13.13,0,0,1,.16,0,.33.33,0,0,1,.06.21v.94a.79.79,0,0,1-.06.29.56.56,0,0,1-.16.2l-1.48.88v7.21a.62.62,0,0,1-.07.29.41.41,0,0,1-.15.2l-.67.4a.12.12,0,0,1-.16,0,.33.33,0,0,1-.06-.21v-7.21l-1.48.89a.13.13,0,0,1-.16,0,.33.33,0,0,1-.06-.21v-.94a.79.79,0,0,1,.06-.29.56.56,0,0,1,.16-.2Z" transform="translate(-48.22 -65.71)"/><path class="cls-3" d="M200.57,151c.09-.05.15-.05.2,0a.58.58,0,0,1,.11.26l2,7.11s0,0,0,.08a.73.73,0,0,1-.07.29.43.43,0,0,1-.16.2l-.59.36c-.11.06-.19.07-.23,0a.42.42,0,0,1-.09-.16l-.35-1.25-2.6,1.56-.36,1.67a1.48,1.48,0,0,1-.09.28.55.55,0,0,1-.23.25l-.59.35a.12.12,0,0,1-.16,0,.33.33,0,0,1-.06-.21v-.1l2-9.52a1.47,1.47,0,0,1,.12-.4.48.48,0,0,1,.19-.23Zm.45,5.51-.9-3.21-.91,4.29Z" transform="translate(-48.22 -65.71)"/></g></g></g></svg>