<?xml version="1.0" encoding="UTF-8"?>
<!DOCTYPE svg PUBLIC "-//W3C//DTD SVG 1.1//EN" "http://www.w3.org/Graphics/SVG/1.1/DTD/svg11.dtd">
<!-- Creator: CorelDRAW 2018 (64-Bit) -->
<svg xmlns="http://www.w3.org/2000/svg" xml:space="preserve" width="6.7732mm" height="6.7732mm" version="1.1" style="shape-rendering:geometricPrecision; text-rendering:geometricPrecision; image-rendering:optimizeQuality; fill-rule:evenodd; clip-rule:evenodd"
viewBox="0 0 677.32 677.32"
 xmlns:xlink="http://www.w3.org/1999/xlink">
 <defs>
  <style type="text/css">
   <![CDATA[
    .fil0 {fill:#fff}
   ]]>
  </style>
 </defs>
 <g id="Layer_x0020_1">
  <metadata id="CorelCorpID_0Corel-Layer"/>
  <path class="fil0" d="M400.84 464.38l120.38 0 0 9.26 -120.38 0 0 -9.26zm-400.85 30.43l55.57 14.55c0.42,-5.14 1.18,-3.45 1.32,-9.26 -6.74,-0.15 -5.1,-3.27 -6.62,1.32l-3.97 0 0 -3.96 -30.98 -7.46c-5.13,0.14 -1.75,-1.96 -3.41,2.16l-2.65 0c-0.59,-5.37 -1.51,-5.15 -7.94,-5.29l-1.32 6.86 0 1.08zm195.79 19.84c0.13,5.76 1.03,4.67 1.33,10.58 0.56,10.73 -2.91,27.79 11.91,27.79 15.32,0 9.98,-19.86 9.32,-27.85 -0.36,-4.38 -0.07,-9.98 -0.07,-14.49 -6.67,0.15 -12.48,3.75 -22.49,3.97zm-39.68 38.37c10.78,0 10.42,-3.45 21.16,-17.2 4.73,-6.06 14.1,-15.71 14.55,-21.17 -5.12,0.11 -4.45,0.95 -7.93,0.94l-15.88 -0.94c-4.33,0 -13.45,14.88 -16.21,18.19 -11.27,13.44 2.2,20.18 4.31,20.18zm-104.52 -152.14c0,6.63 2.88,16.8 4.49,23.29 5.44,21.81 4.52,18.73 34.21,12.76 3.56,-0.72 27.49,-2.6 17.69,-15.71 -5.77,-7.71 -20.16,0.89 -35.22,2.15 -0.51,-6.1 -4.1,-29.1 -11.91,-29.1 -4.11,0 -9.26,1.36 -9.26,6.61zm10.59 -43.66c0,32.79 47.62,28.85 47.62,3.97l0 -7.93c0,-10.03 -9.61,-19.85 -25.13,-19.85 -12.46,0 -22.49,11.37 -22.49,23.81zm116.42 29.1c0,30 44.97,30.23 44.97,0 0,-29.31 -44.97,-29.31 -44.97,0zm2.64 -13.22c-14.3,0.32 -17.26,16.66 -28.62,23.08 -6.09,3.44 -6.63,0.75 -12.39,-0.59 5.14,22.06 33.81,6.85 36.68,-4.33 2.56,-9.98 -2.14,-8.49 4.33,-18.16zm0 46.3c14.65,0 6.55,23.45 13.23,33.07 0,-9.68 10.02,-43.65 -9.26,-43.65 -12.81,0 -27.31,1.4 -37.34,3.67 -12.36,2.79 -20.87,5.3 -20.87,20.14 6.86,-0.15 12.37,-3.35 19.84,-3.97 -0.23,0.21 -0.62,0.19 -0.74,0.58 -0.35,1.2 -16.46,7.71 -16.46,11.33 0,6.38 4.89,25.27 6.48,33.22 3.25,16.33 8.8,11.63 25.27,7.79 -0.82,9.9 -5.28,18.57 -5.28,29.1 17.87,4.17 39.78,3.41 57.68,-1.85 4.58,-1.34 5.73,-2.5 9.78,-3.44 -0.26,-11.51 -6.05,-13.06 -7.93,-21.16 -4.14,0.34 -4.71,1.32 -9.26,1.32 -4.5,0 -25.05,-20.68 -28.09,-24.83 -3.17,-4.31 -3.1,-15.91 -3.79,-22.68 -0.77,-7.6 -3.32,-18.64 6.74,-18.64zm26.46 64.83c3.09,0 6.61,-1.73 6.61,-5.3 0,-10.16 -15.48,-15.43 -22.19,-25.43 -3.36,-4.98 0.19,-42.08 -14.36,-31.09 -5.7,4.3 -0.24,35.59 3.35,39.46 1.28,1.37 4.33,3.4 6.44,5.46 5.42,5.3 14.72,16.9 20.15,16.9zm-199.77 2.64c3.96,-2.9 1.56,-3.78 5.3,-5.29 1.67,4.03 0.52,0.31 0,6.61 7.5,0.17 25.04,7.16 34.39,7.94l0 -3.97 3.97 0 0 5.3c9.94,2.31 8.51,-0.34 10.86,-10.32 1.71,-7.28 3.7,-10.35 3.7,-20.11l-47.14 -12.5c-12.5,-3.33 -10.85,0.77 -13.72,12.49 -4.57,18.61 -5.46,14.22 2.64,19.85zm48.96 23.81c-6.61,-0.14 -9.27,-2.5 -15.88,-2.64 -3.66,5.46 -6.99,9.75 -11.15,15.31 -3.35,4.47 -10.02,11.42 -10.02,17.76 0,9.48 13.63,19.54 25.17,4 3.02,-4.06 5.85,-7.89 9.04,-12.13 19.47,-25.96 19.41,-20.79 14.74,-40.82 15.76,4.21 1.44,60.86 26.46,60.86 18.32,0 9.93,-25.17 8.5,-33.64 -3.4,-20.36 -2.64,-34.28 -12.85,-42.71 -5.26,-4.33 -11.04,-9.23 -16.82,-12.29 7.07,-10.56 22.95,-19.57 25.14,-27.78 -8.45,4.06 -1.7,-2.97 -14.88,10.25 -4.25,4.26 -8.11,10.61 -14.23,12.24l0 -15.88c-12.19,0 -12.75,-5.08 -14.89,-15.52 -2,-9.73 -4.95,-15.82 -4.95,-28.14 0,-9.75 22.49,-14.88 22.49,18.53 4.3,-3.15 5.29,-13.87 5.29,-19.84 9.81,6.56 11.26,18.27 22.49,18.52 -1.17,-4.39 -3.8,-5.66 -6.61,-9.27 -3.14,-4.04 -22.48,-25.13 -26.46,-25.13 -25.5,0 -25.71,10.66 -34.43,30.39l-12.88 30.85c-0.89,1.93 -1.9,3.32 -2.21,4.63 -1.22,5.18 -1.76,2.77 1.89,4.24 0.59,0.25 0.23,5.45 5.3,-7.92 1.68,-4.45 2.3,-7.16 5.29,-10.59l0 21.16c4.65,2.23 14.2,4.57 20.37,6.09 22.73,5.62 18.76,4.4 12.44,29.38 -2.39,9.48 -3.47,7.7 -6.35,20.09zm411.42 -321.47l9.27 0 0 -3.97 -5.29 0 0 -14.55c0,-3.66 -1.03,-3.18 -3.98,-3.97l0 22.49zm-56.88 -11.9c0,4.9 1.71,8.52 3.97,11.9 8.49,0 6.36,-1.89 9.26,-7.93l-5.29 0c-0.59,6.92 1.26,2.38 -2.65,3.96 -0.71,-8.58 -2.8,-2.52 0,-14.55 4.19,1.56 1.9,-2.87 2.65,3.97l3.97 0c-0.28,-12.57 -11.91,-9.14 -11.91,2.65zm-13.23 -3.97c0,3.44 7.24,3.55 7.94,11.9 -6.85,-1.83 -4.48,-8.66 -7.24,-2.22 -2.42,5.61 11.21,10.86 11.21,-0.43 0,-5.3 -13,-11.19 -5.7,-11.12 6.14,0.05 -3.76,0.83 5.7,1.87 -0.58,-2.48 -0.2,-2.21 -1.42,-3.88l-1.3 -1.34c-4.16,-3.54 -9.19,0.41 -9.19,5.22zm113.77 -3.97c0,13.83 7.21,7.39 7.35,13.44 0.04,1.75 1.87,0.6 -1.04,1.56 -3.34,1.09 -0.56,0.11 -2.02,-0.57 -4.31,-1.97 1.22,-2.65 -5.61,-1.21 4.6,8.7 4.16,7.1 11.91,5.3l0 -2.65c4.25,0 -0.91,-6.75 -2.46,-8.11 -3.82,-3.37 -3.62,0.1 -4.15,-6.44 6.14,1.64 1.16,2.08 7.93,2.65 -3.46,-6.54 -3.75,-8.86 -11.91,-3.97zm-14.55 1.32c0,5.53 -1.42,18.52 6.62,18.52 7.17,0 5.29,-9.26 5.29,-18.52 0,-3.72 -0.57,-2.45 -2.65,-3.97 -2.13,4.44 -1.32,12 -1.32,18.52 -5.98,-1.6 -3.97,-0.72 -3.97,-18.52 -2.95,0.79 -3.97,0.31 -3.97,3.97zm-54.24 10.59l0 -6.62c0,-3.66 1.02,-3.18 3.97,-3.97l0 14.55c-2.95,-0.78 -3.97,-0.31 -3.97,-3.96zm-3.97 -5.3c0,19.21 11.91,13.84 11.91,7.94 0,-15.12 1.49,-15.31 -6.61,-17.2 -3.21,2.14 -5.3,3.88 -5.3,9.26zm18.52 9.26l0 -14.55c2.95,0.79 3.97,0.31 3.97,3.97l0 6.62c0,4.54 -1.11,2.66 -3.97,3.96zm-3.96 -13.23c0,21.69 0.12,15.88 10.58,15.88 1.98,-8.49 1.98,-11.36 0,-19.84 -4.02,-0.94 -10.58,-2.36 -10.58,3.96zm-27.79 17.2l3.97 0 0 -9.26 3.97 0 0 9.26c5.44,-1.45 3.97,-0.89 3.97,-18.52 0,-5.06 0.4,-0.48 -1.33,-3.97 -4.01,2.94 -2.64,2.29 -2.64,9.26l-3.97 0c0,-6.97 1.37,-6.32 -2.64,-9.26 -2.41,5.02 -1.33,15.32 -1.33,22.49zm62.18 -3.97l0 -5.29c2.75,0.74 3.43,-0.42 3.37,2.64 -0.09,4.28 -1.3,1.71 -3.37,2.65zm0 -14.55l2.65 0 0 5.29 -2.65 0 0 -5.29zm-3.96 0l0 18.52c18.2,0 10.12,-11.08 10.12,-11.1 -0.86,-4.48 3.8,-8.72 -4.32,-10.89 -3.73,-1 -5.8,-0.4 -5.8,3.47zm34.43 82c15.71,0.02 31.63,2.67 47.59,2.67l0 -7.94c-8.08,-0.18 -43.87,-7.94 -54.25,-7.94l6.66 13.21zm-10.63 13.25l10.59 0c-9.27,19.33 24.71,46.18 43.14,19.33 5.42,-7.9 4.49,-14.88 4.49,-27.26 -31.84,-2.65 -47.47,-8.11 -58.22,7.93zm-215.63 273.85c0,17.22 24.77,13.23 35.72,13.23 16.87,0 13.23,-25.09 13.23,-38.37l-48.95 0 0 25.14zm288.4 0c0,17.22 24.77,13.23 35.72,13.23 16.87,0 13.23,-25.09 13.23,-38.37l-48.95 0 0 25.14zm68.79 -212.99c9,2.09 18.78,2.09 27.78,0l0 -67.47 0 -16.57c-1.18,-4.43 -6.13,-3.28 -23.82,-3.28 -6.36,0 -3.97,12.47 -3.96,18.53l0 68.79zm-146.85 9.25l78.06 0c8.18,0 0.23,-16.86 -1.72,-20.76 -3.13,-6.3 -8.16,-13.63 -16.8,-13.63l-41.02 0c-8.64,0 -13.67,7.33 -16.8,13.63 -1.84,3.69 -9.94,20.76 -1.72,20.76zm-259.29 -89.95l0 76.73c0,9.07 23.82,5.2 29.1,3.97 0,-6.41 0.84,-83.01 -0.61,-85.39 -2.68,-4.39 -21.08,-1.93 -27.17,-1.93 -0.69,2.97 -1.32,3.04 -1.32,6.62zm324.12 207.7l0 -7.94c0,-10.56 14.58,-25.14 25.13,-25.14 10.82,0 19.98,0.06 28.02,9.03 14.27,15.94 10.64,51.83 -25.37,51.83 -14.24,0 -27.78,-13.54 -27.78,-27.78zm-166.69 -6.62l120.38 0 0 7.94 -120.38 0 0 -7.94zm-108.48 3.97c0,-7.23 4.62,-16.57 8.27,-20.83 14.99,-17.48 53.9,-12.38 53.9,22.15 0,27.27 -34.83,38.55 -53.25,20.18 -3.99,-3.97 -8.92,-14.18 -8.92,-21.5zm108.48 -34.39l120.38 0 0 9.26 -120.38 0 0 -9.26zm-93.93 -87.32l0 -87.31c0,-6.54 5.36,-11.9 11.91,-11.9l134.94 0 0 111.12 -134.94 0c-6.55,0 -11.91,-5.37 -11.91,-11.91zm297.66 11.91l-136.27 0 0 -111.12 134.95 0c7.13,0 11.9,6.53 11.9,13.22l0 84.67c0,7.15 -6.54,13.23 -10.58,13.23zm-80.7 -141.55l-125.68 0c-16.21,0 -13.23,-18.44 -13.23,-30.43 0,-7.43 5.8,-13.23 13.23,-13.23l125.68 0c18.43,0 18.43,43.66 0,43.66zm62.18 -18.52c0,-13.35 17.2,-11.84 17.2,1.31 0,3 -3.48,6.23 -6.17,7.15 -3.73,1.27 -6.78,-0.45 -9.71,-1.85 -0.69,-2.97 -1.32,-3.04 -1.32,-6.61zm-27.78 1.31c0,-14.68 17.19,-14.51 17.19,0 0,9.72 -17.19,9.57 -17.19,0zm-239.45 -1.31c0,-12.67 17.19,-13.11 17.19,1.31 0,8.82 -17.19,11.4 -17.19,-1.31zm35.71 -9.27c3.75,0 9.27,4.2 9.27,7.94 0,8.48 -8.18,13.46 -14.82,8.23 -6.35,-4.99 -2.61,-16.17 5.55,-16.17zm-72.76 226.23c-5.84,1.36 -10.58,4.79 -10.58,11.9l0 83.35c0,3.87 6.71,10.58 10.58,10.58l355.87 0c6.65,0 13.23,-6.58 13.23,-13.23l0 -79.38c0,-7.12 -5.16,-12.67 -11.9,-13.22l0.01 -218.31c-0.69,-6.98 -5.51,-9.38 -11.6,-14.85 -12.26,-11.03 -39.85,-22.64 -56.16,-27.18 -61.91,-17.27 -158.58,-19.96 -220.5,-0.13 -16.44,5.27 -65.28,24.7 -68.68,41.12l-0.27 219.35z"/>
 </g>
</svg>
