<?xml version="1.0" encoding="UTF-8"?>
<!DOCTYPE svg PUBLIC "-//W3C//DTD SVG 1.1//EN" "http://www.w3.org/Graphics/SVG/1.1/DTD/svg11.dtd">
<!-- Creator: CorelDRAW 2018 (64-Bit) -->
<svg xmlns="http://www.w3.org/2000/svg" xml:space="preserve" width="34.554mm" height="16.134mm" version="1.1" style="shape-rendering:geometricPrecision; text-rendering:geometricPrecision; image-rendering:optimizeQuality; fill-rule:evenodd; clip-rule:evenodd"
viewBox="0 0 3455.4 1613.4"
 xmlns:xlink="http://www.w3.org/1999/xlink">
 <defs>
  <style type="text/css">
   <![CDATA[
    .str0 {stroke:white;stroke-width:100.01;stroke-linejoin:round;stroke-miterlimit:22.926}
    .str1 {stroke:#1A1A1A;stroke-width:17.63;stroke-linejoin:round;stroke-miterlimit:22.926}
    .fil4 {fill:none;fill-rule:nonzero}
    .fil7 {fill:#004C8F}
    .fil5 {fill:#EE1C25}
    .fil0 {fill:white}
    .fil1 {fill:black;fill-rule:nonzero}
    .fil3 {fill:white;fill-rule:nonzero}
    .fil2 {fill:#D9DADA;fill-opacity:0.231373}
    .fil6 {fill:#E31E24;fill-opacity:0.301961}
    .fil8 {fill:#9EA1B5;fill-rule:nonzero;fill-opacity:0.501961}
   ]]>
  </style>
 </defs>
 <g id="Layer_x0020_1">
  <metadata id="CorelCorpID_0Corel-Layer"/>
  <g id="_1433565188016">
   <path class="fil0" d="M37.48 1548.27l194.74 0c-7.2,-24.54 -33.17,-52.3 -49.71,-118.33 -36.98,-147.66 60.09,-246.89 190.21,-305.09 143.26,-64.09 389.06,-112.4 565.45,-113.4 -15.51,8.24 -53.24,9.23 -71.58,11.85 -70.93,10.05 -139.45,21.18 -208.27,37.37 -135.19,31.78 -363.89,97.13 -414.55,240.21 -35.22,99.5 17.64,181.04 56.2,247.39l380.42 0c-0.71,-7.41 0.29,-6.46 -13.85,-14.14 -40.62,-22.14 -77.37,-46.86 -114.21,-72.52 -36.9,-25.69 -86.53,-68.97 -110.85,-102.12 -94.08,-128.26 21.71,-196.53 122.2,-239.71 91.68,-39.39 233.52,-69.43 342.44,-86.42 54.39,-8.47 342.48,-51.45 379.62,-43.61l-11.23 -3.53c-194.36,-4.64 -575.83,16.65 -765.6,48.92 -164.6,27.99 -440.33,80.36 -498.45,264.12 -26.36,83.31 2.61,169.1 27.02,249.01z"/>
   <path class="fil1" d="M863.06 1544.7l0 68.72 -16.86 0 0 -68.72 -33.25 0 0 -14.9 83.51 0 0 14.9 -33.4 0zm108.49 -0.48l-37.89 0 0 23.33 37.89 0c2.92,0 4.91,-0.49 5.98,-1.46 1.08,-1 1.62,-2.72 1.62,-5.21l0 -10.08c0,-2.43 -0.54,-4.13 -1.62,-5.12 -1.07,-0.98 -3.06,-1.46 -5.98,-1.46zm-54.45 69.2l0 -83.62 61.91 0c5.77,0 9.97,1.26 12.54,3.84 2.6,2.53 3.88,6.64 3.88,12.34l0 19.66c0,5.64 -1.28,9.74 -3.88,12.31 -2.57,2.56 -6.77,3.88 -12.54,3.88l-9.44 0 33.47 31.59 -24.2 0 -29.2 -31.59 -15.98 0 0 31.59 -16.56 0zm126.08 -33.4l31.77 0 -15.65 -34.02 -16.12 34.02zm-32.43 33.4l41.01 -83.62 16.28 0 41.55 83.62 -18.93 0 -8.71 -18.31 -45.96 0 -8.43 18.31 -16.81 0zm180.47 -68.72l-45.49 0 0 53.01 45.49 0 0 -18.01 16.83 4.07 0 9.88c0,7.64 -1.22,12.87 -3.73,15.62 -2.49,2.77 -7.21,4.15 -14.21,4.15l-43.27 0c-7.05,0 -11.8,-1.38 -14.25,-4.15 -2.46,-2.75 -3.71,-7.98 -3.71,-15.62l0 -44.1c0,-7.58 1.25,-12.78 3.71,-15.58 2.45,-2.76 7.2,-4.17 14.25,-4.17l43.27 0c7,0 11.72,1.41 14.21,4.17 2.51,2.8 3.73,8 3.73,15.58l0 7.94 -16.83 3.09 0 -15.88zm51.63 68.72l0 -83.62 16.99 0 0 34.89 40.18 -34.89 24.39 0 -47.99 39.42 53.88 44.2 -27.06 0 -43.4 -36.8 0 36.8 -16.99 0zm184.34 -33.4l31.78 0 -15.66 -34.02 -16.12 34.02zm-32.43 33.4l41.01 -83.62 16.27 0 41.55 83.62 -18.92 0 -8.71 -18.31 -45.95 0 -8.45 18.31 -16.8 0zm121.99 0l0 -83.62 11.53 0 50.99 49.29c1.74,1.62 3.25,3.15 4.59,4.61 1.33,1.47 2.52,2.95 3.62,4.49 -0.26,-4.68 -0.44,-8.01 -0.54,-9.96 -0.08,-1.98 -0.14,-3.46 -0.14,-4.53l0 -43.9 15.16 0 0 83.62 -11.51 0 -53.2 -51.66c-1.26,-1.35 -2.39,-2.49 -3.34,-3.57 -0.97,-1.07 -1.85,-2.15 -2.68,-3.25 0.23,2.6 0.41,5.03 0.53,7.32 0.11,2.3 0.16,4.3 0.16,5.97l0 45.19 -15.17 0zm142.38 0l0 -37.41 -37.62 -46.21 22.47 0 24.88 32.11 24.94 -32.11 19.79 0 -37.49 45.73 0 37.89 -16.97 0zm107.79 -68.72l0 68.72 -16.84 0 0 -68.72 -33.27 0 0 -14.9 83.51 0 0 14.9 -33.4 0zm54.04 68.72l0 -83.62 16.85 0 0 32.41 52.65 0 0 -32.41 16.97 0 0 83.62 -16.97 0 0 -35.97 -52.65 0 0 35.97 -16.85 0zm123.51 0l0 -83.62 16.84 0 0 83.62 -16.84 0zm53.74 0l0 -83.62 11.5 0 51.01 49.29c1.73,1.62 3.25,3.15 4.59,4.61 1.33,1.47 2.53,2.95 3.63,4.49 -0.27,-4.68 -0.45,-8.01 -0.54,-9.96 -0.09,-1.98 -0.15,-3.46 -0.15,-4.53l0 -43.9 15.17 0 0 83.62 -11.53 0 -53.19 -51.66c-1.26,-1.35 -2.38,-2.49 -3.34,-3.57 -0.97,-1.07 -1.84,-2.15 -2.67,-3.25 0.21,2.6 0.4,5.03 0.52,7.32 0.11,2.3 0.16,4.3 0.16,5.97l0 45.19 -15.16 0zm190.1 -68.72l-52.64 0 0 53.01 52.64 0 0 -18.64 -27.52 0 0 -14.27 43.94 0 0 28.85c0,7.64 -1.24,12.87 -3.72,15.62 -2.46,2.77 -7.24,4.15 -14.28,4.15l-49.97 0c-7.04,0 -11.78,-1.38 -14.24,-4.15 -2.47,-2.75 -3.7,-7.98 -3.7,-15.62l0 -44.09c0,-7.59 1.23,-12.78 3.7,-15.59 2.46,-2.76 7.2,-4.17 14.24,-4.17l49.97 0c6.95,0 11.7,1.37 14.23,4.1 2.51,2.76 3.77,7.69 3.77,14.86l0 1.92 -16.42 3.42 0 -9.4zm124.95 35.32l31.79 0 -15.67 -34.02 -16.12 34.02zm-32.42 33.4l41.01 -83.62 16.26 0 41.55 83.62 -18.92 0 -8.7 -18.31 -45.95 0 -8.45 18.31 -16.8 0zm122 0l0 -83.62 11.51 0 50.99 49.29c1.74,1.62 3.26,3.15 4.6,4.61 1.33,1.47 2.52,2.95 3.61,4.49 -0.26,-4.68 -0.43,-8.01 -0.53,-9.96 -0.1,-1.98 -0.14,-3.46 -0.14,-4.53l0 -43.9 15.16 0 0 83.62 -11.52 0 -53.19 -51.66c-1.26,-1.35 -2.4,-2.49 -3.34,-3.57 -0.97,-1.07 -1.86,-2.15 -2.68,-3.25 0.22,2.6 0.4,5.03 0.52,7.32 0.12,2.3 0.16,4.3 0.16,5.97l0 45.19 -15.15 0zm142.36 0l0 -37.41 -37.62 -46.21 22.47 0 24.88 32.11 24.94 -32.11 19.8 0 -37.49 45.73 0 37.89 -16.98 0zm88.93 0l-27.89 -83.62 17.41 0 18.37 56.09 19.25 -56.09 11.8 0 19.61 56.09 17.54 -56.09 15.06 0 -27.96 83.62 -11.36 0 -19.96 -57.83 -20.21 57.83 -11.66 0zm115.14 0l0 -83.62 16.85 0 0 32.41 52.64 0 0 -32.41 16.98 0 0 83.62 -16.98 0 0 -35.97 -52.64 0 0 35.97 -16.85 0zm123.5 0l0 -83.62 74.11 0 0 14.25 -57.25 0 0 18.64 33.4 0 0 14.25 -33.4 0 0 20.77 57.97 0 0 15.71 -74.83 0zm160.41 -69.2l-37.88 0 0 23.33 37.88 0c2.93,0 4.92,-0.49 5.99,-1.46 1.08,-1 1.61,-2.72 1.61,-5.21l0 -10.08c0,-2.43 -0.53,-4.13 -1.61,-5.12 -1.07,-0.98 -3.06,-1.46 -5.99,-1.46zm-54.44 69.2l0 -83.62 61.9 0c5.79,0 9.97,1.26 12.54,3.84 2.61,2.53 3.89,6.64 3.89,12.34l0 19.66c0,5.64 -1.28,9.74 -3.89,12.31 -2.57,2.56 -6.75,3.88 -12.54,3.88l-9.45 0 33.48 31.59 -24.2 0 -29.19 -31.59 -15.98 0 0 31.59 -16.56 0zm112.56 0l0 -83.62 74.11 0 0 14.25 -57.28 0 0 18.64 33.43 0 0 14.25 -33.43 0 0 20.77 58 0 0 15.71 -74.83 0z"/>
   <path class="fil2" d="M37.48 1548.27l194.74 0c-7.2,-24.54 -33.17,-52.3 -49.71,-118.33 -36.98,-147.66 60.09,-246.89 190.21,-305.09 143.26,-64.09 389.06,-112.4 565.45,-113.4 -15.51,8.24 -53.24,9.23 -71.58,11.85 -70.93,10.05 -139.45,21.18 -208.27,37.37 -135.19,31.78 -363.89,97.13 -414.55,240.21 -35.22,99.5 17.64,181.04 56.2,247.39l380.42 0c-0.71,-7.41 0.29,-6.46 -13.85,-14.14 -40.62,-22.14 -77.37,-46.86 -114.21,-72.52 -36.9,-25.69 -86.53,-68.97 -110.85,-102.12 -94.08,-128.26 21.71,-196.53 122.2,-239.71 91.68,-39.39 233.52,-69.43 342.44,-86.42 54.39,-8.47 342.48,-51.45 379.62,-43.61l-11.23 -3.53c-194.36,-4.64 -575.83,16.65 -765.6,48.92 -164.6,27.99 -440.33,80.36 -498.45,264.12 -26.36,83.31 2.61,169.1 27.02,249.01z"/>
   <path class="fil0 str0" d="M249.22 1413.07c63.69,0 115.32,13.9 115.32,31.03 0,17.14 -51.63,31.04 -115.32,31.04 -63.69,0 -115.33,-13.9 -115.33,-31.04 0,-17.13 51.64,-31.03 115.33,-31.03z"/>
   <path class="fil0 str0" d="M249.22 1404.99c80.28,0 145.37,17.5 145.37,39.1 0,21.62 -65.09,39.13 -145.37,39.13 -80.3,0 -145.37,-17.51 -145.37,-39.13 0,-21.6 65.07,-39.1 145.37,-39.1z"/>
   <path class="fil3" d="M2910.16 1406.74l79.66 0 0 -71.42 22.07 -22.68 63.72 94.1 99.19 0 -108.96 -147.25 93.76 -94.43 -98.11 0 -70.95 83.26 -0.72 0 0 -83.26 -79.66 0 0 241.68zm-2109.39 0l79.65 0 0 -241.68 -79.65 0 0 241.68zm141.38 0l75.3 0 0 -132.02 0.74 0 79.27 132.02 77.47 0 0 -241.68 -75.31 0 0 129.29 -0.72 0 -75.28 -129.29 -81.47 0 0 241.68zm493.25 0l50.39 0 0 -133.02 -105.72 0 0 51.78 35.06 0c-3.98,17.94 -22.75,26.75 -41.21,26.75 -48.51,0 -58.22,-39.61 -58.22,-62.29 0,-16.6 -1.8,-70.42 52.79,-70.42 18.82,0 34.69,12.53 37.59,30.12l76.44 0c-11.58,-56.85 -53.27,-90.37 -119.09,-90.37 -58.25,0 -127.38,36.91 -127.38,128.98 0,68.71 47.07,124.23 123.39,124.23 28.24,0 55.69,-9.15 73.43,-30.48l2.53 24.72zm93.82 -81.24c0.72,77.18 84.34,87 113.68,87 57.55,0 119.47,-20.33 119.47,-83.27 0,-44.34 -36.2,-60.25 -72.77,-69.74 -36.58,-9.47 -73.49,-13.2 -74.94,-30.45 0,-13.55 17.73,-16.26 28.6,-16.26 7.96,0 17.01,1.7 23.53,6.09 6.53,4.06 10.86,10.17 9.42,19.3l75.31 0c-2.19,-58.9 -51.78,-78.88 -107.91,-78.88 -53.21,0 -104.25,24.03 -104.25,79.89 0,48.75 46.69,59.24 87.61,70.06 44.52,11.85 55.76,15.25 55.76,27.76 0,17.96 -19.92,22.01 -32.96,22.01 -14.84,0 -32.22,-3.05 -38,-17.59 -1.82,-4.42 -2.9,-9.83 -2.9,-15.92l-79.65 0zm338.46 81.24l79.64 0 0 -179.75 72.4 0 0 -61.93 -224.46 0 0 61.93 72.42 0 0 179.75zm201.24 0l79.64 0 0 -84.28 42.36 0c31.49,0 33.65,24.03 35.83,47.04 1.08,12.52 2.54,25.05 6.52,37.24l79.63 0c-7.23,-11.18 -7.59,-39.94 -8.68,-51.78 -2.89,-30.13 -16.29,-52.48 -38.01,-60.27 26.42,-9.14 38.73,-35.54 38.73,-60.58 0,-45.69 -39.09,-69.05 -84.35,-69.05l-151.67 0 0 241.68zm79.64 -184.13l37.29 0c30.4,0 39.45,8.79 39.45,24.02 0,21.66 -20.27,24.03 -35.11,24.03l-41.63 0 0 -48.05zm287.65 97.81l24.98 -74.47 0.72 0 23.18 74.47 -48.88 0zm-108.96 86.32l80 0 11.59 -34.53 82.18 0 10.85 34.53 82.54 0 -94.12 -241.68 -77.83 0 -95.21 241.68zm539.25 -151.65c-6.87,-60.59 -45.98,-95.46 -116.91,-95.8 -79.66,0 -131.07,50.44 -131.07,126.59 0,71.42 47.43,126.62 131.07,126.62 75.65,0 118.01,-51.81 118.01,-100.54l-78.21 0c-4.7,22.68 -15.2,40.29 -41.98,40.29 -37.29,0 -49.24,-33.87 -49.24,-66.37 0,-32.49 11.95,-66.34 49.24,-66.34 32.93,0 40.18,26.75 41.63,35.55l77.46 0z"/>
   <line class="fil4 str1" x1="815.72" y1="1475.67" x2="3169.57" y2= "1475.67" />
   <polygon class="fil0" points="526.27,1165.06 526.27,1406.74 605.92,1406.74 605.92,1335.32 627.99,1312.64 691.72,1406.74 790.91,1406.74 681.93,1259.48 775.7,1165.06 775.54,1165.06 677.62,1165.06 677.6,1165.06 608.27,1246.41 606.64,1248.32 605.92,1248.32 605.92,1165.06 527.82,1165.06 "/>
   <polygon class="fil0" points="526.27,1165.06 526.27,1406.74 605.92,1406.74 605.92,1335.32 627.99,1312.64 691.72,1406.74 790.91,1406.74 681.94,1259.48 775.7,1165.06 775.53,1165.06 677.62,1165.06 677.61,1165.06 608.26,1246.41 606.64,1248.32 605.92,1248.32 605.92,1165.06 527.82,1165.06 "/>
   <path class="fil5" d="M231.45 1437.22c24.15,42.27 18.18,32.68 54.72,-28.81 11.38,-19.15 22.57,-39.61 33.52,-58.5 27.8,-48 62.85,-98.03 87.03,-149.03 -40.71,38.99 -95.72,62.91 -156.29,62.91 -61.79,0 -117.79,-24.9 -158.72,-65.29 36.14,73.45 107.33,181.63 139.74,238.72z"/>
   <path class="fil5" d="M139.17 1148.57c-8.56,-6.33 -15.19,-43.2 -15.19,-55.09l0 -21.42 -59.18 0c0,38.79 1.08,57.44 17.7,90.79 20.44,41.02 40.59,70.54 77.55,28.22l49.14 -49.95c23.72,-17.79 54.77,-19.62 77.57,-0.57 4.85,4.05 8.71,6.8 12.94,11.45l36.41 38.28c23.31,23.48 37.94,33.62 62.4,0.92 26.46,-35.35 35.13,-70.7 35.13,-119.14l-59.2 0c0,21.5 -0.78,42.39 -8.2,62.12 -1.89,5.02 -4.33,9.52 -5.46,14.39 -1.35,-1.58 -2.58,-2.95 -3.96,-5.2l-105.32 -181.52 -112.33 186.72zm160.42 -54.09l-45.82 -92.69 -54.93 92.69 100.75 0zm-233.28 -39.26l60.71 0c0,-14.57 8.93,-31.81 14.15,-42.38 31.31,-63.36 116.41,-89.27 173.45,-47.28 26.88,19.78 53.87,54.26 56.79,89.66l59.2 0c-0.4,-17.76 -13.37,-47.77 -20.23,-60.73 -12.07,-22.79 -36.13,-49.16 -57.17,-63.24 -40.87,-27.34 -65.98,-32.14 -115.38,-32.14 -39.44,0 -79.44,19.5 -108.24,43.92 -36.97,31.33 -52.25,64.46 -63.28,112.19z"/>
   <path class="fil6" d="M249.22 1413.07c63.69,0 115.32,13.9 115.32,31.03 0,17.14 -51.63,31.04 -115.32,31.04 -63.69,0 -115.33,-13.9 -115.33,-31.04 0,-17.13 51.64,-31.03 115.33,-31.03z"/>
   <path class="fil6" d="M249.22 1404.99c80.28,0 145.37,17.5 145.37,39.1 0,21.62 -65.09,39.13 -145.37,39.13 -80.29,0 -145.37,-17.51 -145.37,-39.13 0,-21.6 65.08,-39.1 145.37,-39.1z"/>
   <path class="fil7" d="M2910.16 1406.74l79.66 0 0 -71.42 22.07 -22.68 63.72 94.1 99.19 0 -108.96 -147.25 93.76 -94.43 -98.11 0 -70.95 83.26 -0.72 0 0 -83.26 -79.66 0 0 241.68zm-2109.39 0l79.65 0 0 -241.68 -79.65 0 0 241.68zm141.38 0l75.3 0 0 -132.02 0.74 0 79.27 132.02 77.47 0 0 -241.68 -75.31 0 0 129.29 -0.72 0 -75.28 -129.29 -81.47 0 0 241.68zm493.25 0l50.39 0 0 -133.02 -105.72 0 0 51.78 35.06 0c-3.98,17.94 -22.75,26.75 -41.21,26.75 -48.51,0 -58.22,-39.61 -58.22,-62.29 0,-16.6 -1.8,-70.42 52.79,-70.42 18.82,0 34.69,12.53 37.59,30.12l76.44 0c-11.58,-56.85 -53.27,-90.37 -119.09,-90.37 -58.25,0 -127.38,36.91 -127.38,128.98 0,68.71 47.07,124.23 123.39,124.23 28.24,0 55.69,-9.15 73.43,-30.48l2.53 24.72zm93.82 -81.24c0.72,77.18 84.34,87 113.68,87 57.55,0 119.47,-20.33 119.47,-83.27 0,-44.34 -36.2,-60.25 -72.77,-69.74 -36.58,-9.47 -73.49,-13.2 -74.94,-30.45 0,-13.55 17.73,-16.26 28.6,-16.26 7.96,0 17.01,1.7 23.53,6.09 6.53,4.06 10.86,10.17 9.42,19.3l75.31 0c-2.19,-58.9 -51.78,-78.88 -107.91,-78.88 -53.21,0 -104.25,24.03 -104.25,79.89 0,48.75 46.69,59.24 87.61,70.06 44.52,11.85 55.76,15.25 55.76,27.76 0,17.96 -19.92,22.01 -32.96,22.01 -14.84,0 -32.22,-3.05 -38,-17.59 -1.82,-4.42 -2.9,-9.83 -2.9,-15.92l-79.65 0zm338.46 81.24l79.64 0 0 -179.75 72.4 0 0 -61.93 -224.46 0 0 61.93 72.42 0 0 179.75zm201.24 0l79.64 0 0 -84.28 42.36 0c31.49,0 33.65,24.03 35.83,47.04 1.08,12.52 2.54,25.05 6.52,37.24l79.63 0c-7.23,-11.18 -7.59,-39.94 -8.68,-51.78 -2.89,-30.13 -16.29,-52.48 -38.01,-60.27 26.42,-9.14 38.73,-35.54 38.73,-60.58 0,-45.69 -39.09,-69.05 -84.35,-69.05l-151.67 0 0 241.68zm79.64 -184.13l37.29 0c30.4,0 39.45,8.79 39.45,24.02 0,21.66 -20.27,24.03 -35.11,24.03l-41.63 0 0 -48.05zm287.65 97.81l24.98 -74.47 0.72 0 23.18 74.47 -48.88 0zm-108.96 86.32l80 0 11.59 -34.53 82.18 0 10.85 34.53 82.54 0 -94.12 -241.68 -77.83 0 -95.21 241.68zm539.25 -151.65c-6.87,-60.59 -45.98,-95.46 -116.91,-95.8 -79.66,0 -131.07,50.44 -131.07,126.59 0,71.42 47.43,126.62 131.07,126.62 75.65,0 118.01,-51.81 118.01,-100.54l-78.21 0c-4.7,22.68 -15.2,40.29 -41.98,40.29 -37.29,0 -49.24,-33.87 -49.24,-66.37 0,-32.49 11.95,-66.34 49.24,-66.34 32.93,0 40.18,26.75 41.63,35.55l77.46 0z"/>
   <polygon class="fil7" points="775.7,1165.06 775.53,1165.06 677.62,1165.06 677.6,1165.06 608.27,1246.41 606.64,1248.32 605.92,1248.32 605.92,1165.06 526.27,1165.06 526.27,1406.74 605.92,1406.74 605.92,1335.32 627.99,1312.64 691.72,1406.74 790.9,1406.74 681.93,1259.48 "/>
   <path class="fil5" d="M1781.92 769.39l138.16 0c30.04,0 52.56,7.34 67.58,22.02 15.02,14.68 22.54,35.91 22.54,62.96 0,27.83 -8.27,49.83 -24.42,65.68 -16.52,15.83 -41.3,23.56 -75.09,23.56l-45.42 0 0 102.38 -83.35 0 0 -276.6zm83.35 118.22l20.64 0c16.14,0 27.41,-3.11 33.8,-8.51 6.38,-5.79 9.76,-13.14 9.76,-22.03 0,-8.87 -2.63,-16.22 -8.64,-22.4 -5.63,-5.79 -16.14,-8.87 -31.91,-8.87l-23.65 0 0 61.81z"/>
   <path class="fil5" d="M1644.69 1000.39l-94.23 0 -13.53 45.6 -84.84 0 101.37 -276.6 90.86 0 100.62 276.6 -87.11 0 -13.14 -45.6zm-17.64 -59.86l-29.29 -99.28 -29.66 99.28 58.95 0z"/>
   <path class="fil5" d="M3135.83 891.07c162.34,-13.75 328.29,66 319.19,298.84 -45.67,-199 -177.92,-259.29 -319.19,-298.84z"/>
   <path class="fil5" d="M3107.56 979.92c117.47,-9.95 237.57,47.75 230.99,216.28 -33.05,-144.02 -128.76,-187.67 -230.99,-216.28z"/>
   <path class="fil5" d="M3101.04 1064.23c76.67,-6.48 155.07,31.17 150.77,141.16 -21.58,-93.99 -84.04,-122.48 -150.77,-141.16z"/>
   <polygon class="fil5" points="2052.71,769.39 2162.34,769.39 2204.02,937.81 2246.07,769.39 2354.95,769.39 2354.95,1045.99 2286.99,1045.99 2286.99,835.07 2234.44,1045.99 2172.86,1045.99 2120.67,835.07 2120.67,1045.99 2052.71,1045.99 "/>
   <path class="fil8" d="M1032.64 71.97c4.42,-7.7 11.01,-14.13 19.77,-19.29 8.77,-5.16 18.96,-7.74 30.59,-7.74 11.96,0 22.81,2.87 32.56,8.6 9.74,5.73 17.4,13.8 22.97,24.2 5.57,10.4 8.35,22.48 8.35,36.24 0,13.59 -2.78,25.72 -8.35,36.36 -5.57,10.65 -13.23,18.92 -22.97,24.82 -9.75,5.89 -20.6,8.84 -32.56,8.84 -11.46,0 -21.58,-2.58 -30.34,-7.74 -8.76,-5.16 -15.44,-11.59 -20.02,-19.28l0 88.69 -22.36 0 0 -198.52 22.36 0 0 24.82zm91.39 42.01c0,-10.16 -2.04,-19 -6.14,-26.53 -4.09,-7.54 -9.62,-13.27 -16.58,-17.2 -6.96,-3.93 -14.62,-5.9 -22.98,-5.9 -8.19,0 -15.76,2.01 -22.72,6.02 -6.96,4.01 -12.53,9.83 -16.71,17.44 -4.18,7.62 -6.26,16.42 -6.26,26.42 0,10.15 2.08,19.04 6.26,26.65 4.18,7.62 9.75,13.43 16.71,17.45 6.96,4.01 14.53,6.02 22.72,6.02 8.36,0 16.02,-2.01 22.98,-6.02 6.96,-4.02 12.49,-9.83 16.58,-17.45 4.1,-7.61 6.14,-16.58 6.14,-26.9zm111.06 70.02c-12.61,0 -24.04,-2.87 -34.28,-8.6 -10.23,-5.73 -18.26,-13.88 -24.07,-24.44 -5.82,-10.57 -8.73,-22.81 -8.73,-36.73 0,-13.76 2.99,-25.93 8.97,-36.49 5.98,-10.56 14.13,-18.67 24.45,-24.32 10.32,-5.65 21.86,-8.48 34.64,-8.48 12.78,0 24.32,2.83 34.64,8.48 10.32,5.65 18.47,13.71 24.45,24.2 5.98,10.48 8.97,22.68 8.97,36.61 0,13.92 -3.07,26.16 -9.22,36.73 -6.14,10.56 -14.45,18.71 -24.93,24.44 -10.49,5.73 -22.12,8.6 -34.89,8.6zm0 -19.65c8.02,0 15.56,-1.89 22.6,-5.65 7.04,-3.77 12.74,-9.42 17.08,-16.96 4.34,-7.53 6.51,-16.7 6.51,-27.51 0,-10.82 -2.13,-19.99 -6.39,-27.52 -4.26,-7.54 -9.83,-13.15 -16.71,-16.83 -6.88,-3.69 -14.33,-5.53 -22.35,-5.53 -8.19,0 -15.69,1.84 -22.49,5.53 -6.79,3.68 -12.24,9.29 -16.33,16.83 -4.1,7.53 -6.15,16.7 -6.15,27.52 0,10.97 2.01,20.22 6.02,27.76 4.02,7.53 9.38,13.14 16.1,16.83 6.71,3.68 14.08,5.53 22.11,5.53zm277.87 -117.2l-42.01 134.64 -23.1 0 -32.43 -106.88 -32.43 106.88 -23.09 0 -42.26 -134.64 22.85 0 30.95 113.02 33.42 -113.02 22.85 0 32.67 113.26 30.47 -113.26 22.11 0zm144.96 62.16c0,4.26 -0.24,8.76 -0.73,13.51l-107.62 0c0.82,13.27 5.37,23.63 13.64,31.08 8.27,7.46 18.3,11.18 30.1,11.18 9.66,0 17.73,-2.25 24.2,-6.75 6.47,-4.51 11.01,-10.53 13.63,-18.06l24.08 0c-3.6,12.94 -10.81,23.46 -21.62,31.57 -10.81,8.11 -24.24,12.16 -40.29,12.16 -12.78,0 -24.2,-2.87 -34.28,-8.6 -10.07,-5.73 -17.97,-13.88 -23.71,-24.44 -5.73,-10.57 -8.6,-22.81 -8.6,-36.73 0,-13.93 2.79,-26.13 8.36,-36.61 5.57,-10.49 13.39,-18.55 23.46,-24.2 10.07,-5.65 21.66,-8.48 34.77,-8.48 12.77,0 24.07,2.79 33.9,8.35 9.83,5.57 17.4,13.23 22.73,22.98 5.32,9.74 7.98,20.76 7.98,33.04zm-23.09 -4.67c0,-8.51 -1.89,-15.84 -5.65,-21.99 -3.77,-6.14 -8.89,-10.81 -15.36,-14 -6.47,-3.19 -13.63,-4.79 -21.5,-4.79 -11.3,0 -20.92,3.6 -28.86,10.81 -7.95,7.21 -12.49,17.2 -13.64,29.97l85.01 0zm74.94 -35.62c3.93,-7.7 9.54,-13.68 16.83,-17.94 7.28,-4.26 16.17,-6.39 26.65,-6.39l0 23.1 -5.89 0c-25.06,0 -37.59,13.59 -37.59,40.78l0 73.22 -22.36 0 0 -134.64 22.36 0 0 21.87zm192.12 40.29c0,4.26 -0.24,8.76 -0.73,13.51l-107.62 0c0.82,13.27 5.37,23.63 13.64,31.08 8.27,7.46 18.3,11.18 30.1,11.18 9.66,0 17.73,-2.25 24.2,-6.75 6.47,-4.51 11.01,-10.53 13.63,-18.06l24.08 0c-3.6,12.94 -10.81,23.46 -21.62,31.57 -10.81,8.11 -24.24,12.16 -40.29,12.16 -12.78,0 -24.2,-2.87 -34.28,-8.6 -10.07,-5.73 -17.97,-13.88 -23.71,-24.44 -5.73,-10.57 -8.6,-22.81 -8.6,-36.73 0,-13.93 2.79,-26.13 8.36,-36.61 5.57,-10.49 13.39,-18.55 23.46,-24.2 10.07,-5.65 21.66,-8.48 34.77,-8.48 12.77,0 24.07,2.79 33.9,8.35 9.83,5.57 17.4,13.23 22.73,22.98 5.32,9.74 7.98,20.76 7.98,33.04zm-23.09 -4.67c0,-8.51 -1.89,-15.84 -5.65,-21.99 -3.77,-6.14 -8.89,-10.81 -15.36,-14 -6.47,-3.19 -13.63,-4.79 -21.5,-4.79 -11.3,0 -20.92,3.6 -28.86,10.81 -7.95,7.21 -12.49,17.2 -13.64,29.97l85.01 0zm44.22 9.34c0,-13.76 2.79,-25.84 8.36,-36.24 5.57,-10.4 13.22,-18.47 22.97,-24.2 9.75,-5.73 20.68,-8.6 32.8,-8.6 10.48,0 20.23,2.42 29.24,7.25 9.01,4.83 15.88,11.18 20.63,19.04l0 -71.25 22.61 0 0 181.81 -22.61 0 0 -25.31c-4.42,8.03 -10.97,14.62 -19.65,19.78 -8.68,5.16 -18.84,7.74 -30.47,7.74 -11.95,0 -22.8,-2.95 -32.55,-8.84 -9.75,-5.9 -17.4,-14.17 -22.97,-24.82 -5.57,-10.64 -8.36,-22.77 -8.36,-36.36zm114 0.25c0,-10.16 -2.04,-19 -6.14,-26.54 -4.09,-7.53 -9.62,-13.31 -16.58,-17.32 -6.96,-4.01 -14.62,-6.02 -22.97,-6.02 -8.36,0 -15.97,1.97 -22.85,5.9 -6.88,3.93 -12.37,9.66 -16.46,17.2 -4.1,7.53 -6.15,16.37 -6.15,26.53 0,10.32 2.05,19.29 6.15,26.9 4.09,7.62 9.58,13.43 16.46,17.45 6.88,4.01 14.49,6.02 22.85,6.02 8.35,0 16.01,-2.01 22.97,-6.02 6.96,-4.02 12.49,-9.83 16.58,-17.45 4.1,-7.61 6.14,-16.5 6.14,-26.65zm148.41 -42.02c4.58,-8.02 11.3,-14.58 20.14,-19.65 8.85,-5.08 18.92,-7.62 30.22,-7.62 12.12,0 23.02,2.87 32.68,8.6 9.66,5.73 17.28,13.8 22.85,24.2 5.57,10.4 8.35,22.48 8.35,36.24 0,13.59 -2.78,25.72 -8.35,36.36 -5.57,10.65 -13.23,18.92 -22.97,24.82 -9.75,5.89 -20.6,8.84 -32.56,8.84 -11.63,0 -21.82,-2.54 -30.59,-7.62 -8.76,-5.07 -15.35,-11.54 -19.77,-19.4l0 24.81 -22.36 0 0 -181.81 22.36 0 0 72.23zm91.39 41.77c0,-10.16 -2.04,-19 -6.14,-26.53 -4.09,-7.54 -9.62,-13.27 -16.58,-17.2 -6.96,-3.93 -14.62,-5.9 -22.98,-5.9 -8.19,0 -15.76,2.01 -22.72,6.02 -6.96,4.01 -12.53,9.83 -16.71,17.44 -4.18,7.62 -6.26,16.42 -6.26,26.42 0,10.15 2.08,19.04 6.26,26.65 4.18,7.62 9.75,13.43 16.71,17.45 6.96,4.01 14.53,6.02 22.72,6.02 8.36,0 16.02,-2.01 22.98,-6.02 6.96,-4.02 12.49,-9.83 16.58,-17.45 4.1,-7.61 6.14,-16.58 6.14,-26.9zm168.3 -66.83l-81.07 198.03 -23.1 0 26.54 -64.86 -54.3 -133.17 24.81 0 42.26 109.09 41.77 -109.09 23.09 0z"/>
  </g>
 </g>
</svg>
